<svg xmlns="http://www.w3.org/2000/svg" xmlns:xlink="http://www.w3.org/1999/xlink" width="500" zoomAndPan="magnify" viewBox="0 0 375 374.999991" height="500" preserveAspectRatio="xMidYMid meet" version="1.0"><defs><g/><clipPath id="d2473d77a9"><path d="M 171 84.089844 L 205 84.089844 L 205 132 L 171 132 Z M 171 84.089844 " clip-rule="nonzero"/></clipPath><clipPath id="a58a08d36f"><path d="M 116.328125 85 L 205 85 L 205 172 L 116.328125 172 Z M 116.328125 85 " clip-rule="nonzero"/></clipPath><clipPath id="9504b47e49"><path d="M 204.019531 85.933594 C 204.058594 91.75 203.378906 110.964844 193.910156 129.726562 C 190.921875 135.625 187.070312 141.488281 182.089844 146.871094 C 169.191406 160.824219 148.726562 171.566406 116.328125 171.566406 L 116.328125 138.785156 C 140.222656 138.785156 157.621094 135.136719 170.289062 129.726562 C 174.796875 127.792969 178.714844 125.644531 182.101562 123.355469 C 202.03125 109.878906 203.941406 91.621094 204.019531 85.933594 Z M 204.019531 85.933594 " clip-rule="nonzero"/></clipPath><linearGradient x1="-0.0000176807" gradientTransform="matrix(0.364637, 0, 0, 0.3636, 116.32857, 84.159088)" y1="122.636002" x2="240.599983" gradientUnits="userSpaceOnUse" y2="122.636002" id="56dbc6190b"><stop stop-opacity="1" stop-color="rgb(21.998596%, 71.398926%, 100%)" offset="0"/><stop stop-opacity="1" stop-color="rgb(21.998596%, 71.398926%, 100%)" offset="0.03125"/><stop stop-opacity="1" stop-color="rgb(22.045898%, 71.273804%, 100%)" offset="0.046875"/><stop stop-opacity="1" stop-color="rgb(22.134399%, 71.037292%, 100%)" offset="0.0546875"/><stop stop-opacity="1" stop-color="rgb(22.218323%, 70.81604%, 100%)" offset="0.0625"/><stop stop-opacity="1" stop-color="rgb(22.302246%, 70.593262%, 100%)" offset="0.0703125"/><stop stop-opacity="1" stop-color="rgb(22.384644%, 70.372009%, 100%)" offset="0.078125"/><stop stop-opacity="1" stop-color="rgb(22.468567%, 70.149231%, 100%)" offset="0.0859375"/><stop stop-opacity="1" stop-color="rgb(22.55249%, 69.927979%, 100%)" offset="0.09375"/><stop stop-opacity="1" stop-color="rgb(22.636414%, 69.7052%, 100%)" offset="0.101562"/><stop stop-opacity="1" stop-color="rgb(22.718811%, 69.483948%, 100%)" offset="0.109375"/><stop stop-opacity="1" stop-color="rgb(22.802734%, 69.261169%, 100%)" offset="0.117188"/><stop stop-opacity="1" stop-color="rgb(22.886658%, 69.039917%, 100%)" offset="0.125"/><stop stop-opacity="1" stop-color="rgb(22.970581%, 68.817139%, 100%)" offset="0.132812"/><stop stop-opacity="1" stop-color="rgb(23.052979%, 68.595886%, 100%)" offset="0.140625"/><stop stop-opacity="1" stop-color="rgb(23.136902%, 68.373108%, 100%)" offset="0.148438"/><stop stop-opacity="1" stop-color="rgb(23.220825%, 68.151855%, 100%)" offset="0.15625"/><stop stop-opacity="1" stop-color="rgb(23.304749%, 67.929077%, 100%)" offset="0.164062"/><stop stop-opacity="1" stop-color="rgb(23.388672%, 67.707825%, 100%)" offset="0.171875"/><stop stop-opacity="1" stop-color="rgb(23.471069%, 67.485046%, 100%)" offset="0.179688"/><stop stop-opacity="1" stop-color="rgb(23.554993%, 67.263794%, 100%)" offset="0.1875"/><stop stop-opacity="1" stop-color="rgb(23.638916%, 67.041016%, 100%)" offset="0.195313"/><stop stop-opacity="1" stop-color="rgb(23.722839%, 66.819763%, 100%)" offset="0.203125"/><stop stop-opacity="1" stop-color="rgb(23.805237%, 66.596985%, 100%)" offset="0.210938"/><stop stop-opacity="1" stop-color="rgb(23.88916%, 66.375732%, 100%)" offset="0.21875"/><stop stop-opacity="1" stop-color="rgb(23.973083%, 66.152954%, 100%)" offset="0.226563"/><stop stop-opacity="1" stop-color="rgb(24.057007%, 65.931702%, 100%)" offset="0.234375"/><stop stop-opacity="1" stop-color="rgb(24.139404%, 65.708923%, 100%)" offset="0.242188"/><stop stop-opacity="1" stop-color="rgb(24.223328%, 65.487671%, 100%)" offset="0.25"/><stop stop-opacity="1" stop-color="rgb(24.307251%, 65.264893%, 100%)" offset="0.257812"/><stop stop-opacity="1" stop-color="rgb(24.391174%, 65.04364%, 100%)" offset="0.265625"/><stop stop-opacity="1" stop-color="rgb(24.475098%, 64.820862%, 100%)" offset="0.273438"/><stop stop-opacity="1" stop-color="rgb(24.557495%, 64.599609%, 100%)" offset="0.28125"/><stop stop-opacity="1" stop-color="rgb(24.641418%, 64.376831%, 100%)" offset="0.289062"/><stop stop-opacity="1" stop-color="rgb(24.725342%, 64.155579%, 100%)" offset="0.296875"/><stop stop-opacity="1" stop-color="rgb(24.809265%, 63.9328%, 100%)" offset="0.304688"/><stop stop-opacity="1" stop-color="rgb(24.891663%, 63.711548%, 100%)" offset="0.3125"/><stop stop-opacity="1" stop-color="rgb(24.975586%, 63.48877%, 100%)" offset="0.320312"/><stop stop-opacity="1" stop-color="rgb(25.059509%, 63.267517%, 100%)" offset="0.328125"/><stop stop-opacity="1" stop-color="rgb(25.143433%, 63.044739%, 100%)" offset="0.335938"/><stop stop-opacity="1" stop-color="rgb(25.22583%, 62.823486%, 100%)" offset="0.34375"/><stop stop-opacity="1" stop-color="rgb(25.309753%, 62.600708%, 100%)" offset="0.351562"/><stop stop-opacity="1" stop-color="rgb(25.393677%, 62.379456%, 100%)" offset="0.359375"/><stop stop-opacity="1" stop-color="rgb(25.4776%, 62.156677%, 100%)" offset="0.367188"/><stop stop-opacity="1" stop-color="rgb(25.559998%, 61.935425%, 100%)" offset="0.375"/><stop stop-opacity="1" stop-color="rgb(25.643921%, 61.712646%, 100%)" offset="0.382813"/><stop stop-opacity="1" stop-color="rgb(25.727844%, 61.491394%, 100%)" offset="0.390625"/><stop stop-opacity="1" stop-color="rgb(25.811768%, 61.268616%, 100%)" offset="0.398438"/><stop stop-opacity="1" stop-color="rgb(25.895691%, 61.047363%, 100%)" offset="0.40625"/><stop stop-opacity="1" stop-color="rgb(25.978088%, 60.824585%, 100%)" offset="0.414063"/><stop stop-opacity="1" stop-color="rgb(26.062012%, 60.603333%, 100%)" offset="0.421875"/><stop stop-opacity="1" stop-color="rgb(26.145935%, 60.380554%, 100%)" offset="0.429688"/><stop stop-opacity="1" stop-color="rgb(26.229858%, 60.159302%, 100%)" offset="0.4375"/><stop stop-opacity="1" stop-color="rgb(26.312256%, 59.936523%, 100%)" offset="0.445313"/><stop stop-opacity="1" stop-color="rgb(26.396179%, 59.715271%, 100%)" offset="0.453125"/><stop stop-opacity="1" stop-color="rgb(26.480103%, 59.492493%, 100%)" offset="0.460938"/><stop stop-opacity="1" stop-color="rgb(26.564026%, 59.27124%, 100%)" offset="0.46875"/><stop stop-opacity="1" stop-color="rgb(26.646423%, 59.048462%, 100%)" offset="0.476563"/><stop stop-opacity="1" stop-color="rgb(26.730347%, 58.827209%, 100%)" offset="0.484375"/><stop stop-opacity="1" stop-color="rgb(26.81427%, 58.604431%, 100%)" offset="0.492188"/><stop stop-opacity="1" stop-color="rgb(26.898193%, 58.383179%, 100%)" offset="0.5"/><stop stop-opacity="1" stop-color="rgb(26.980591%, 58.1604%, 100%)" offset="0.507812"/><stop stop-opacity="1" stop-color="rgb(27.064514%, 57.939148%, 100%)" offset="0.515625"/><stop stop-opacity="1" stop-color="rgb(27.148438%, 57.71637%, 100%)" offset="0.523438"/><stop stop-opacity="1" stop-color="rgb(27.232361%, 57.495117%, 100%)" offset="0.53125"/><stop stop-opacity="1" stop-color="rgb(27.316284%, 57.272339%, 100%)" offset="0.539062"/><stop stop-opacity="1" stop-color="rgb(27.398682%, 57.051086%, 100%)" offset="0.546875"/><stop stop-opacity="1" stop-color="rgb(27.482605%, 56.828308%, 100%)" offset="0.554688"/><stop stop-opacity="1" stop-color="rgb(27.566528%, 56.607056%, 100%)" offset="0.5625"/><stop stop-opacity="1" stop-color="rgb(27.650452%, 56.384277%, 100%)" offset="0.570312"/><stop stop-opacity="1" stop-color="rgb(27.732849%, 56.163025%, 100%)" offset="0.578125"/><stop stop-opacity="1" stop-color="rgb(27.816772%, 55.940247%, 100%)" offset="0.585938"/><stop stop-opacity="1" stop-color="rgb(27.900696%, 55.718994%, 100%)" offset="0.59375"/><stop stop-opacity="1" stop-color="rgb(27.984619%, 55.496216%, 100%)" offset="0.601562"/><stop stop-opacity="1" stop-color="rgb(28.067017%, 55.274963%, 100%)" offset="0.609375"/><stop stop-opacity="1" stop-color="rgb(28.15094%, 55.052185%, 100%)" offset="0.617188"/><stop stop-opacity="1" stop-color="rgb(28.234863%, 54.829407%, 100%)" offset="0.625"/><stop stop-opacity="1" stop-color="rgb(28.318787%, 54.608154%, 100%)" offset="0.632812"/><stop stop-opacity="1" stop-color="rgb(28.40271%, 54.385376%, 100%)" offset="0.640625"/><stop stop-opacity="1" stop-color="rgb(28.485107%, 54.164124%, 100%)" offset="0.648438"/><stop stop-opacity="1" stop-color="rgb(28.569031%, 53.941345%, 100%)" offset="0.65625"/><stop stop-opacity="1" stop-color="rgb(28.652954%, 53.720093%, 100%)" offset="0.664062"/><stop stop-opacity="1" stop-color="rgb(28.736877%, 53.497314%, 100%)" offset="0.671875"/><stop stop-opacity="1" stop-color="rgb(28.819275%, 53.276062%, 100%)" offset="0.679688"/><stop stop-opacity="1" stop-color="rgb(28.903198%, 53.053284%, 100%)" offset="0.6875"/><stop stop-opacity="1" stop-color="rgb(28.987122%, 52.832031%, 100%)" offset="0.695312"/><stop stop-opacity="1" stop-color="rgb(29.071045%, 52.609253%, 100%)" offset="0.703125"/><stop stop-opacity="1" stop-color="rgb(29.153442%, 52.388%, 100%)" offset="0.710938"/><stop stop-opacity="1" stop-color="rgb(29.237366%, 52.165222%, 100%)" offset="0.71875"/><stop stop-opacity="1" stop-color="rgb(29.321289%, 51.94397%, 100%)" offset="0.726562"/><stop stop-opacity="1" stop-color="rgb(29.405212%, 51.721191%, 100%)" offset="0.734375"/><stop stop-opacity="1" stop-color="rgb(29.48761%, 51.499939%, 100%)" offset="0.742188"/><stop stop-opacity="1" stop-color="rgb(29.571533%, 51.277161%, 100%)" offset="0.75"/><stop stop-opacity="1" stop-color="rgb(29.655457%, 51.055908%, 100%)" offset="0.757812"/><stop stop-opacity="1" stop-color="rgb(29.73938%, 50.83313%, 100%)" offset="0.765625"/><stop stop-opacity="1" stop-color="rgb(29.823303%, 50.611877%, 100%)" offset="0.773438"/><stop stop-opacity="1" stop-color="rgb(29.905701%, 50.389099%, 100%)" offset="0.78125"/><stop stop-opacity="1" stop-color="rgb(29.989624%, 50.167847%, 100%)" offset="0.789063"/><stop stop-opacity="1" stop-color="rgb(30.073547%, 49.945068%, 100%)" offset="0.796875"/><stop stop-opacity="1" stop-color="rgb(30.157471%, 49.723816%, 100%)" offset="0.804688"/><stop stop-opacity="1" stop-color="rgb(30.239868%, 49.501038%, 100%)" offset="0.8125"/><stop stop-opacity="1" stop-color="rgb(30.323792%, 49.279785%, 100%)" offset="0.820313"/><stop stop-opacity="1" stop-color="rgb(30.407715%, 49.057007%, 100%)" offset="0.828125"/><stop stop-opacity="1" stop-color="rgb(30.491638%, 48.835754%, 100%)" offset="0.835938"/><stop stop-opacity="1" stop-color="rgb(30.574036%, 48.612976%, 100%)" offset="0.84375"/><stop stop-opacity="1" stop-color="rgb(30.657959%, 48.391724%, 100%)" offset="0.851563"/><stop stop-opacity="1" stop-color="rgb(30.741882%, 48.168945%, 100%)" offset="0.859375"/><stop stop-opacity="1" stop-color="rgb(30.825806%, 47.947693%, 100%)" offset="0.867188"/><stop stop-opacity="1" stop-color="rgb(30.909729%, 47.724915%, 100%)" offset="0.875"/><stop stop-opacity="1" stop-color="rgb(30.992126%, 47.503662%, 100%)" offset="0.882813"/><stop stop-opacity="1" stop-color="rgb(31.07605%, 47.280884%, 100%)" offset="0.890625"/><stop stop-opacity="1" stop-color="rgb(31.159973%, 47.059631%, 100%)" offset="0.898438"/><stop stop-opacity="1" stop-color="rgb(31.243896%, 46.836853%, 100%)" offset="0.90625"/><stop stop-opacity="1" stop-color="rgb(31.326294%, 46.615601%, 100%)" offset="0.914063"/><stop stop-opacity="1" stop-color="rgb(31.410217%, 46.392822%, 100%)" offset="0.921875"/><stop stop-opacity="1" stop-color="rgb(31.494141%, 46.17157%, 100%)" offset="0.929688"/><stop stop-opacity="1" stop-color="rgb(31.578064%, 45.948792%, 100%)" offset="0.9375"/><stop stop-opacity="1" stop-color="rgb(31.660461%, 45.727539%, 100%)" offset="0.945313"/><stop stop-opacity="1" stop-color="rgb(31.744385%, 45.504761%, 100%)" offset="0.953125"/><stop stop-opacity="1" stop-color="rgb(31.828308%, 45.283508%, 100%)" offset="0.960938"/><stop stop-opacity="1" stop-color="rgb(31.912231%, 45.06073%, 100%)" offset="0.96875"/><stop stop-opacity="1" stop-color="rgb(31.994629%, 44.839478%, 100%)" offset="0.976562"/><stop stop-opacity="1" stop-color="rgb(32.078552%, 44.616699%, 100%)" offset="0.984375"/><stop stop-opacity="1" stop-color="rgb(32.159424%, 44.403076%, 100%)" offset="1"/></linearGradient><clipPath id="b5de0b7450"><path d="M 171 168 L 205 168 L 205 215.339844 L 171 215.339844 Z M 171 168 " clip-rule="nonzero"/></clipPath><clipPath id="0183b573a9"><path d="M 171 127 L 258.828125 127 L 258.828125 214 L 171 214 Z M 171 127 " clip-rule="nonzero"/></clipPath><clipPath id="b819ebeb05"><path d="M 171.121094 213.492188 C 171.082031 207.675781 171.765625 188.460938 181.234375 169.699219 C 184.21875 163.796875 188.070312 157.9375 193.050781 152.550781 C 205.953125 138.601562 226.414062 127.859375 258.816406 127.859375 L 258.816406 160.640625 C 234.921875 160.640625 217.527344 164.289062 204.859375 169.699219 C 200.347656 171.628906 196.433594 173.777344 193.042969 176.070312 C 173.113281 189.542969 171.207031 207.808594 171.121094 213.492188 Z M 171.121094 213.492188 " clip-rule="nonzero"/></clipPath><linearGradient x1="167.432093" gradientTransform="matrix(-0.364637, 0.000000000000000045, -0.000000000000000045, -0.3636, 319.869507, 156.943086)" y1="-37.771" x2="408.042099" gradientUnits="userSpaceOnUse" y2="-37.771" id="ced31da266"><stop stop-opacity="1" stop-color="rgb(21.998596%, 71.398926%, 100%)" offset="0"/><stop stop-opacity="1" stop-color="rgb(21.998596%, 71.398926%, 100%)" offset="0.03125"/><stop stop-opacity="1" stop-color="rgb(22.045898%, 71.273804%, 100%)" offset="0.046875"/><stop stop-opacity="1" stop-color="rgb(22.134399%, 71.038818%, 100%)" offset="0.0546875"/><stop stop-opacity="1" stop-color="rgb(22.218323%, 70.81604%, 100%)" offset="0.0625"/><stop stop-opacity="1" stop-color="rgb(22.30072%, 70.594788%, 100%)" offset="0.0703125"/><stop stop-opacity="1" stop-color="rgb(22.384644%, 70.372009%, 100%)" offset="0.078125"/><stop stop-opacity="1" stop-color="rgb(22.468567%, 70.150757%, 100%)" offset="0.0859375"/><stop stop-opacity="1" stop-color="rgb(22.55249%, 69.927979%, 100%)" offset="0.09375"/><stop stop-opacity="1" stop-color="rgb(22.636414%, 69.706726%, 100%)" offset="0.101562"/><stop stop-opacity="1" stop-color="rgb(22.718811%, 69.483948%, 100%)" offset="0.109375"/><stop stop-opacity="1" stop-color="rgb(22.802734%, 69.262695%, 100%)" offset="0.117188"/><stop stop-opacity="1" stop-color="rgb(22.886658%, 69.039917%, 100%)" offset="0.125"/><stop stop-opacity="1" stop-color="rgb(22.970581%, 68.818665%, 100%)" offset="0.132812"/><stop stop-opacity="1" stop-color="rgb(23.052979%, 68.595886%, 100%)" offset="0.140625"/><stop stop-opacity="1" stop-color="rgb(23.136902%, 68.374634%, 100%)" offset="0.148438"/><stop stop-opacity="1" stop-color="rgb(23.220825%, 68.151855%, 100%)" offset="0.15625"/><stop stop-opacity="1" stop-color="rgb(23.304749%, 67.930603%, 100%)" offset="0.164063"/><stop stop-opacity="1" stop-color="rgb(23.387146%, 67.707825%, 100%)" offset="0.171875"/><stop stop-opacity="1" stop-color="rgb(23.471069%, 67.486572%, 100%)" offset="0.179688"/><stop stop-opacity="1" stop-color="rgb(23.554993%, 67.263794%, 100%)" offset="0.1875"/><stop stop-opacity="1" stop-color="rgb(23.638916%, 67.042542%, 100%)" offset="0.195312"/><stop stop-opacity="1" stop-color="rgb(23.722839%, 66.819763%, 100%)" offset="0.203125"/><stop stop-opacity="1" stop-color="rgb(23.805237%, 66.598511%, 100%)" offset="0.210938"/><stop stop-opacity="1" stop-color="rgb(23.88916%, 66.375732%, 100%)" offset="0.21875"/><stop stop-opacity="1" stop-color="rgb(23.973083%, 66.15448%, 100%)" offset="0.226563"/><stop stop-opacity="1" stop-color="rgb(24.057007%, 65.931702%, 100%)" offset="0.234375"/><stop stop-opacity="1" stop-color="rgb(24.139404%, 65.710449%, 100%)" offset="0.242188"/><stop stop-opacity="1" stop-color="rgb(24.223328%, 65.487671%, 100%)" offset="0.25"/><stop stop-opacity="1" stop-color="rgb(24.307251%, 65.264893%, 100%)" offset="0.257812"/><stop stop-opacity="1" stop-color="rgb(24.391174%, 65.04364%, 100%)" offset="0.265625"/><stop stop-opacity="1" stop-color="rgb(24.473572%, 64.820862%, 100%)" offset="0.273438"/><stop stop-opacity="1" stop-color="rgb(24.557495%, 64.599609%, 100%)" offset="0.28125"/><stop stop-opacity="1" stop-color="rgb(24.641418%, 64.376831%, 100%)" offset="0.289063"/><stop stop-opacity="1" stop-color="rgb(24.725342%, 64.155579%, 100%)" offset="0.296875"/><stop stop-opacity="1" stop-color="rgb(24.809265%, 63.9328%, 100%)" offset="0.304688"/><stop stop-opacity="1" stop-color="rgb(24.891663%, 63.711548%, 100%)" offset="0.3125"/><stop stop-opacity="1" stop-color="rgb(24.975586%, 63.48877%, 100%)" offset="0.320313"/><stop stop-opacity="1" stop-color="rgb(25.059509%, 63.267517%, 100%)" offset="0.328125"/><stop stop-opacity="1" stop-color="rgb(25.143433%, 63.044739%, 100%)" offset="0.335938"/><stop stop-opacity="1" stop-color="rgb(25.22583%, 62.823486%, 100%)" offset="0.34375"/><stop stop-opacity="1" stop-color="rgb(25.309753%, 62.600708%, 100%)" offset="0.351563"/><stop stop-opacity="1" stop-color="rgb(25.393677%, 62.379456%, 100%)" offset="0.359375"/><stop stop-opacity="1" stop-color="rgb(25.4776%, 62.156677%, 100%)" offset="0.367188"/><stop stop-opacity="1" stop-color="rgb(25.559998%, 61.935425%, 100%)" offset="0.375"/><stop stop-opacity="1" stop-color="rgb(25.643921%, 61.712646%, 100%)" offset="0.382812"/><stop stop-opacity="1" stop-color="rgb(25.727844%, 61.491394%, 100%)" offset="0.390625"/><stop stop-opacity="1" stop-color="rgb(25.811768%, 61.268616%, 100%)" offset="0.398438"/><stop stop-opacity="1" stop-color="rgb(25.895691%, 61.047363%, 100%)" offset="0.40625"/><stop stop-opacity="1" stop-color="rgb(25.978088%, 60.824585%, 100%)" offset="0.414063"/><stop stop-opacity="1" stop-color="rgb(26.062012%, 60.603333%, 100%)" offset="0.421875"/><stop stop-opacity="1" stop-color="rgb(26.145935%, 60.380554%, 100%)" offset="0.429688"/><stop stop-opacity="1" stop-color="rgb(26.229858%, 60.159302%, 100%)" offset="0.4375"/><stop stop-opacity="1" stop-color="rgb(26.312256%, 59.936523%, 100%)" offset="0.445313"/><stop stop-opacity="1" stop-color="rgb(26.396179%, 59.715271%, 100%)" offset="0.453125"/><stop stop-opacity="1" stop-color="rgb(26.480103%, 59.492493%, 100%)" offset="0.460938"/><stop stop-opacity="1" stop-color="rgb(26.564026%, 59.27124%, 100%)" offset="0.46875"/><stop stop-opacity="1" stop-color="rgb(26.646423%, 59.048462%, 100%)" offset="0.476563"/><stop stop-opacity="1" stop-color="rgb(26.730347%, 58.827209%, 100%)" offset="0.484375"/><stop stop-opacity="1" stop-color="rgb(26.81427%, 58.604431%, 100%)" offset="0.492188"/><stop stop-opacity="1" stop-color="rgb(26.898193%, 58.383179%, 100%)" offset="0.5"/><stop stop-opacity="1" stop-color="rgb(26.980591%, 58.1604%, 100%)" offset="0.507812"/><stop stop-opacity="1" stop-color="rgb(27.064514%, 57.939148%, 100%)" offset="0.515625"/><stop stop-opacity="1" stop-color="rgb(27.148438%, 57.71637%, 100%)" offset="0.523438"/><stop stop-opacity="1" stop-color="rgb(27.232361%, 57.495117%, 100%)" offset="0.53125"/><stop stop-opacity="1" stop-color="rgb(27.316284%, 57.272339%, 100%)" offset="0.539062"/><stop stop-opacity="1" stop-color="rgb(27.398682%, 57.051086%, 100%)" offset="0.546875"/><stop stop-opacity="1" stop-color="rgb(27.482605%, 56.828308%, 100%)" offset="0.554688"/><stop stop-opacity="1" stop-color="rgb(27.566528%, 56.60553%, 100%)" offset="0.5625"/><stop stop-opacity="1" stop-color="rgb(27.650452%, 56.384277%, 100%)" offset="0.570313"/><stop stop-opacity="1" stop-color="rgb(27.732849%, 56.161499%, 100%)" offset="0.578125"/><stop stop-opacity="1" stop-color="rgb(27.816772%, 55.940247%, 100%)" offset="0.585938"/><stop stop-opacity="1" stop-color="rgb(27.900696%, 55.717468%, 100%)" offset="0.59375"/><stop stop-opacity="1" stop-color="rgb(27.984619%, 55.496216%, 100%)" offset="0.601563"/><stop stop-opacity="1" stop-color="rgb(28.067017%, 55.273438%, 100%)" offset="0.609375"/><stop stop-opacity="1" stop-color="rgb(28.15094%, 55.052185%, 100%)" offset="0.617188"/><stop stop-opacity="1" stop-color="rgb(28.234863%, 54.829407%, 100%)" offset="0.625"/><stop stop-opacity="1" stop-color="rgb(28.318787%, 54.608154%, 100%)" offset="0.632812"/><stop stop-opacity="1" stop-color="rgb(28.40271%, 54.385376%, 100%)" offset="0.640625"/><stop stop-opacity="1" stop-color="rgb(28.485107%, 54.164124%, 100%)" offset="0.648438"/><stop stop-opacity="1" stop-color="rgb(28.569031%, 53.941345%, 100%)" offset="0.65625"/><stop stop-opacity="1" stop-color="rgb(28.652954%, 53.720093%, 100%)" offset="0.664062"/><stop stop-opacity="1" stop-color="rgb(28.736877%, 53.497314%, 100%)" offset="0.671875"/><stop stop-opacity="1" stop-color="rgb(28.819275%, 53.276062%, 100%)" offset="0.679688"/><stop stop-opacity="1" stop-color="rgb(28.903198%, 53.053284%, 100%)" offset="0.6875"/><stop stop-opacity="1" stop-color="rgb(28.987122%, 52.832031%, 100%)" offset="0.695313"/><stop stop-opacity="1" stop-color="rgb(29.071045%, 52.609253%, 100%)" offset="0.703125"/><stop stop-opacity="1" stop-color="rgb(29.153442%, 52.388%, 100%)" offset="0.710938"/><stop stop-opacity="1" stop-color="rgb(29.237366%, 52.165222%, 100%)" offset="0.71875"/><stop stop-opacity="1" stop-color="rgb(29.321289%, 51.94397%, 100%)" offset="0.726563"/><stop stop-opacity="1" stop-color="rgb(29.405212%, 51.721191%, 100%)" offset="0.734375"/><stop stop-opacity="1" stop-color="rgb(29.489136%, 51.499939%, 100%)" offset="0.742188"/><stop stop-opacity="1" stop-color="rgb(29.571533%, 51.277161%, 100%)" offset="0.75"/><stop stop-opacity="1" stop-color="rgb(29.655457%, 51.055908%, 100%)" offset="0.757813"/><stop stop-opacity="1" stop-color="rgb(29.73938%, 50.83313%, 100%)" offset="0.765625"/><stop stop-opacity="1" stop-color="rgb(29.823303%, 50.611877%, 100%)" offset="0.773438"/><stop stop-opacity="1" stop-color="rgb(29.905701%, 50.389099%, 100%)" offset="0.78125"/><stop stop-opacity="1" stop-color="rgb(29.989624%, 50.167847%, 100%)" offset="0.789063"/><stop stop-opacity="1" stop-color="rgb(30.073547%, 49.945068%, 100%)" offset="0.796875"/><stop stop-opacity="1" stop-color="rgb(30.157471%, 49.723816%, 100%)" offset="0.804688"/><stop stop-opacity="1" stop-color="rgb(30.239868%, 49.501038%, 100%)" offset="0.8125"/><stop stop-opacity="1" stop-color="rgb(30.323792%, 49.279785%, 100%)" offset="0.820313"/><stop stop-opacity="1" stop-color="rgb(30.407715%, 49.057007%, 100%)" offset="0.828125"/><stop stop-opacity="1" stop-color="rgb(30.491638%, 48.835754%, 100%)" offset="0.835938"/><stop stop-opacity="1" stop-color="rgb(30.575562%, 48.612976%, 100%)" offset="0.84375"/><stop stop-opacity="1" stop-color="rgb(30.657959%, 48.391724%, 100%)" offset="0.851563"/><stop stop-opacity="1" stop-color="rgb(30.741882%, 48.168945%, 100%)" offset="0.859375"/><stop stop-opacity="1" stop-color="rgb(30.825806%, 47.946167%, 100%)" offset="0.867188"/><stop stop-opacity="1" stop-color="rgb(30.909729%, 47.724915%, 100%)" offset="0.875"/><stop stop-opacity="1" stop-color="rgb(30.992126%, 47.502136%, 100%)" offset="0.882812"/><stop stop-opacity="1" stop-color="rgb(31.07605%, 47.280884%, 100%)" offset="0.890625"/><stop stop-opacity="1" stop-color="rgb(31.159973%, 47.058105%, 100%)" offset="0.898438"/><stop stop-opacity="1" stop-color="rgb(31.243896%, 46.836853%, 100%)" offset="0.90625"/><stop stop-opacity="1" stop-color="rgb(31.326294%, 46.614075%, 100%)" offset="0.914062"/><stop stop-opacity="1" stop-color="rgb(31.410217%, 46.392822%, 100%)" offset="0.921875"/><stop stop-opacity="1" stop-color="rgb(31.494141%, 46.170044%, 100%)" offset="0.929688"/><stop stop-opacity="1" stop-color="rgb(31.578064%, 45.948792%, 100%)" offset="0.9375"/><stop stop-opacity="1" stop-color="rgb(31.661987%, 45.726013%, 100%)" offset="0.945313"/><stop stop-opacity="1" stop-color="rgb(31.744385%, 45.504761%, 100%)" offset="0.953125"/><stop stop-opacity="1" stop-color="rgb(31.828308%, 45.281982%, 100%)" offset="0.960938"/><stop stop-opacity="1" stop-color="rgb(31.912231%, 45.06073%, 100%)" offset="0.96875"/><stop stop-opacity="1" stop-color="rgb(31.996155%, 44.837952%, 100%)" offset="0.976562"/><stop stop-opacity="1" stop-color="rgb(32.078552%, 44.616699%, 100%)" offset="0.984375"/><stop stop-opacity="1" stop-color="rgb(32.159424%, 44.40155%, 100%)" offset="1"/></linearGradient></defs><rect x="-37.5" width="450" fill="#ffffff" y="-37.499999" height="449.999989" fill-opacity="1"/><rect x="-37.5" width="450" fill="#ffffff" y="-37.499999" height="449.999989" fill-opacity="1"/><rect x="-37.5" width="450" fill="#ffffff" y="-37.499999" height="449.999989" fill-opacity="1"/><g clip-path="url(#d2473d77a9)"><path fill="#004aad" d="M 171.113281 131.195312 L 171.113281 84.160156 L 204.027344 84.160156 C 204.027344 84.160156 204.46875 106.175781 196.050781 115.042969 C 187.636719 123.910156 171.113281 131.195312 171.113281 131.195312 Z M 171.113281 131.195312 " fill-opacity="1" fill-rule="nonzero"/></g><g clip-path="url(#a58a08d36f)"><g clip-path="url(#9504b47e49)"><path fill="url(#56dbc6190b)" d="M 116.328125 85.933594 L 116.328125 171.566406 L 204.058594 171.566406 L 204.058594 85.933594 Z M 116.328125 85.933594 " fill-rule="nonzero"/></g></g><g clip-path="url(#b5de0b7450)"><path fill="#004aad" d="M 204.03125 168.230469 L 204.03125 215.265625 L 171.117188 215.265625 C 171.117188 215.265625 170.675781 193.25 179.09375 184.382812 C 187.507812 175.515625 204.03125 168.230469 204.03125 168.230469 Z M 204.03125 168.230469 " fill-opacity="1" fill-rule="nonzero"/></g><g clip-path="url(#0183b573a9)"><g clip-path="url(#b819ebeb05)"><path fill="url(#ced31da266)" d="M 258.816406 213.492188 L 258.816406 127.859375 L 171.082031 127.859375 L 171.082031 213.492188 Z M 258.816406 213.492188 " fill-rule="nonzero"/></g></g><g fill="#004aad" fill-opacity="0.4"><g transform="translate(22.853215, 256.68295)"><g><path d="M 14.78125 -14.640625 L 14.78125 0 L 12.6875 0 L 12.6875 -6.515625 L 4.28125 -6.515625 L 4.28125 0 L 2.1875 0 L 2.1875 -14.640625 L 4.28125 -14.640625 L 4.28125 -8.34375 L 12.6875 -8.34375 L 12.6875 -14.640625 Z M 14.78125 -14.640625 "/></g></g></g><g fill="#004aad" fill-opacity="0.4"><g transform="translate(45.264041, 256.68295)"><g><path d="M 11.921875 -5.484375 C 11.921875 -5.328125 11.90625 -5.125 11.875 -4.875 L 2.890625 -4.875 C 3.015625 -3.894531 3.441406 -3.109375 4.171875 -2.515625 C 4.898438 -1.921875 5.8125 -1.625 6.90625 -1.625 C 8.226562 -1.625 9.289062 -2.070312 10.09375 -2.96875 L 11.203125 -1.671875 C 10.703125 -1.085938 10.078125 -0.640625 9.328125 -0.328125 C 8.585938 -0.0234375 7.757812 0.125 6.84375 0.125 C 5.664062 0.125 4.625 -0.113281 3.71875 -0.59375 C 2.8125 -1.070312 2.109375 -1.742188 1.609375 -2.609375 C 1.117188 -3.472656 0.875 -4.453125 0.875 -5.546875 C 0.875 -6.617188 1.113281 -7.585938 1.59375 -8.453125 C 2.082031 -9.316406 2.742188 -9.988281 3.578125 -10.46875 C 4.421875 -10.945312 5.375 -11.1875 6.4375 -11.1875 C 7.5 -11.1875 8.441406 -10.945312 9.265625 -10.46875 C 10.097656 -9.988281 10.75 -9.316406 11.21875 -8.453125 C 11.6875 -7.585938 11.921875 -6.597656 11.921875 -5.484375 Z M 6.4375 -9.484375 C 5.476562 -9.484375 4.671875 -9.191406 4.015625 -8.609375 C 3.367188 -8.023438 2.992188 -7.257812 2.890625 -6.3125 L 10 -6.3125 C 9.882812 -7.25 9.5 -8.007812 8.84375 -8.59375 C 8.195312 -9.1875 7.394531 -9.484375 6.4375 -9.484375 Z M 6.4375 -9.484375 "/></g></g></g><g fill="#004aad" fill-opacity="0.4"><g transform="translate(63.494201, 256.68295)"><g><path d="M 5.9375 -11.1875 C 7.46875 -11.1875 8.640625 -10.804688 9.453125 -10.046875 C 10.273438 -9.296875 10.6875 -8.175781 10.6875 -6.6875 L 10.6875 0 L 8.78125 0 L 8.78125 -1.46875 C 8.445312 -0.945312 7.96875 -0.550781 7.34375 -0.28125 C 6.726562 -0.0078125 5.992188 0.125 5.140625 0.125 C 3.898438 0.125 2.90625 -0.171875 2.15625 -0.765625 C 1.414062 -1.367188 1.046875 -2.160156 1.046875 -3.140625 C 1.046875 -4.109375 1.398438 -4.890625 2.109375 -5.484375 C 2.816406 -6.078125 3.945312 -6.375 5.5 -6.375 L 8.671875 -6.375 L 8.671875 -6.78125 C 8.671875 -7.632812 8.421875 -8.289062 7.921875 -8.75 C 7.421875 -9.21875 6.679688 -9.453125 5.703125 -9.453125 C 5.046875 -9.453125 4.40625 -9.34375 3.78125 -9.125 C 3.15625 -8.90625 2.625 -8.617188 2.1875 -8.265625 L 1.359375 -9.765625 C 1.929688 -10.222656 2.613281 -10.570312 3.40625 -10.8125 C 4.195312 -11.0625 5.039062 -11.1875 5.9375 -11.1875 Z M 5.484375 -1.421875 C 6.242188 -1.421875 6.898438 -1.59375 7.453125 -1.9375 C 8.015625 -2.28125 8.421875 -2.765625 8.671875 -3.390625 L 8.671875 -4.9375 L 5.578125 -4.9375 C 3.878906 -4.9375 3.03125 -4.363281 3.03125 -3.21875 C 3.03125 -2.664062 3.242188 -2.226562 3.671875 -1.90625 C 4.109375 -1.582031 4.710938 -1.421875 5.484375 -1.421875 Z M 5.484375 -1.421875 "/></g></g></g><g fill="#004aad" fill-opacity="0.4"><g transform="translate(81.431722, 256.68295)"><g><path d="M 1.90625 -15.515625 L 3.90625 -15.515625 L 3.90625 0 L 1.90625 0 Z M 1.90625 -15.515625 "/></g></g></g><g fill="#004aad" fill-opacity="0.4"><g transform="translate(92.701083, 256.68295)"><g><path d="M 8.125 -0.640625 C 7.832031 -0.390625 7.46875 -0.195312 7.03125 -0.0625 C 6.601562 0.0625 6.160156 0.125 5.703125 0.125 C 4.585938 0.125 3.722656 -0.171875 3.109375 -0.765625 C 2.492188 -1.367188 2.1875 -2.226562 2.1875 -3.34375 L 2.1875 -9.421875 L 0.3125 -9.421875 L 0.3125 -11.078125 L 2.1875 -11.078125 L 2.1875 -13.5 L 4.203125 -13.5 L 4.203125 -11.078125 L 7.375 -11.078125 L 7.375 -9.421875 L 4.203125 -9.421875 L 4.203125 -3.421875 C 4.203125 -2.828125 4.347656 -2.367188 4.640625 -2.046875 C 4.941406 -1.722656 5.375 -1.5625 5.9375 -1.5625 C 6.550781 -1.5625 7.070312 -1.738281 7.5 -2.09375 Z M 8.125 -0.640625 "/></g></g></g><g fill="#004aad" fill-opacity="0.4"><g transform="translate(106.792395, 256.68295)"><g><path d="M 7.8125 -11.1875 C 9.226562 -11.1875 10.347656 -10.773438 11.171875 -9.953125 C 12.003906 -9.140625 12.421875 -7.945312 12.421875 -6.375 L 12.421875 0 L 10.40625 0 L 10.40625 -6.140625 C 10.40625 -7.210938 10.144531 -8.019531 9.625 -8.5625 C 9.113281 -9.113281 8.378906 -9.390625 7.421875 -9.390625 C 6.335938 -9.390625 5.476562 -9.070312 4.84375 -8.4375 C 4.21875 -7.800781 3.90625 -6.890625 3.90625 -5.703125 L 3.90625 0 L 1.90625 0 L 1.90625 -15.515625 L 3.90625 -15.515625 L 3.90625 -9.515625 C 4.320312 -10.046875 4.867188 -10.457031 5.546875 -10.75 C 6.222656 -11.039062 6.976562 -11.1875 7.8125 -11.1875 Z M 7.8125 -11.1875 "/></g></g></g><g fill="#004aad" fill-opacity="0.4"><g transform="translate(126.464882, 256.68295)"><g/></g></g><g fill="#004aad" fill-opacity="0.4"><g transform="translate(137.525205, 256.68295)"><g><path d="M 22.875 -14.640625 L 17.984375 0 L 15.78125 0 L 11.796875 -11.6875 L 7.796875 0 L 5.5625 0 L 0.671875 -14.640625 L 2.828125 -14.640625 L 6.78125 -2.734375 L 10.890625 -14.640625 L 12.8125 -14.640625 L 16.84375 -2.671875 L 20.890625 -14.640625 Z M 22.875 -14.640625 "/></g></g></g><g fill="#004aad" fill-opacity="0.4"><g transform="translate(166.499662, 256.68295)"><g><path d="M 1.90625 -11.078125 L 3.90625 -11.078125 L 3.90625 0 L 1.90625 0 Z M 2.90625 -13.21875 C 2.507812 -13.21875 2.179688 -13.34375 1.921875 -13.59375 C 1.671875 -13.84375 1.546875 -14.148438 1.546875 -14.515625 C 1.546875 -14.867188 1.671875 -15.175781 1.921875 -15.4375 C 2.179688 -15.695312 2.507812 -15.828125 2.90625 -15.828125 C 3.289062 -15.828125 3.613281 -15.703125 3.875 -15.453125 C 4.132812 -15.210938 4.265625 -14.910156 4.265625 -14.546875 C 4.265625 -14.171875 4.132812 -13.851562 3.875 -13.59375 C 3.613281 -13.34375 3.289062 -13.21875 2.90625 -13.21875 Z M 2.90625 -13.21875 "/></g></g></g><g fill="#004aad" fill-opacity="0.4"><g transform="translate(177.769023, 256.68295)"><g><path d="M 8.125 -0.640625 C 7.832031 -0.390625 7.46875 -0.195312 7.03125 -0.0625 C 6.601562 0.0625 6.160156 0.125 5.703125 0.125 C 4.585938 0.125 3.722656 -0.171875 3.109375 -0.765625 C 2.492188 -1.367188 2.1875 -2.226562 2.1875 -3.34375 L 2.1875 -9.421875 L 0.3125 -9.421875 L 0.3125 -11.078125 L 2.1875 -11.078125 L 2.1875 -13.5 L 4.203125 -13.5 L 4.203125 -11.078125 L 7.375 -11.078125 L 7.375 -9.421875 L 4.203125 -9.421875 L 4.203125 -3.421875 C 4.203125 -2.828125 4.347656 -2.367188 4.640625 -2.046875 C 4.941406 -1.722656 5.375 -1.5625 5.9375 -1.5625 C 6.550781 -1.5625 7.070312 -1.738281 7.5 -2.09375 Z M 8.125 -0.640625 "/></g></g></g><g fill="#004aad" fill-opacity="0.4"><g transform="translate(191.860335, 256.68295)"><g><path d="M 7.8125 -11.1875 C 9.226562 -11.1875 10.347656 -10.773438 11.171875 -9.953125 C 12.003906 -9.140625 12.421875 -7.945312 12.421875 -6.375 L 12.421875 0 L 10.40625 0 L 10.40625 -6.140625 C 10.40625 -7.210938 10.144531 -8.019531 9.625 -8.5625 C 9.113281 -9.113281 8.378906 -9.390625 7.421875 -9.390625 C 6.335938 -9.390625 5.476562 -9.070312 4.84375 -8.4375 C 4.21875 -7.800781 3.90625 -6.890625 3.90625 -5.703125 L 3.90625 0 L 1.90625 0 L 1.90625 -15.515625 L 3.90625 -15.515625 L 3.90625 -9.515625 C 4.320312 -10.046875 4.867188 -10.457031 5.546875 -10.75 C 6.222656 -11.039062 6.976562 -11.1875 7.8125 -11.1875 Z M 7.8125 -11.1875 "/></g></g></g><g fill="#004aad" fill-opacity="0.4"><g transform="translate(211.532822, 256.68295)"><g><path d="M 1.90625 -11.078125 L 3.90625 -11.078125 L 3.90625 0 L 1.90625 0 Z M 2.90625 -13.21875 C 2.507812 -13.21875 2.179688 -13.34375 1.921875 -13.59375 C 1.671875 -13.84375 1.546875 -14.148438 1.546875 -14.515625 C 1.546875 -14.867188 1.671875 -15.175781 1.921875 -15.4375 C 2.179688 -15.695312 2.507812 -15.828125 2.90625 -15.828125 C 3.289062 -15.828125 3.613281 -15.703125 3.875 -15.453125 C 4.132812 -15.210938 4.265625 -14.910156 4.265625 -14.546875 C 4.265625 -14.171875 4.132812 -13.851562 3.875 -13.59375 C 3.613281 -13.34375 3.289062 -13.21875 2.90625 -13.21875 Z M 2.90625 -13.21875 "/></g></g></g><g fill="#004aad" fill-opacity="0.4"><g transform="translate(222.802184, 256.68295)"><g><path d="M 7.8125 -11.1875 C 9.226562 -11.1875 10.347656 -10.773438 11.171875 -9.953125 C 12.003906 -9.140625 12.421875 -7.945312 12.421875 -6.375 L 12.421875 0 L 10.40625 0 L 10.40625 -6.140625 C 10.40625 -7.210938 10.144531 -8.019531 9.625 -8.5625 C 9.113281 -9.113281 8.378906 -9.390625 7.421875 -9.390625 C 6.335938 -9.390625 5.476562 -9.070312 4.84375 -8.4375 C 4.21875 -7.800781 3.90625 -6.890625 3.90625 -5.703125 L 3.90625 0 L 1.90625 0 L 1.90625 -11.078125 L 3.828125 -11.078125 L 3.828125 -9.40625 C 4.234375 -9.976562 4.78125 -10.414062 5.46875 -10.71875 C 6.15625 -11.03125 6.9375 -11.1875 7.8125 -11.1875 Z M 7.8125 -11.1875 "/></g></g></g><g fill="#004aad" fill-opacity="0.4"><g transform="translate(242.474671, 256.68295)"><g/></g></g><g fill="#004aad" fill-opacity="0.4"><g transform="translate(253.534994, 256.68295)"><g><path d="M 11.984375 0 L 8.828125 -4.5 C 8.429688 -4.46875 8.125 -4.453125 7.90625 -4.453125 L 4.28125 -4.453125 L 4.28125 0 L 2.1875 0 L 2.1875 -14.640625 L 7.90625 -14.640625 C 9.800781 -14.640625 11.289062 -14.1875 12.375 -13.28125 C 13.457031 -12.375 14 -11.125 14 -9.53125 C 14 -8.40625 13.71875 -7.441406 13.15625 -6.640625 C 12.601562 -5.847656 11.8125 -5.269531 10.78125 -4.90625 L 14.265625 0 Z M 7.84375 -6.234375 C 9.164062 -6.234375 10.175781 -6.515625 10.875 -7.078125 C 11.570312 -7.648438 11.921875 -8.46875 11.921875 -9.53125 C 11.921875 -10.59375 11.570312 -11.40625 10.875 -11.96875 C 10.175781 -12.53125 9.164062 -12.8125 7.84375 -12.8125 L 4.28125 -12.8125 L 4.28125 -6.234375 Z M 7.84375 -6.234375 "/></g></g></g><g fill="#004aad" fill-opacity="0.4"><g transform="translate(274.169048, 256.68295)"><g><path d="M 11.921875 -5.484375 C 11.921875 -5.328125 11.90625 -5.125 11.875 -4.875 L 2.890625 -4.875 C 3.015625 -3.894531 3.441406 -3.109375 4.171875 -2.515625 C 4.898438 -1.921875 5.8125 -1.625 6.90625 -1.625 C 8.226562 -1.625 9.289062 -2.070312 10.09375 -2.96875 L 11.203125 -1.671875 C 10.703125 -1.085938 10.078125 -0.640625 9.328125 -0.328125 C 8.585938 -0.0234375 7.757812 0.125 6.84375 0.125 C 5.664062 0.125 4.625 -0.113281 3.71875 -0.59375 C 2.8125 -1.070312 2.109375 -1.742188 1.609375 -2.609375 C 1.117188 -3.472656 0.875 -4.453125 0.875 -5.546875 C 0.875 -6.617188 1.113281 -7.585938 1.59375 -8.453125 C 2.082031 -9.316406 2.742188 -9.988281 3.578125 -10.46875 C 4.421875 -10.945312 5.375 -11.1875 6.4375 -11.1875 C 7.5 -11.1875 8.441406 -10.945312 9.265625 -10.46875 C 10.097656 -9.988281 10.75 -9.316406 11.21875 -8.453125 C 11.6875 -7.585938 11.921875 -6.597656 11.921875 -5.484375 Z M 6.4375 -9.484375 C 5.476562 -9.484375 4.671875 -9.191406 4.015625 -8.609375 C 3.367188 -8.023438 2.992188 -7.257812 2.890625 -6.3125 L 10 -6.3125 C 9.882812 -7.25 9.5 -8.007812 8.84375 -8.59375 C 8.195312 -9.1875 7.394531 -9.484375 6.4375 -9.484375 Z M 6.4375 -9.484375 "/></g></g></g><g fill="#004aad" fill-opacity="0.4"><g transform="translate(292.399217, 256.68295)"><g><path d="M 5.9375 -11.1875 C 7.46875 -11.1875 8.640625 -10.804688 9.453125 -10.046875 C 10.273438 -9.296875 10.6875 -8.175781 10.6875 -6.6875 L 10.6875 0 L 8.78125 0 L 8.78125 -1.46875 C 8.445312 -0.945312 7.96875 -0.550781 7.34375 -0.28125 C 6.726562 -0.0078125 5.992188 0.125 5.140625 0.125 C 3.898438 0.125 2.90625 -0.171875 2.15625 -0.765625 C 1.414062 -1.367188 1.046875 -2.160156 1.046875 -3.140625 C 1.046875 -4.109375 1.398438 -4.890625 2.109375 -5.484375 C 2.816406 -6.078125 3.945312 -6.375 5.5 -6.375 L 8.671875 -6.375 L 8.671875 -6.78125 C 8.671875 -7.632812 8.421875 -8.289062 7.921875 -8.75 C 7.421875 -9.21875 6.679688 -9.453125 5.703125 -9.453125 C 5.046875 -9.453125 4.40625 -9.34375 3.78125 -9.125 C 3.15625 -8.90625 2.625 -8.617188 2.1875 -8.265625 L 1.359375 -9.765625 C 1.929688 -10.222656 2.613281 -10.570312 3.40625 -10.8125 C 4.195312 -11.0625 5.039062 -11.1875 5.9375 -11.1875 Z M 5.484375 -1.421875 C 6.242188 -1.421875 6.898438 -1.59375 7.453125 -1.9375 C 8.015625 -2.28125 8.421875 -2.765625 8.671875 -3.390625 L 8.671875 -4.9375 L 5.578125 -4.9375 C 3.878906 -4.9375 3.03125 -4.363281 3.03125 -3.21875 C 3.03125 -2.664062 3.242188 -2.226562 3.671875 -1.90625 C 4.109375 -1.582031 4.710938 -1.421875 5.484375 -1.421875 Z M 5.484375 -1.421875 "/></g></g></g><g fill="#004aad" fill-opacity="0.4"><g transform="translate(310.336732, 256.68295)"><g><path d="M 6.734375 0.125 C 5.597656 0.125 4.585938 -0.117188 3.703125 -0.609375 C 2.828125 -1.097656 2.132812 -1.769531 1.625 -2.625 C 1.125 -3.476562 0.875 -4.453125 0.875 -5.546875 C 0.875 -6.628906 1.125 -7.597656 1.625 -8.453125 C 2.132812 -9.316406 2.828125 -9.988281 3.703125 -10.46875 C 4.585938 -10.945312 5.597656 -11.1875 6.734375 -11.1875 C 7.734375 -11.1875 8.625 -10.984375 9.40625 -10.578125 C 10.195312 -10.171875 10.8125 -9.585938 11.25 -8.828125 L 9.71875 -7.84375 C 9.375 -8.375 8.941406 -8.769531 8.421875 -9.03125 C 7.910156 -9.289062 7.335938 -9.421875 6.703125 -9.421875 C 5.984375 -9.421875 5.332031 -9.257812 4.75 -8.9375 C 4.175781 -8.625 3.722656 -8.171875 3.390625 -7.578125 C 3.066406 -6.984375 2.90625 -6.304688 2.90625 -5.546875 C 2.90625 -4.765625 3.066406 -4.078125 3.390625 -3.484375 C 3.722656 -2.890625 4.175781 -2.429688 4.75 -2.109375 C 5.332031 -1.785156 5.984375 -1.625 6.703125 -1.625 C 7.335938 -1.625 7.910156 -1.753906 8.421875 -2.015625 C 8.941406 -2.285156 9.375 -2.6875 9.71875 -3.21875 L 11.25 -2.265625 C 10.8125 -1.492188 10.195312 -0.898438 9.40625 -0.484375 C 8.625 -0.078125 7.734375 0.125 6.734375 0.125 Z M 6.734375 0.125 "/></g></g></g><g fill="#004aad" fill-opacity="0.4"><g transform="translate(327.709855, 256.68295)"><g><path d="M 7.8125 -11.1875 C 9.226562 -11.1875 10.347656 -10.773438 11.171875 -9.953125 C 12.003906 -9.140625 12.421875 -7.945312 12.421875 -6.375 L 12.421875 0 L 10.40625 0 L 10.40625 -6.140625 C 10.40625 -7.210938 10.144531 -8.019531 9.625 -8.5625 C 9.113281 -9.113281 8.378906 -9.390625 7.421875 -9.390625 C 6.335938 -9.390625 5.476562 -9.070312 4.84375 -8.4375 C 4.21875 -7.800781 3.90625 -6.890625 3.90625 -5.703125 L 3.90625 0 L 1.90625 0 L 1.90625 -15.515625 L 3.90625 -15.515625 L 3.90625 -9.515625 C 4.320312 -10.046875 4.867188 -10.457031 5.546875 -10.75 C 6.222656 -11.039062 6.976562 -11.1875 7.8125 -11.1875 Z M 7.8125 -11.1875 "/></g></g></g><g fill="#004aad" fill-opacity="1"><g transform="translate(21.928989, 255.758722)"><g><path d="M 14.78125 -14.640625 L 14.78125 0 L 12.6875 0 L 12.6875 -6.515625 L 4.28125 -6.515625 L 4.28125 0 L 2.1875 0 L 2.1875 -14.640625 L 4.28125 -14.640625 L 4.28125 -8.34375 L 12.6875 -8.34375 L 12.6875 -14.640625 Z M 14.78125 -14.640625 "/></g></g></g><g fill="#004aad" fill-opacity="1"><g transform="translate(44.339814, 255.758722)"><g><path d="M 11.921875 -5.484375 C 11.921875 -5.328125 11.90625 -5.125 11.875 -4.875 L 2.890625 -4.875 C 3.015625 -3.894531 3.441406 -3.109375 4.171875 -2.515625 C 4.898438 -1.921875 5.8125 -1.625 6.90625 -1.625 C 8.226562 -1.625 9.289062 -2.070312 10.09375 -2.96875 L 11.203125 -1.671875 C 10.703125 -1.085938 10.078125 -0.640625 9.328125 -0.328125 C 8.585938 -0.0234375 7.757812 0.125 6.84375 0.125 C 5.664062 0.125 4.625 -0.113281 3.71875 -0.59375 C 2.8125 -1.070312 2.109375 -1.742188 1.609375 -2.609375 C 1.117188 -3.472656 0.875 -4.453125 0.875 -5.546875 C 0.875 -6.617188 1.113281 -7.585938 1.59375 -8.453125 C 2.082031 -9.316406 2.742188 -9.988281 3.578125 -10.46875 C 4.421875 -10.945312 5.375 -11.1875 6.4375 -11.1875 C 7.5 -11.1875 8.441406 -10.945312 9.265625 -10.46875 C 10.097656 -9.988281 10.75 -9.316406 11.21875 -8.453125 C 11.6875 -7.585938 11.921875 -6.597656 11.921875 -5.484375 Z M 6.4375 -9.484375 C 5.476562 -9.484375 4.671875 -9.191406 4.015625 -8.609375 C 3.367188 -8.023438 2.992188 -7.257812 2.890625 -6.3125 L 10 -6.3125 C 9.882812 -7.25 9.5 -8.007812 8.84375 -8.59375 C 8.195312 -9.1875 7.394531 -9.484375 6.4375 -9.484375 Z M 6.4375 -9.484375 "/></g></g></g><g fill="#004aad" fill-opacity="1"><g transform="translate(62.569974, 255.758722)"><g><path d="M 5.9375 -11.1875 C 7.46875 -11.1875 8.640625 -10.804688 9.453125 -10.046875 C 10.273438 -9.296875 10.6875 -8.175781 10.6875 -6.6875 L 10.6875 0 L 8.78125 0 L 8.78125 -1.46875 C 8.445312 -0.945312 7.96875 -0.550781 7.34375 -0.28125 C 6.726562 -0.0078125 5.992188 0.125 5.140625 0.125 C 3.898438 0.125 2.90625 -0.171875 2.15625 -0.765625 C 1.414062 -1.367188 1.046875 -2.160156 1.046875 -3.140625 C 1.046875 -4.109375 1.398438 -4.890625 2.109375 -5.484375 C 2.816406 -6.078125 3.945312 -6.375 5.5 -6.375 L 8.671875 -6.375 L 8.671875 -6.78125 C 8.671875 -7.632812 8.421875 -8.289062 7.921875 -8.75 C 7.421875 -9.21875 6.679688 -9.453125 5.703125 -9.453125 C 5.046875 -9.453125 4.40625 -9.34375 3.78125 -9.125 C 3.15625 -8.90625 2.625 -8.617188 2.1875 -8.265625 L 1.359375 -9.765625 C 1.929688 -10.222656 2.613281 -10.570312 3.40625 -10.8125 C 4.195312 -11.0625 5.039062 -11.1875 5.9375 -11.1875 Z M 5.484375 -1.421875 C 6.242188 -1.421875 6.898438 -1.59375 7.453125 -1.9375 C 8.015625 -2.28125 8.421875 -2.765625 8.671875 -3.390625 L 8.671875 -4.9375 L 5.578125 -4.9375 C 3.878906 -4.9375 3.03125 -4.363281 3.03125 -3.21875 C 3.03125 -2.664062 3.242188 -2.226562 3.671875 -1.90625 C 4.109375 -1.582031 4.710938 -1.421875 5.484375 -1.421875 Z M 5.484375 -1.421875 "/></g></g></g><g fill="#004aad" fill-opacity="1"><g transform="translate(80.507495, 255.758722)"><g><path d="M 1.90625 -15.515625 L 3.90625 -15.515625 L 3.90625 0 L 1.90625 0 Z M 1.90625 -15.515625 "/></g></g></g><g fill="#004aad" fill-opacity="1"><g transform="translate(91.776856, 255.758722)"><g><path d="M 8.125 -0.640625 C 7.832031 -0.390625 7.46875 -0.195312 7.03125 -0.0625 C 6.601562 0.0625 6.160156 0.125 5.703125 0.125 C 4.585938 0.125 3.722656 -0.171875 3.109375 -0.765625 C 2.492188 -1.367188 2.1875 -2.226562 2.1875 -3.34375 L 2.1875 -9.421875 L 0.3125 -9.421875 L 0.3125 -11.078125 L 2.1875 -11.078125 L 2.1875 -13.5 L 4.203125 -13.5 L 4.203125 -11.078125 L 7.375 -11.078125 L 7.375 -9.421875 L 4.203125 -9.421875 L 4.203125 -3.421875 C 4.203125 -2.828125 4.347656 -2.367188 4.640625 -2.046875 C 4.941406 -1.722656 5.375 -1.5625 5.9375 -1.5625 C 6.550781 -1.5625 7.070312 -1.738281 7.5 -2.09375 Z M 8.125 -0.640625 "/></g></g></g><g fill="#004aad" fill-opacity="1"><g transform="translate(105.868168, 255.758722)"><g><path d="M 7.8125 -11.1875 C 9.226562 -11.1875 10.347656 -10.773438 11.171875 -9.953125 C 12.003906 -9.140625 12.421875 -7.945312 12.421875 -6.375 L 12.421875 0 L 10.40625 0 L 10.40625 -6.140625 C 10.40625 -7.210938 10.144531 -8.019531 9.625 -8.5625 C 9.113281 -9.113281 8.378906 -9.390625 7.421875 -9.390625 C 6.335938 -9.390625 5.476562 -9.070312 4.84375 -8.4375 C 4.21875 -7.800781 3.90625 -6.890625 3.90625 -5.703125 L 3.90625 0 L 1.90625 0 L 1.90625 -15.515625 L 3.90625 -15.515625 L 3.90625 -9.515625 C 4.320312 -10.046875 4.867188 -10.457031 5.546875 -10.75 C 6.222656 -11.039062 6.976562 -11.1875 7.8125 -11.1875 Z M 7.8125 -11.1875 "/></g></g></g><g fill="#004aad" fill-opacity="1"><g transform="translate(125.540655, 255.758722)"><g/></g></g><g fill="#004aad" fill-opacity="1"><g transform="translate(136.600978, 255.758722)"><g><path d="M 22.875 -14.640625 L 17.984375 0 L 15.78125 0 L 11.796875 -11.6875 L 7.796875 0 L 5.5625 0 L 0.671875 -14.640625 L 2.828125 -14.640625 L 6.78125 -2.734375 L 10.890625 -14.640625 L 12.8125 -14.640625 L 16.84375 -2.671875 L 20.890625 -14.640625 Z M 22.875 -14.640625 "/></g></g></g><g fill="#004aad" fill-opacity="1"><g transform="translate(165.575435, 255.758722)"><g><path d="M 1.90625 -11.078125 L 3.90625 -11.078125 L 3.90625 0 L 1.90625 0 Z M 2.90625 -13.21875 C 2.507812 -13.21875 2.179688 -13.34375 1.921875 -13.59375 C 1.671875 -13.84375 1.546875 -14.148438 1.546875 -14.515625 C 1.546875 -14.867188 1.671875 -15.175781 1.921875 -15.4375 C 2.179688 -15.695312 2.507812 -15.828125 2.90625 -15.828125 C 3.289062 -15.828125 3.613281 -15.703125 3.875 -15.453125 C 4.132812 -15.210938 4.265625 -14.910156 4.265625 -14.546875 C 4.265625 -14.171875 4.132812 -13.851562 3.875 -13.59375 C 3.613281 -13.34375 3.289062 -13.21875 2.90625 -13.21875 Z M 2.90625 -13.21875 "/></g></g></g><g fill="#004aad" fill-opacity="1"><g transform="translate(176.844796, 255.758722)"><g><path d="M 8.125 -0.640625 C 7.832031 -0.390625 7.46875 -0.195312 7.03125 -0.0625 C 6.601562 0.0625 6.160156 0.125 5.703125 0.125 C 4.585938 0.125 3.722656 -0.171875 3.109375 -0.765625 C 2.492188 -1.367188 2.1875 -2.226562 2.1875 -3.34375 L 2.1875 -9.421875 L 0.3125 -9.421875 L 0.3125 -11.078125 L 2.1875 -11.078125 L 2.1875 -13.5 L 4.203125 -13.5 L 4.203125 -11.078125 L 7.375 -11.078125 L 7.375 -9.421875 L 4.203125 -9.421875 L 4.203125 -3.421875 C 4.203125 -2.828125 4.347656 -2.367188 4.640625 -2.046875 C 4.941406 -1.722656 5.375 -1.5625 5.9375 -1.5625 C 6.550781 -1.5625 7.070312 -1.738281 7.5 -2.09375 Z M 8.125 -0.640625 "/></g></g></g><g fill="#004aad" fill-opacity="1"><g transform="translate(190.936108, 255.758722)"><g><path d="M 7.8125 -11.1875 C 9.226562 -11.1875 10.347656 -10.773438 11.171875 -9.953125 C 12.003906 -9.140625 12.421875 -7.945312 12.421875 -6.375 L 12.421875 0 L 10.40625 0 L 10.40625 -6.140625 C 10.40625 -7.210938 10.144531 -8.019531 9.625 -8.5625 C 9.113281 -9.113281 8.378906 -9.390625 7.421875 -9.390625 C 6.335938 -9.390625 5.476562 -9.070312 4.84375 -8.4375 C 4.21875 -7.800781 3.90625 -6.890625 3.90625 -5.703125 L 3.90625 0 L 1.90625 0 L 1.90625 -15.515625 L 3.90625 -15.515625 L 3.90625 -9.515625 C 4.320312 -10.046875 4.867188 -10.457031 5.546875 -10.75 C 6.222656 -11.039062 6.976562 -11.1875 7.8125 -11.1875 Z M 7.8125 -11.1875 "/></g></g></g><g fill="#004aad" fill-opacity="1"><g transform="translate(210.608596, 255.758722)"><g><path d="M 1.90625 -11.078125 L 3.90625 -11.078125 L 3.90625 0 L 1.90625 0 Z M 2.90625 -13.21875 C 2.507812 -13.21875 2.179688 -13.34375 1.921875 -13.59375 C 1.671875 -13.84375 1.546875 -14.148438 1.546875 -14.515625 C 1.546875 -14.867188 1.671875 -15.175781 1.921875 -15.4375 C 2.179688 -15.695312 2.507812 -15.828125 2.90625 -15.828125 C 3.289062 -15.828125 3.613281 -15.703125 3.875 -15.453125 C 4.132812 -15.210938 4.265625 -14.910156 4.265625 -14.546875 C 4.265625 -14.171875 4.132812 -13.851562 3.875 -13.59375 C 3.613281 -13.34375 3.289062 -13.21875 2.90625 -13.21875 Z M 2.90625 -13.21875 "/></g></g></g><g fill="#004aad" fill-opacity="1"><g transform="translate(221.877957, 255.758722)"><g><path d="M 7.8125 -11.1875 C 9.226562 -11.1875 10.347656 -10.773438 11.171875 -9.953125 C 12.003906 -9.140625 12.421875 -7.945312 12.421875 -6.375 L 12.421875 0 L 10.40625 0 L 10.40625 -6.140625 C 10.40625 -7.210938 10.144531 -8.019531 9.625 -8.5625 C 9.113281 -9.113281 8.378906 -9.390625 7.421875 -9.390625 C 6.335938 -9.390625 5.476562 -9.070312 4.84375 -8.4375 C 4.21875 -7.800781 3.90625 -6.890625 3.90625 -5.703125 L 3.90625 0 L 1.90625 0 L 1.90625 -11.078125 L 3.828125 -11.078125 L 3.828125 -9.40625 C 4.234375 -9.976562 4.78125 -10.414062 5.46875 -10.71875 C 6.15625 -11.03125 6.9375 -11.1875 7.8125 -11.1875 Z M 7.8125 -11.1875 "/></g></g></g><g fill="#004aad" fill-opacity="1"><g transform="translate(241.550445, 255.758722)"><g/></g></g><g fill="#004aad" fill-opacity="1"><g transform="translate(252.610767, 255.758722)"><g><path d="M 11.984375 0 L 8.828125 -4.5 C 8.429688 -4.46875 8.125 -4.453125 7.90625 -4.453125 L 4.28125 -4.453125 L 4.28125 0 L 2.1875 0 L 2.1875 -14.640625 L 7.90625 -14.640625 C 9.800781 -14.640625 11.289062 -14.1875 12.375 -13.28125 C 13.457031 -12.375 14 -11.125 14 -9.53125 C 14 -8.40625 13.71875 -7.441406 13.15625 -6.640625 C 12.601562 -5.847656 11.8125 -5.269531 10.78125 -4.90625 L 14.265625 0 Z M 7.84375 -6.234375 C 9.164062 -6.234375 10.175781 -6.515625 10.875 -7.078125 C 11.570312 -7.648438 11.921875 -8.46875 11.921875 -9.53125 C 11.921875 -10.59375 11.570312 -11.40625 10.875 -11.96875 C 10.175781 -12.53125 9.164062 -12.8125 7.84375 -12.8125 L 4.28125 -12.8125 L 4.28125 -6.234375 Z M 7.84375 -6.234375 "/></g></g></g><g fill="#004aad" fill-opacity="1"><g transform="translate(273.244821, 255.758722)"><g><path d="M 11.921875 -5.484375 C 11.921875 -5.328125 11.90625 -5.125 11.875 -4.875 L 2.890625 -4.875 C 3.015625 -3.894531 3.441406 -3.109375 4.171875 -2.515625 C 4.898438 -1.921875 5.8125 -1.625 6.90625 -1.625 C 8.226562 -1.625 9.289062 -2.070312 10.09375 -2.96875 L 11.203125 -1.671875 C 10.703125 -1.085938 10.078125 -0.640625 9.328125 -0.328125 C 8.585938 -0.0234375 7.757812 0.125 6.84375 0.125 C 5.664062 0.125 4.625 -0.113281 3.71875 -0.59375 C 2.8125 -1.070312 2.109375 -1.742188 1.609375 -2.609375 C 1.117188 -3.472656 0.875 -4.453125 0.875 -5.546875 C 0.875 -6.617188 1.113281 -7.585938 1.59375 -8.453125 C 2.082031 -9.316406 2.742188 -9.988281 3.578125 -10.46875 C 4.421875 -10.945312 5.375 -11.1875 6.4375 -11.1875 C 7.5 -11.1875 8.441406 -10.945312 9.265625 -10.46875 C 10.097656 -9.988281 10.75 -9.316406 11.21875 -8.453125 C 11.6875 -7.585938 11.921875 -6.597656 11.921875 -5.484375 Z M 6.4375 -9.484375 C 5.476562 -9.484375 4.671875 -9.191406 4.015625 -8.609375 C 3.367188 -8.023438 2.992188 -7.257812 2.890625 -6.3125 L 10 -6.3125 C 9.882812 -7.25 9.5 -8.007812 8.84375 -8.59375 C 8.195312 -9.1875 7.394531 -9.484375 6.4375 -9.484375 Z M 6.4375 -9.484375 "/></g></g></g><g fill="#004aad" fill-opacity="1"><g transform="translate(291.47499, 255.758722)"><g><path d="M 5.9375 -11.1875 C 7.46875 -11.1875 8.640625 -10.804688 9.453125 -10.046875 C 10.273438 -9.296875 10.6875 -8.175781 10.6875 -6.6875 L 10.6875 0 L 8.78125 0 L 8.78125 -1.46875 C 8.445312 -0.945312 7.96875 -0.550781 7.34375 -0.28125 C 6.726562 -0.0078125 5.992188 0.125 5.140625 0.125 C 3.898438 0.125 2.90625 -0.171875 2.15625 -0.765625 C 1.414062 -1.367188 1.046875 -2.160156 1.046875 -3.140625 C 1.046875 -4.109375 1.398438 -4.890625 2.109375 -5.484375 C 2.816406 -6.078125 3.945312 -6.375 5.5 -6.375 L 8.671875 -6.375 L 8.671875 -6.78125 C 8.671875 -7.632812 8.421875 -8.289062 7.921875 -8.75 C 7.421875 -9.21875 6.679688 -9.453125 5.703125 -9.453125 C 5.046875 -9.453125 4.40625 -9.34375 3.78125 -9.125 C 3.15625 -8.90625 2.625 -8.617188 2.1875 -8.265625 L 1.359375 -9.765625 C 1.929688 -10.222656 2.613281 -10.570312 3.40625 -10.8125 C 4.195312 -11.0625 5.039062 -11.1875 5.9375 -11.1875 Z M 5.484375 -1.421875 C 6.242188 -1.421875 6.898438 -1.59375 7.453125 -1.9375 C 8.015625 -2.28125 8.421875 -2.765625 8.671875 -3.390625 L 8.671875 -4.9375 L 5.578125 -4.9375 C 3.878906 -4.9375 3.03125 -4.363281 3.03125 -3.21875 C 3.03125 -2.664062 3.242188 -2.226562 3.671875 -1.90625 C 4.109375 -1.582031 4.710938 -1.421875 5.484375 -1.421875 Z M 5.484375 -1.421875 "/></g></g></g><g fill="#004aad" fill-opacity="1"><g transform="translate(309.412506, 255.758722)"><g><path d="M 6.734375 0.125 C 5.597656 0.125 4.585938 -0.117188 3.703125 -0.609375 C 2.828125 -1.097656 2.132812 -1.769531 1.625 -2.625 C 1.125 -3.476562 0.875 -4.453125 0.875 -5.546875 C 0.875 -6.628906 1.125 -7.597656 1.625 -8.453125 C 2.132812 -9.316406 2.828125 -9.988281 3.703125 -10.46875 C 4.585938 -10.945312 5.597656 -11.1875 6.734375 -11.1875 C 7.734375 -11.1875 8.625 -10.984375 9.40625 -10.578125 C 10.195312 -10.171875 10.8125 -9.585938 11.25 -8.828125 L 9.71875 -7.84375 C 9.375 -8.375 8.941406 -8.769531 8.421875 -9.03125 C 7.910156 -9.289062 7.335938 -9.421875 6.703125 -9.421875 C 5.984375 -9.421875 5.332031 -9.257812 4.75 -8.9375 C 4.175781 -8.625 3.722656 -8.171875 3.390625 -7.578125 C 3.066406 -6.984375 2.90625 -6.304688 2.90625 -5.546875 C 2.90625 -4.765625 3.066406 -4.078125 3.390625 -3.484375 C 3.722656 -2.890625 4.175781 -2.429688 4.75 -2.109375 C 5.332031 -1.785156 5.984375 -1.625 6.703125 -1.625 C 7.335938 -1.625 7.910156 -1.753906 8.421875 -2.015625 C 8.941406 -2.285156 9.375 -2.6875 9.71875 -3.21875 L 11.25 -2.265625 C 10.8125 -1.492188 10.195312 -0.898438 9.40625 -0.484375 C 8.625 -0.078125 7.734375 0.125 6.734375 0.125 Z M 6.734375 0.125 "/></g></g></g><g fill="#004aad" fill-opacity="1"><g transform="translate(326.785628, 255.758722)"><g><path d="M 7.8125 -11.1875 C 9.226562 -11.1875 10.347656 -10.773438 11.171875 -9.953125 C 12.003906 -9.140625 12.421875 -7.945312 12.421875 -6.375 L 12.421875 0 L 10.40625 0 L 10.40625 -6.140625 C 10.40625 -7.210938 10.144531 -8.019531 9.625 -8.5625 C 9.113281 -9.113281 8.378906 -9.390625 7.421875 -9.390625 C 6.335938 -9.390625 5.476562 -9.070312 4.84375 -8.4375 C 4.21875 -7.800781 3.90625 -6.890625 3.90625 -5.703125 L 3.90625 0 L 1.90625 0 L 1.90625 -15.515625 L 3.90625 -15.515625 L 3.90625 -9.515625 C 4.320312 -10.046875 4.867188 -10.457031 5.546875 -10.75 C 6.222656 -11.039062 6.976562 -11.1875 7.8125 -11.1875 Z M 7.8125 -11.1875 "/></g></g></g><g fill="#004aad" fill-opacity="0.4"><g transform="translate(347.376769, 256.68295)"><g/></g></g><g fill="#004aad" fill-opacity="0.4"><g transform="translate(358.437095, 256.68295)"><g/></g></g><g fill="#004aad" fill-opacity="1"><g transform="translate(346.452542, 255.758722)"><g/></g></g><g fill="#004aad" fill-opacity="1"><g transform="translate(357.512868, 255.758722)"><g/></g></g><g fill="#004aad" fill-opacity="0.4"><g transform="translate(102.11033, 286.412215)"><g><path d="M 4.28125 -12.8125 L 4.28125 -7.71875 L 11.625 -7.71875 L 11.625 -5.921875 L 4.28125 -5.921875 L 4.28125 0 L 2.1875 0 L 2.1875 -14.640625 L 12.515625 -14.640625 L 12.515625 -12.8125 Z M 4.28125 -12.8125 "/></g></g></g><g fill="#004aad" fill-opacity="0.4"><g transform="translate(120.821268, 286.412215)"><g><path d="M 6.640625 0.125 C 5.546875 0.125 4.554688 -0.117188 3.671875 -0.609375 C 2.796875 -1.097656 2.109375 -1.769531 1.609375 -2.625 C 1.117188 -3.476562 0.875 -4.453125 0.875 -5.546875 C 0.875 -6.628906 1.117188 -7.597656 1.609375 -8.453125 C 2.109375 -9.316406 2.796875 -9.988281 3.671875 -10.46875 C 4.554688 -10.945312 5.546875 -11.1875 6.640625 -11.1875 C 7.742188 -11.1875 8.726562 -10.945312 9.59375 -10.46875 C 10.46875 -9.988281 11.148438 -9.316406 11.640625 -8.453125 C 12.140625 -7.597656 12.390625 -6.628906 12.390625 -5.546875 C 12.390625 -4.453125 12.140625 -3.476562 11.640625 -2.625 C 11.148438 -1.769531 10.46875 -1.097656 9.59375 -0.609375 C 8.726562 -0.117188 7.742188 0.125 6.640625 0.125 Z M 6.640625 -1.625 C 7.359375 -1.625 8 -1.785156 8.5625 -2.109375 C 9.125 -2.441406 9.566406 -2.90625 9.890625 -3.5 C 10.210938 -4.09375 10.375 -4.773438 10.375 -5.546875 C 10.375 -6.304688 10.210938 -6.984375 9.890625 -7.578125 C 9.566406 -8.171875 9.125 -8.625 8.5625 -8.9375 C 8 -9.257812 7.359375 -9.421875 6.640625 -9.421875 C 5.929688 -9.421875 5.296875 -9.257812 4.734375 -8.9375 C 4.171875 -8.625 3.722656 -8.171875 3.390625 -7.578125 C 3.066406 -6.984375 2.90625 -6.304688 2.90625 -5.546875 C 2.90625 -4.773438 3.066406 -4.09375 3.390625 -3.5 C 3.722656 -2.90625 4.171875 -2.441406 4.734375 -2.109375 C 5.296875 -1.785156 5.929688 -1.625 6.640625 -1.625 Z M 6.640625 -1.625 "/></g></g></g><g fill="#004aad" fill-opacity="0.4"><g transform="translate(139.532205, 286.412215)"><g><path d="M 12.234375 -11.078125 L 12.234375 0 L 10.328125 0 L 10.328125 -1.671875 C 9.921875 -1.097656 9.382812 -0.65625 8.71875 -0.34375 C 8.0625 -0.03125 7.34375 0.125 6.5625 0.125 C 5.082031 0.125 3.914062 -0.28125 3.0625 -1.09375 C 2.21875 -1.914062 1.796875 -3.117188 1.796875 -4.703125 L 1.796875 -11.078125 L 3.8125 -11.078125 L 3.8125 -4.9375 C 3.8125 -3.863281 4.066406 -3.050781 4.578125 -2.5 C 5.097656 -1.945312 5.835938 -1.671875 6.796875 -1.671875 C 7.859375 -1.671875 8.691406 -1.988281 9.296875 -2.625 C 9.910156 -3.269531 10.21875 -4.179688 10.21875 -5.359375 L 10.21875 -11.078125 Z M 12.234375 -11.078125 "/></g></g></g><g fill="#004aad" fill-opacity="0.4"><g transform="translate(159.121083, 286.412215)"><g><path d="M 7.8125 -11.1875 C 9.226562 -11.1875 10.347656 -10.773438 11.171875 -9.953125 C 12.003906 -9.140625 12.421875 -7.945312 12.421875 -6.375 L 12.421875 0 L 10.40625 0 L 10.40625 -6.140625 C 10.40625 -7.210938 10.144531 -8.019531 9.625 -8.5625 C 9.113281 -9.113281 8.378906 -9.390625 7.421875 -9.390625 C 6.335938 -9.390625 5.476562 -9.070312 4.84375 -8.4375 C 4.21875 -7.800781 3.90625 -6.890625 3.90625 -5.703125 L 3.90625 0 L 1.90625 0 L 1.90625 -11.078125 L 3.828125 -11.078125 L 3.828125 -9.40625 C 4.234375 -9.976562 4.78125 -10.414062 5.46875 -10.71875 C 6.15625 -11.03125 6.9375 -11.1875 7.8125 -11.1875 Z M 7.8125 -11.1875 "/></g></g></g><g fill="#004aad" fill-opacity="0.4"><g transform="translate(178.793571, 286.412215)"><g><path d="M 12.359375 -15.515625 L 12.359375 0 L 10.4375 0 L 10.4375 -1.75 C 9.988281 -1.144531 9.421875 -0.679688 8.734375 -0.359375 C 8.054688 -0.0351562 7.304688 0.125 6.484375 0.125 C 5.410156 0.125 4.445312 -0.109375 3.59375 -0.578125 C 2.75 -1.054688 2.082031 -1.722656 1.59375 -2.578125 C 1.113281 -3.441406 0.875 -4.429688 0.875 -5.546875 C 0.875 -6.660156 1.113281 -7.640625 1.59375 -8.484375 C 2.082031 -9.335938 2.75 -10 3.59375 -10.46875 C 4.445312 -10.945312 5.410156 -11.1875 6.484375 -11.1875 C 7.273438 -11.1875 8.003906 -11.035156 8.671875 -10.734375 C 9.335938 -10.429688 9.894531 -9.988281 10.34375 -9.40625 L 10.34375 -15.515625 Z M 6.640625 -1.625 C 7.335938 -1.625 7.972656 -1.785156 8.546875 -2.109375 C 9.117188 -2.441406 9.566406 -2.90625 9.890625 -3.5 C 10.210938 -4.09375 10.375 -4.773438 10.375 -5.546875 C 10.375 -6.304688 10.210938 -6.984375 9.890625 -7.578125 C 9.566406 -8.171875 9.117188 -8.625 8.546875 -8.9375 C 7.972656 -9.257812 7.335938 -9.421875 6.640625 -9.421875 C 5.929688 -9.421875 5.296875 -9.257812 4.734375 -8.9375 C 4.171875 -8.625 3.722656 -8.171875 3.390625 -7.578125 C 3.066406 -6.984375 2.90625 -6.304688 2.90625 -5.546875 C 2.90625 -4.773438 3.066406 -4.09375 3.390625 -3.5 C 3.722656 -2.90625 4.171875 -2.441406 4.734375 -2.109375 C 5.296875 -1.785156 5.929688 -1.625 6.640625 -1.625 Z M 6.640625 -1.625 "/></g></g></g><g fill="#004aad" fill-opacity="0.4"><g transform="translate(198.486963, 286.412215)"><g><path d="M 5.9375 -11.1875 C 7.46875 -11.1875 8.640625 -10.804688 9.453125 -10.046875 C 10.273438 -9.296875 10.6875 -8.175781 10.6875 -6.6875 L 10.6875 0 L 8.78125 0 L 8.78125 -1.46875 C 8.445312 -0.945312 7.96875 -0.550781 7.34375 -0.28125 C 6.726562 -0.0078125 5.992188 0.125 5.140625 0.125 C 3.898438 0.125 2.90625 -0.171875 2.15625 -0.765625 C 1.414062 -1.367188 1.046875 -2.160156 1.046875 -3.140625 C 1.046875 -4.109375 1.398438 -4.890625 2.109375 -5.484375 C 2.816406 -6.078125 3.945312 -6.375 5.5 -6.375 L 8.671875 -6.375 L 8.671875 -6.78125 C 8.671875 -7.632812 8.421875 -8.289062 7.921875 -8.75 C 7.421875 -9.21875 6.679688 -9.453125 5.703125 -9.453125 C 5.046875 -9.453125 4.40625 -9.34375 3.78125 -9.125 C 3.15625 -8.90625 2.625 -8.617188 2.1875 -8.265625 L 1.359375 -9.765625 C 1.929688 -10.222656 2.613281 -10.570312 3.40625 -10.8125 C 4.195312 -11.0625 5.039062 -11.1875 5.9375 -11.1875 Z M 5.484375 -1.421875 C 6.242188 -1.421875 6.898438 -1.59375 7.453125 -1.9375 C 8.015625 -2.28125 8.421875 -2.765625 8.671875 -3.390625 L 8.671875 -4.9375 L 5.578125 -4.9375 C 3.878906 -4.9375 3.03125 -4.363281 3.03125 -3.21875 C 3.03125 -2.664062 3.242188 -2.226562 3.671875 -1.90625 C 4.109375 -1.582031 4.710938 -1.421875 5.484375 -1.421875 Z M 5.484375 -1.421875 "/></g></g></g><g fill="#004aad" fill-opacity="0.4"><g transform="translate(216.424478, 286.412215)"><g><path d="M 8.125 -0.640625 C 7.832031 -0.390625 7.46875 -0.195312 7.03125 -0.0625 C 6.601562 0.0625 6.160156 0.125 5.703125 0.125 C 4.585938 0.125 3.722656 -0.171875 3.109375 -0.765625 C 2.492188 -1.367188 2.1875 -2.226562 2.1875 -3.34375 L 2.1875 -9.421875 L 0.3125 -9.421875 L 0.3125 -11.078125 L 2.1875 -11.078125 L 2.1875 -13.5 L 4.203125 -13.5 L 4.203125 -11.078125 L 7.375 -11.078125 L 7.375 -9.421875 L 4.203125 -9.421875 L 4.203125 -3.421875 C 4.203125 -2.828125 4.347656 -2.367188 4.640625 -2.046875 C 4.941406 -1.722656 5.375 -1.5625 5.9375 -1.5625 C 6.550781 -1.5625 7.070312 -1.738281 7.5 -2.09375 Z M 8.125 -0.640625 "/></g></g></g><g fill="#004aad" fill-opacity="0.4"><g transform="translate(230.51579, 286.412215)"><g><path d="M 1.90625 -11.078125 L 3.90625 -11.078125 L 3.90625 0 L 1.90625 0 Z M 2.90625 -13.21875 C 2.507812 -13.21875 2.179688 -13.34375 1.921875 -13.59375 C 1.671875 -13.84375 1.546875 -14.148438 1.546875 -14.515625 C 1.546875 -14.867188 1.671875 -15.175781 1.921875 -15.4375 C 2.179688 -15.695312 2.507812 -15.828125 2.90625 -15.828125 C 3.289062 -15.828125 3.613281 -15.703125 3.875 -15.453125 C 4.132812 -15.210938 4.265625 -14.910156 4.265625 -14.546875 C 4.265625 -14.171875 4.132812 -13.851562 3.875 -13.59375 C 3.613281 -13.34375 3.289062 -13.21875 2.90625 -13.21875 Z M 2.90625 -13.21875 "/></g></g></g><g fill="#004aad" fill-opacity="0.4"><g transform="translate(241.785151, 286.412215)"><g><path d="M 6.640625 0.125 C 5.546875 0.125 4.554688 -0.117188 3.671875 -0.609375 C 2.796875 -1.097656 2.109375 -1.769531 1.609375 -2.625 C 1.117188 -3.476562 0.875 -4.453125 0.875 -5.546875 C 0.875 -6.628906 1.117188 -7.597656 1.609375 -8.453125 C 2.109375 -9.316406 2.796875 -9.988281 3.671875 -10.46875 C 4.554688 -10.945312 5.546875 -11.1875 6.640625 -11.1875 C 7.742188 -11.1875 8.726562 -10.945312 9.59375 -10.46875 C 10.46875 -9.988281 11.148438 -9.316406 11.640625 -8.453125 C 12.140625 -7.597656 12.390625 -6.628906 12.390625 -5.546875 C 12.390625 -4.453125 12.140625 -3.476562 11.640625 -2.625 C 11.148438 -1.769531 10.46875 -1.097656 9.59375 -0.609375 C 8.726562 -0.117188 7.742188 0.125 6.640625 0.125 Z M 6.640625 -1.625 C 7.359375 -1.625 8 -1.785156 8.5625 -2.109375 C 9.125 -2.441406 9.566406 -2.90625 9.890625 -3.5 C 10.210938 -4.09375 10.375 -4.773438 10.375 -5.546875 C 10.375 -6.304688 10.210938 -6.984375 9.890625 -7.578125 C 9.566406 -8.171875 9.125 -8.625 8.5625 -8.9375 C 8 -9.257812 7.359375 -9.421875 6.640625 -9.421875 C 5.929688 -9.421875 5.296875 -9.257812 4.734375 -8.9375 C 4.171875 -8.625 3.722656 -8.171875 3.390625 -7.578125 C 3.066406 -6.984375 2.90625 -6.304688 2.90625 -5.546875 C 2.90625 -4.773438 3.066406 -4.09375 3.390625 -3.5 C 3.722656 -2.90625 4.171875 -2.441406 4.734375 -2.109375 C 5.296875 -1.785156 5.929688 -1.625 6.640625 -1.625 Z M 6.640625 -1.625 "/></g></g></g><g fill="#004aad" fill-opacity="0.4"><g transform="translate(260.496085, 286.412215)"><g><path d="M 7.8125 -11.1875 C 9.226562 -11.1875 10.347656 -10.773438 11.171875 -9.953125 C 12.003906 -9.140625 12.421875 -7.945312 12.421875 -6.375 L 12.421875 0 L 10.40625 0 L 10.40625 -6.140625 C 10.40625 -7.210938 10.144531 -8.019531 9.625 -8.5625 C 9.113281 -9.113281 8.378906 -9.390625 7.421875 -9.390625 C 6.335938 -9.390625 5.476562 -9.070312 4.84375 -8.4375 C 4.21875 -7.800781 3.90625 -6.890625 3.90625 -5.703125 L 3.90625 0 L 1.90625 0 L 1.90625 -11.078125 L 3.828125 -11.078125 L 3.828125 -9.40625 C 4.234375 -9.976562 4.78125 -10.414062 5.46875 -10.71875 C 6.15625 -11.03125 6.9375 -11.1875 7.8125 -11.1875 Z M 7.8125 -11.1875 "/></g></g></g><g fill="#004aad" fill-opacity="1"><g transform="translate(101.186104, 285.487987)"><g><path d="M 4.28125 -12.8125 L 4.28125 -7.71875 L 11.625 -7.71875 L 11.625 -5.921875 L 4.28125 -5.921875 L 4.28125 0 L 2.1875 0 L 2.1875 -14.640625 L 12.515625 -14.640625 L 12.515625 -12.8125 Z M 4.28125 -12.8125 "/></g></g></g><g fill="#004aad" fill-opacity="1"><g transform="translate(119.897041, 285.487987)"><g><path d="M 6.640625 0.125 C 5.546875 0.125 4.554688 -0.117188 3.671875 -0.609375 C 2.796875 -1.097656 2.109375 -1.769531 1.609375 -2.625 C 1.117188 -3.476562 0.875 -4.453125 0.875 -5.546875 C 0.875 -6.628906 1.117188 -7.597656 1.609375 -8.453125 C 2.109375 -9.316406 2.796875 -9.988281 3.671875 -10.46875 C 4.554688 -10.945312 5.546875 -11.1875 6.640625 -11.1875 C 7.742188 -11.1875 8.726562 -10.945312 9.59375 -10.46875 C 10.46875 -9.988281 11.148438 -9.316406 11.640625 -8.453125 C 12.140625 -7.597656 12.390625 -6.628906 12.390625 -5.546875 C 12.390625 -4.453125 12.140625 -3.476562 11.640625 -2.625 C 11.148438 -1.769531 10.46875 -1.097656 9.59375 -0.609375 C 8.726562 -0.117188 7.742188 0.125 6.640625 0.125 Z M 6.640625 -1.625 C 7.359375 -1.625 8 -1.785156 8.5625 -2.109375 C 9.125 -2.441406 9.566406 -2.90625 9.890625 -3.5 C 10.210938 -4.09375 10.375 -4.773438 10.375 -5.546875 C 10.375 -6.304688 10.210938 -6.984375 9.890625 -7.578125 C 9.566406 -8.171875 9.125 -8.625 8.5625 -8.9375 C 8 -9.257812 7.359375 -9.421875 6.640625 -9.421875 C 5.929688 -9.421875 5.296875 -9.257812 4.734375 -8.9375 C 4.171875 -8.625 3.722656 -8.171875 3.390625 -7.578125 C 3.066406 -6.984375 2.90625 -6.304688 2.90625 -5.546875 C 2.90625 -4.773438 3.066406 -4.09375 3.390625 -3.5 C 3.722656 -2.90625 4.171875 -2.441406 4.734375 -2.109375 C 5.296875 -1.785156 5.929688 -1.625 6.640625 -1.625 Z M 6.640625 -1.625 "/></g></g></g><g fill="#004aad" fill-opacity="1"><g transform="translate(138.607978, 285.487987)"><g><path d="M 12.234375 -11.078125 L 12.234375 0 L 10.328125 0 L 10.328125 -1.671875 C 9.921875 -1.097656 9.382812 -0.65625 8.71875 -0.34375 C 8.0625 -0.03125 7.34375 0.125 6.5625 0.125 C 5.082031 0.125 3.914062 -0.28125 3.0625 -1.09375 C 2.21875 -1.914062 1.796875 -3.117188 1.796875 -4.703125 L 1.796875 -11.078125 L 3.8125 -11.078125 L 3.8125 -4.9375 C 3.8125 -3.863281 4.066406 -3.050781 4.578125 -2.5 C 5.097656 -1.945312 5.835938 -1.671875 6.796875 -1.671875 C 7.859375 -1.671875 8.691406 -1.988281 9.296875 -2.625 C 9.910156 -3.269531 10.21875 -4.179688 10.21875 -5.359375 L 10.21875 -11.078125 Z M 12.234375 -11.078125 "/></g></g></g><g fill="#004aad" fill-opacity="1"><g transform="translate(158.196857, 285.487987)"><g><path d="M 7.8125 -11.1875 C 9.226562 -11.1875 10.347656 -10.773438 11.171875 -9.953125 C 12.003906 -9.140625 12.421875 -7.945312 12.421875 -6.375 L 12.421875 0 L 10.40625 0 L 10.40625 -6.140625 C 10.40625 -7.210938 10.144531 -8.019531 9.625 -8.5625 C 9.113281 -9.113281 8.378906 -9.390625 7.421875 -9.390625 C 6.335938 -9.390625 5.476562 -9.070312 4.84375 -8.4375 C 4.21875 -7.800781 3.90625 -6.890625 3.90625 -5.703125 L 3.90625 0 L 1.90625 0 L 1.90625 -11.078125 L 3.828125 -11.078125 L 3.828125 -9.40625 C 4.234375 -9.976562 4.78125 -10.414062 5.46875 -10.71875 C 6.15625 -11.03125 6.9375 -11.1875 7.8125 -11.1875 Z M 7.8125 -11.1875 "/></g></g></g><g fill="#004aad" fill-opacity="1"><g transform="translate(177.869344, 285.487987)"><g><path d="M 12.359375 -15.515625 L 12.359375 0 L 10.4375 0 L 10.4375 -1.75 C 9.988281 -1.144531 9.421875 -0.679688 8.734375 -0.359375 C 8.054688 -0.0351562 7.304688 0.125 6.484375 0.125 C 5.410156 0.125 4.445312 -0.109375 3.59375 -0.578125 C 2.75 -1.054688 2.082031 -1.722656 1.59375 -2.578125 C 1.113281 -3.441406 0.875 -4.429688 0.875 -5.546875 C 0.875 -6.660156 1.113281 -7.640625 1.59375 -8.484375 C 2.082031 -9.335938 2.75 -10 3.59375 -10.46875 C 4.445312 -10.945312 5.410156 -11.1875 6.484375 -11.1875 C 7.273438 -11.1875 8.003906 -11.035156 8.671875 -10.734375 C 9.335938 -10.429688 9.894531 -9.988281 10.34375 -9.40625 L 10.34375 -15.515625 Z M 6.640625 -1.625 C 7.335938 -1.625 7.972656 -1.785156 8.546875 -2.109375 C 9.117188 -2.441406 9.566406 -2.90625 9.890625 -3.5 C 10.210938 -4.09375 10.375 -4.773438 10.375 -5.546875 C 10.375 -6.304688 10.210938 -6.984375 9.890625 -7.578125 C 9.566406 -8.171875 9.117188 -8.625 8.546875 -8.9375 C 7.972656 -9.257812 7.335938 -9.421875 6.640625 -9.421875 C 5.929688 -9.421875 5.296875 -9.257812 4.734375 -8.9375 C 4.171875 -8.625 3.722656 -8.171875 3.390625 -7.578125 C 3.066406 -6.984375 2.90625 -6.304688 2.90625 -5.546875 C 2.90625 -4.773438 3.066406 -4.09375 3.390625 -3.5 C 3.722656 -2.90625 4.171875 -2.441406 4.734375 -2.109375 C 5.296875 -1.785156 5.929688 -1.625 6.640625 -1.625 Z M 6.640625 -1.625 "/></g></g></g><g fill="#004aad" fill-opacity="1"><g transform="translate(197.562736, 285.487987)"><g><path d="M 5.9375 -11.1875 C 7.46875 -11.1875 8.640625 -10.804688 9.453125 -10.046875 C 10.273438 -9.296875 10.6875 -8.175781 10.6875 -6.6875 L 10.6875 0 L 8.78125 0 L 8.78125 -1.46875 C 8.445312 -0.945312 7.96875 -0.550781 7.34375 -0.28125 C 6.726562 -0.0078125 5.992188 0.125 5.140625 0.125 C 3.898438 0.125 2.90625 -0.171875 2.15625 -0.765625 C 1.414062 -1.367188 1.046875 -2.160156 1.046875 -3.140625 C 1.046875 -4.109375 1.398438 -4.890625 2.109375 -5.484375 C 2.816406 -6.078125 3.945312 -6.375 5.5 -6.375 L 8.671875 -6.375 L 8.671875 -6.78125 C 8.671875 -7.632812 8.421875 -8.289062 7.921875 -8.75 C 7.421875 -9.21875 6.679688 -9.453125 5.703125 -9.453125 C 5.046875 -9.453125 4.40625 -9.34375 3.78125 -9.125 C 3.15625 -8.90625 2.625 -8.617188 2.1875 -8.265625 L 1.359375 -9.765625 C 1.929688 -10.222656 2.613281 -10.570312 3.40625 -10.8125 C 4.195312 -11.0625 5.039062 -11.1875 5.9375 -11.1875 Z M 5.484375 -1.421875 C 6.242188 -1.421875 6.898438 -1.59375 7.453125 -1.9375 C 8.015625 -2.28125 8.421875 -2.765625 8.671875 -3.390625 L 8.671875 -4.9375 L 5.578125 -4.9375 C 3.878906 -4.9375 3.03125 -4.363281 3.03125 -3.21875 C 3.03125 -2.664062 3.242188 -2.226562 3.671875 -1.90625 C 4.109375 -1.582031 4.710938 -1.421875 5.484375 -1.421875 Z M 5.484375 -1.421875 "/></g></g></g><g fill="#004aad" fill-opacity="1"><g transform="translate(215.500252, 285.487987)"><g><path d="M 8.125 -0.640625 C 7.832031 -0.390625 7.46875 -0.195312 7.03125 -0.0625 C 6.601562 0.0625 6.160156 0.125 5.703125 0.125 C 4.585938 0.125 3.722656 -0.171875 3.109375 -0.765625 C 2.492188 -1.367188 2.1875 -2.226562 2.1875 -3.34375 L 2.1875 -9.421875 L 0.3125 -9.421875 L 0.3125 -11.078125 L 2.1875 -11.078125 L 2.1875 -13.5 L 4.203125 -13.5 L 4.203125 -11.078125 L 7.375 -11.078125 L 7.375 -9.421875 L 4.203125 -9.421875 L 4.203125 -3.421875 C 4.203125 -2.828125 4.347656 -2.367188 4.640625 -2.046875 C 4.941406 -1.722656 5.375 -1.5625 5.9375 -1.5625 C 6.550781 -1.5625 7.070312 -1.738281 7.5 -2.09375 Z M 8.125 -0.640625 "/></g></g></g><g fill="#004aad" fill-opacity="1"><g transform="translate(229.591563, 285.487987)"><g><path d="M 1.90625 -11.078125 L 3.90625 -11.078125 L 3.90625 0 L 1.90625 0 Z M 2.90625 -13.21875 C 2.507812 -13.21875 2.179688 -13.34375 1.921875 -13.59375 C 1.671875 -13.84375 1.546875 -14.148438 1.546875 -14.515625 C 1.546875 -14.867188 1.671875 -15.175781 1.921875 -15.4375 C 2.179688 -15.695312 2.507812 -15.828125 2.90625 -15.828125 C 3.289062 -15.828125 3.613281 -15.703125 3.875 -15.453125 C 4.132812 -15.210938 4.265625 -14.910156 4.265625 -14.546875 C 4.265625 -14.171875 4.132812 -13.851562 3.875 -13.59375 C 3.613281 -13.34375 3.289062 -13.21875 2.90625 -13.21875 Z M 2.90625 -13.21875 "/></g></g></g><g fill="#004aad" fill-opacity="1"><g transform="translate(240.860924, 285.487987)"><g><path d="M 6.640625 0.125 C 5.546875 0.125 4.554688 -0.117188 3.671875 -0.609375 C 2.796875 -1.097656 2.109375 -1.769531 1.609375 -2.625 C 1.117188 -3.476562 0.875 -4.453125 0.875 -5.546875 C 0.875 -6.628906 1.117188 -7.597656 1.609375 -8.453125 C 2.109375 -9.316406 2.796875 -9.988281 3.671875 -10.46875 C 4.554688 -10.945312 5.546875 -11.1875 6.640625 -11.1875 C 7.742188 -11.1875 8.726562 -10.945312 9.59375 -10.46875 C 10.46875 -9.988281 11.148438 -9.316406 11.640625 -8.453125 C 12.140625 -7.597656 12.390625 -6.628906 12.390625 -5.546875 C 12.390625 -4.453125 12.140625 -3.476562 11.640625 -2.625 C 11.148438 -1.769531 10.46875 -1.097656 9.59375 -0.609375 C 8.726562 -0.117188 7.742188 0.125 6.640625 0.125 Z M 6.640625 -1.625 C 7.359375 -1.625 8 -1.785156 8.5625 -2.109375 C 9.125 -2.441406 9.566406 -2.90625 9.890625 -3.5 C 10.210938 -4.09375 10.375 -4.773438 10.375 -5.546875 C 10.375 -6.304688 10.210938 -6.984375 9.890625 -7.578125 C 9.566406 -8.171875 9.125 -8.625 8.5625 -8.9375 C 8 -9.257812 7.359375 -9.421875 6.640625 -9.421875 C 5.929688 -9.421875 5.296875 -9.257812 4.734375 -8.9375 C 4.171875 -8.625 3.722656 -8.171875 3.390625 -7.578125 C 3.066406 -6.984375 2.90625 -6.304688 2.90625 -5.546875 C 2.90625 -4.773438 3.066406 -4.09375 3.390625 -3.5 C 3.722656 -2.90625 4.171875 -2.441406 4.734375 -2.109375 C 5.296875 -1.785156 5.929688 -1.625 6.640625 -1.625 Z M 6.640625 -1.625 "/></g></g></g><g fill="#004aad" fill-opacity="1"><g transform="translate(259.571858, 285.487987)"><g><path d="M 7.8125 -11.1875 C 9.226562 -11.1875 10.347656 -10.773438 11.171875 -9.953125 C 12.003906 -9.140625 12.421875 -7.945312 12.421875 -6.375 L 12.421875 0 L 10.40625 0 L 10.40625 -6.140625 C 10.40625 -7.210938 10.144531 -8.019531 9.625 -8.5625 C 9.113281 -9.113281 8.378906 -9.390625 7.421875 -9.390625 C 6.335938 -9.390625 5.476562 -9.070312 4.84375 -8.4375 C 4.21875 -7.800781 3.90625 -6.890625 3.90625 -5.703125 L 3.90625 0 L 1.90625 0 L 1.90625 -11.078125 L 3.828125 -11.078125 L 3.828125 -9.40625 C 4.234375 -9.976562 4.78125 -10.414062 5.46875 -10.71875 C 6.15625 -11.03125 6.9375 -11.1875 7.8125 -11.1875 Z M 7.8125 -11.1875 "/></g></g></g><path stroke-linecap="butt" transform="matrix(0.75, 0, 0, 0.75, 100.575658, 211.530953)" fill="none" stroke-linejoin="miter" d="M -0.00191886 2.500396 L 42.008501 2.500396 " stroke="#004aad" stroke-width="5" stroke-opacity="1" stroke-miterlimit="4"/><path stroke-linecap="butt" transform="matrix(0.75, 0, 0, 0.75, 242.918528, 211.530953)" fill="none" stroke-linejoin="miter" d="M -0.000745331 2.500396 L 42.009674 2.500396 " stroke="#004aad" stroke-width="5" stroke-opacity="1" stroke-miterlimit="4"/></svg>