<svg xmlns="http://www.w3.org/2000/svg" xmlns:xlink="http://www.w3.org/1999/xlink" width="500" zoomAndPan="magnify" viewBox="0 0 375 374.999991" height="500" preserveAspectRatio="xMidYMid meet" version="1.0"><defs><g/><clipPath id="5d62690139"><path d="M 59 143.015625 L 82 143.015625 L 82 176 L 59 176 Z M 59 143.015625 " clip-rule="nonzero"/></clipPath><clipPath id="edda1aedb2"><path d="M 22.394531 144 L 82 144 L 82 203 L 22.394531 203 Z M 22.394531 144 " clip-rule="nonzero"/></clipPath><clipPath id="6c948176f8"><path d="M 81.46875 144.269531 C 81.496094 148.226562 81.039062 161.289062 74.660156 174.046875 C 72.648438 178.058594 70.054688 182.042969 66.699219 185.707031 C 58.007812 195.191406 44.21875 202.496094 22.394531 202.496094 L 22.394531 180.207031 C 38.492188 180.207031 50.210938 177.726562 58.746094 174.046875 C 61.785156 172.734375 64.421875 171.273438 66.703125 169.714844 C 80.132812 160.550781 81.417969 148.136719 81.46875 144.269531 Z M 81.46875 144.269531 " clip-rule="nonzero"/></clipPath><linearGradient x1="-0.00000607815" gradientTransform="matrix(0.24565, 0, 0, 0.247239, 22.394316, 143.062777)" y1="122.636002" x2="240.599992" gradientUnits="userSpaceOnUse" y2="122.636002" id="63b8ecc061"><stop stop-opacity="1" stop-color="rgb(21.998596%, 71.398926%, 100%)" offset="0"/><stop stop-opacity="1" stop-color="rgb(21.998596%, 71.398926%, 100%)" offset="0.03125"/><stop stop-opacity="1" stop-color="rgb(22.045898%, 71.273804%, 100%)" offset="0.046875"/><stop stop-opacity="1" stop-color="rgb(22.134399%, 71.037292%, 100%)" offset="0.0546875"/><stop stop-opacity="1" stop-color="rgb(22.218323%, 70.81604%, 100%)" offset="0.0625"/><stop stop-opacity="1" stop-color="rgb(22.302246%, 70.593262%, 100%)" offset="0.0703125"/><stop stop-opacity="1" stop-color="rgb(22.384644%, 70.372009%, 100%)" offset="0.078125"/><stop stop-opacity="1" stop-color="rgb(22.468567%, 70.149231%, 100%)" offset="0.0859375"/><stop stop-opacity="1" stop-color="rgb(22.55249%, 69.927979%, 100%)" offset="0.09375"/><stop stop-opacity="1" stop-color="rgb(22.636414%, 69.7052%, 100%)" offset="0.101562"/><stop stop-opacity="1" stop-color="rgb(22.718811%, 69.483948%, 100%)" offset="0.109375"/><stop stop-opacity="1" stop-color="rgb(22.802734%, 69.261169%, 100%)" offset="0.117187"/><stop stop-opacity="1" stop-color="rgb(22.886658%, 69.039917%, 100%)" offset="0.125"/><stop stop-opacity="1" stop-color="rgb(22.970581%, 68.817139%, 100%)" offset="0.132812"/><stop stop-opacity="1" stop-color="rgb(23.052979%, 68.595886%, 100%)" offset="0.140625"/><stop stop-opacity="1" stop-color="rgb(23.136902%, 68.373108%, 100%)" offset="0.148437"/><stop stop-opacity="1" stop-color="rgb(23.220825%, 68.151855%, 100%)" offset="0.15625"/><stop stop-opacity="1" stop-color="rgb(23.304749%, 67.929077%, 100%)" offset="0.164062"/><stop stop-opacity="1" stop-color="rgb(23.388672%, 67.707825%, 100%)" offset="0.171875"/><stop stop-opacity="1" stop-color="rgb(23.471069%, 67.485046%, 100%)" offset="0.179687"/><stop stop-opacity="1" stop-color="rgb(23.554993%, 67.263794%, 100%)" offset="0.1875"/><stop stop-opacity="1" stop-color="rgb(23.638916%, 67.041016%, 100%)" offset="0.195312"/><stop stop-opacity="1" stop-color="rgb(23.722839%, 66.819763%, 100%)" offset="0.203125"/><stop stop-opacity="1" stop-color="rgb(23.805237%, 66.596985%, 100%)" offset="0.210937"/><stop stop-opacity="1" stop-color="rgb(23.88916%, 66.375732%, 100%)" offset="0.21875"/><stop stop-opacity="1" stop-color="rgb(23.973083%, 66.152954%, 100%)" offset="0.226562"/><stop stop-opacity="1" stop-color="rgb(24.057007%, 65.931702%, 100%)" offset="0.234375"/><stop stop-opacity="1" stop-color="rgb(24.139404%, 65.708923%, 100%)" offset="0.242187"/><stop stop-opacity="1" stop-color="rgb(24.223328%, 65.487671%, 100%)" offset="0.25"/><stop stop-opacity="1" stop-color="rgb(24.307251%, 65.264893%, 100%)" offset="0.257812"/><stop stop-opacity="1" stop-color="rgb(24.391174%, 65.04364%, 100%)" offset="0.265625"/><stop stop-opacity="1" stop-color="rgb(24.475098%, 64.820862%, 100%)" offset="0.273438"/><stop stop-opacity="1" stop-color="rgb(24.557495%, 64.599609%, 100%)" offset="0.28125"/><stop stop-opacity="1" stop-color="rgb(24.641418%, 64.376831%, 100%)" offset="0.289062"/><stop stop-opacity="1" stop-color="rgb(24.725342%, 64.155579%, 100%)" offset="0.296875"/><stop stop-opacity="1" stop-color="rgb(24.809265%, 63.9328%, 100%)" offset="0.304687"/><stop stop-opacity="1" stop-color="rgb(24.891663%, 63.711548%, 100%)" offset="0.3125"/><stop stop-opacity="1" stop-color="rgb(24.975586%, 63.48877%, 100%)" offset="0.320312"/><stop stop-opacity="1" stop-color="rgb(25.059509%, 63.267517%, 100%)" offset="0.328125"/><stop stop-opacity="1" stop-color="rgb(25.143433%, 63.044739%, 100%)" offset="0.335937"/><stop stop-opacity="1" stop-color="rgb(25.22583%, 62.823486%, 100%)" offset="0.34375"/><stop stop-opacity="1" stop-color="rgb(25.309753%, 62.600708%, 100%)" offset="0.351562"/><stop stop-opacity="1" stop-color="rgb(25.393677%, 62.379456%, 100%)" offset="0.359375"/><stop stop-opacity="1" stop-color="rgb(25.4776%, 62.156677%, 100%)" offset="0.367188"/><stop stop-opacity="1" stop-color="rgb(25.559998%, 61.935425%, 100%)" offset="0.375"/><stop stop-opacity="1" stop-color="rgb(25.643921%, 61.712646%, 100%)" offset="0.382812"/><stop stop-opacity="1" stop-color="rgb(25.727844%, 61.491394%, 100%)" offset="0.390625"/><stop stop-opacity="1" stop-color="rgb(25.811768%, 61.268616%, 100%)" offset="0.398437"/><stop stop-opacity="1" stop-color="rgb(25.895691%, 61.047363%, 100%)" offset="0.40625"/><stop stop-opacity="1" stop-color="rgb(25.978088%, 60.824585%, 100%)" offset="0.414062"/><stop stop-opacity="1" stop-color="rgb(26.062012%, 60.603333%, 100%)" offset="0.421875"/><stop stop-opacity="1" stop-color="rgb(26.145935%, 60.380554%, 100%)" offset="0.429687"/><stop stop-opacity="1" stop-color="rgb(26.229858%, 60.159302%, 100%)" offset="0.4375"/><stop stop-opacity="1" stop-color="rgb(26.312256%, 59.936523%, 100%)" offset="0.445312"/><stop stop-opacity="1" stop-color="rgb(26.396179%, 59.715271%, 100%)" offset="0.453125"/><stop stop-opacity="1" stop-color="rgb(26.480103%, 59.492493%, 100%)" offset="0.460937"/><stop stop-opacity="1" stop-color="rgb(26.564026%, 59.27124%, 100%)" offset="0.46875"/><stop stop-opacity="1" stop-color="rgb(26.646423%, 59.048462%, 100%)" offset="0.476562"/><stop stop-opacity="1" stop-color="rgb(26.730347%, 58.827209%, 100%)" offset="0.484375"/><stop stop-opacity="1" stop-color="rgb(26.81427%, 58.604431%, 100%)" offset="0.492188"/><stop stop-opacity="1" stop-color="rgb(26.898193%, 58.383179%, 100%)" offset="0.5"/><stop stop-opacity="1" stop-color="rgb(26.980591%, 58.1604%, 100%)" offset="0.507812"/><stop stop-opacity="1" stop-color="rgb(27.064514%, 57.939148%, 100%)" offset="0.515625"/><stop stop-opacity="1" stop-color="rgb(27.148438%, 57.71637%, 100%)" offset="0.523437"/><stop stop-opacity="1" stop-color="rgb(27.232361%, 57.495117%, 100%)" offset="0.53125"/><stop stop-opacity="1" stop-color="rgb(27.316284%, 57.272339%, 100%)" offset="0.539062"/><stop stop-opacity="1" stop-color="rgb(27.398682%, 57.051086%, 100%)" offset="0.546875"/><stop stop-opacity="1" stop-color="rgb(27.482605%, 56.828308%, 100%)" offset="0.554688"/><stop stop-opacity="1" stop-color="rgb(27.566528%, 56.607056%, 100%)" offset="0.5625"/><stop stop-opacity="1" stop-color="rgb(27.650452%, 56.384277%, 100%)" offset="0.570312"/><stop stop-opacity="1" stop-color="rgb(27.732849%, 56.163025%, 100%)" offset="0.578125"/><stop stop-opacity="1" stop-color="rgb(27.816772%, 55.940247%, 100%)" offset="0.585938"/><stop stop-opacity="1" stop-color="rgb(27.900696%, 55.718994%, 100%)" offset="0.59375"/><stop stop-opacity="1" stop-color="rgb(27.984619%, 55.496216%, 100%)" offset="0.601562"/><stop stop-opacity="1" stop-color="rgb(28.067017%, 55.274963%, 100%)" offset="0.609375"/><stop stop-opacity="1" stop-color="rgb(28.15094%, 55.052185%, 100%)" offset="0.617187"/><stop stop-opacity="1" stop-color="rgb(28.234863%, 54.829407%, 100%)" offset="0.625"/><stop stop-opacity="1" stop-color="rgb(28.318787%, 54.608154%, 100%)" offset="0.632813"/><stop stop-opacity="1" stop-color="rgb(28.40271%, 54.385376%, 100%)" offset="0.640625"/><stop stop-opacity="1" stop-color="rgb(28.485107%, 54.164124%, 100%)" offset="0.648438"/><stop stop-opacity="1" stop-color="rgb(28.569031%, 53.941345%, 100%)" offset="0.65625"/><stop stop-opacity="1" stop-color="rgb(28.652954%, 53.720093%, 100%)" offset="0.664062"/><stop stop-opacity="1" stop-color="rgb(28.736877%, 53.497314%, 100%)" offset="0.671875"/><stop stop-opacity="1" stop-color="rgb(28.819275%, 53.276062%, 100%)" offset="0.679688"/><stop stop-opacity="1" stop-color="rgb(28.903198%, 53.053284%, 100%)" offset="0.6875"/><stop stop-opacity="1" stop-color="rgb(28.987122%, 52.832031%, 100%)" offset="0.695312"/><stop stop-opacity="1" stop-color="rgb(29.071045%, 52.609253%, 100%)" offset="0.703125"/><stop stop-opacity="1" stop-color="rgb(29.153442%, 52.388%, 100%)" offset="0.710938"/><stop stop-opacity="1" stop-color="rgb(29.237366%, 52.165222%, 100%)" offset="0.71875"/><stop stop-opacity="1" stop-color="rgb(29.321289%, 51.94397%, 100%)" offset="0.726563"/><stop stop-opacity="1" stop-color="rgb(29.405212%, 51.721191%, 100%)" offset="0.734375"/><stop stop-opacity="1" stop-color="rgb(29.48761%, 51.499939%, 100%)" offset="0.742188"/><stop stop-opacity="1" stop-color="rgb(29.571533%, 51.277161%, 100%)" offset="0.75"/><stop stop-opacity="1" stop-color="rgb(29.655457%, 51.055908%, 100%)" offset="0.757812"/><stop stop-opacity="1" stop-color="rgb(29.73938%, 50.83313%, 100%)" offset="0.765625"/><stop stop-opacity="1" stop-color="rgb(29.823303%, 50.611877%, 100%)" offset="0.773437"/><stop stop-opacity="1" stop-color="rgb(29.905701%, 50.389099%, 100%)" offset="0.78125"/><stop stop-opacity="1" stop-color="rgb(29.989624%, 50.167847%, 100%)" offset="0.789062"/><stop stop-opacity="1" stop-color="rgb(30.073547%, 49.945068%, 100%)" offset="0.796875"/><stop stop-opacity="1" stop-color="rgb(30.157471%, 49.723816%, 100%)" offset="0.804688"/><stop stop-opacity="1" stop-color="rgb(30.239868%, 49.501038%, 100%)" offset="0.8125"/><stop stop-opacity="1" stop-color="rgb(30.323792%, 49.279785%, 100%)" offset="0.820312"/><stop stop-opacity="1" stop-color="rgb(30.407715%, 49.057007%, 100%)" offset="0.828125"/><stop stop-opacity="1" stop-color="rgb(30.491638%, 48.835754%, 100%)" offset="0.835938"/><stop stop-opacity="1" stop-color="rgb(30.574036%, 48.612976%, 100%)" offset="0.84375"/><stop stop-opacity="1" stop-color="rgb(30.657959%, 48.391724%, 100%)" offset="0.851562"/><stop stop-opacity="1" stop-color="rgb(30.741882%, 48.168945%, 100%)" offset="0.859375"/><stop stop-opacity="1" stop-color="rgb(30.825806%, 47.947693%, 100%)" offset="0.867187"/><stop stop-opacity="1" stop-color="rgb(30.909729%, 47.724915%, 100%)" offset="0.875"/><stop stop-opacity="1" stop-color="rgb(30.992126%, 47.503662%, 100%)" offset="0.882813"/><stop stop-opacity="1" stop-color="rgb(31.07605%, 47.280884%, 100%)" offset="0.890625"/><stop stop-opacity="1" stop-color="rgb(31.159973%, 47.059631%, 100%)" offset="0.898438"/><stop stop-opacity="1" stop-color="rgb(31.243896%, 46.836853%, 100%)" offset="0.90625"/><stop stop-opacity="1" stop-color="rgb(31.326294%, 46.615601%, 100%)" offset="0.914062"/><stop stop-opacity="1" stop-color="rgb(31.410217%, 46.392822%, 100%)" offset="0.921875"/><stop stop-opacity="1" stop-color="rgb(31.494141%, 46.17157%, 100%)" offset="0.929688"/><stop stop-opacity="1" stop-color="rgb(31.578064%, 45.948792%, 100%)" offset="0.9375"/><stop stop-opacity="1" stop-color="rgb(31.660461%, 45.727539%, 100%)" offset="0.945312"/><stop stop-opacity="1" stop-color="rgb(31.744385%, 45.504761%, 100%)" offset="0.953125"/><stop stop-opacity="1" stop-color="rgb(31.828308%, 45.283508%, 100%)" offset="0.960938"/><stop stop-opacity="1" stop-color="rgb(31.912231%, 45.06073%, 100%)" offset="0.96875"/><stop stop-opacity="1" stop-color="rgb(31.994629%, 44.839478%, 100%)" offset="0.976563"/><stop stop-opacity="1" stop-color="rgb(32.078552%, 44.616699%, 100%)" offset="0.984375"/><stop stop-opacity="1" stop-color="rgb(32.159424%, 44.403076%, 100%)" offset="1"/></linearGradient><clipPath id="72a693dab1"><path d="M 59 200 L 82 200 L 82 232.265625 L 59 232.265625 Z M 59 200 " clip-rule="nonzero"/></clipPath><clipPath id="59852affbf"><path d="M 59 172 L 118.394531 172 L 118.394531 232 L 59 232 Z M 59 172 " clip-rule="nonzero"/></clipPath><clipPath id="7b96d5572b"><path d="M 59.308594 231.003906 C 59.28125 227.050781 59.742188 213.984375 66.121094 201.226562 C 68.132812 197.214844 70.726562 193.230469 74.082031 189.570312 C 82.773438 180.082031 96.558594 172.777344 118.386719 172.777344 L 118.386719 195.066406 C 102.289062 195.066406 90.570312 197.550781 82.035156 201.226562 C 78.996094 202.539062 76.359375 204.003906 74.078125 205.558594 C 60.648438 214.722656 59.363281 227.140625 59.308594 231.003906 Z M 59.308594 231.003906 " clip-rule="nonzero"/></clipPath><linearGradient x1="167.432053" gradientTransform="matrix(-0.24565, 0.00000000000000003, -0.00000000000000003, -0.247239, 159.516618, 192.554025)" y1="-37.771" x2="408.042057" gradientUnits="userSpaceOnUse" y2="-37.771" id="bbd0b9dfa4"><stop stop-opacity="1" stop-color="rgb(21.998596%, 71.398926%, 100%)" offset="0"/><stop stop-opacity="1" stop-color="rgb(21.998596%, 71.398926%, 100%)" offset="0.03125"/><stop stop-opacity="1" stop-color="rgb(22.045898%, 71.273804%, 100%)" offset="0.046875"/><stop stop-opacity="1" stop-color="rgb(22.134399%, 71.038818%, 100%)" offset="0.0546875"/><stop stop-opacity="1" stop-color="rgb(22.218323%, 70.81604%, 100%)" offset="0.0625"/><stop stop-opacity="1" stop-color="rgb(22.30072%, 70.594788%, 100%)" offset="0.0703125"/><stop stop-opacity="1" stop-color="rgb(22.384644%, 70.372009%, 100%)" offset="0.078125"/><stop stop-opacity="1" stop-color="rgb(22.468567%, 70.150757%, 100%)" offset="0.0859375"/><stop stop-opacity="1" stop-color="rgb(22.55249%, 69.927979%, 100%)" offset="0.09375"/><stop stop-opacity="1" stop-color="rgb(22.636414%, 69.706726%, 100%)" offset="0.101563"/><stop stop-opacity="1" stop-color="rgb(22.718811%, 69.483948%, 100%)" offset="0.109375"/><stop stop-opacity="1" stop-color="rgb(22.802734%, 69.262695%, 100%)" offset="0.117188"/><stop stop-opacity="1" stop-color="rgb(22.886658%, 69.039917%, 100%)" offset="0.125"/><stop stop-opacity="1" stop-color="rgb(22.970581%, 68.818665%, 100%)" offset="0.132813"/><stop stop-opacity="1" stop-color="rgb(23.052979%, 68.595886%, 100%)" offset="0.140625"/><stop stop-opacity="1" stop-color="rgb(23.136902%, 68.374634%, 100%)" offset="0.148438"/><stop stop-opacity="1" stop-color="rgb(23.220825%, 68.151855%, 100%)" offset="0.15625"/><stop stop-opacity="1" stop-color="rgb(23.304749%, 67.930603%, 100%)" offset="0.164062"/><stop stop-opacity="1" stop-color="rgb(23.387146%, 67.707825%, 100%)" offset="0.171875"/><stop stop-opacity="1" stop-color="rgb(23.471069%, 67.486572%, 100%)" offset="0.179688"/><stop stop-opacity="1" stop-color="rgb(23.554993%, 67.263794%, 100%)" offset="0.1875"/><stop stop-opacity="1" stop-color="rgb(23.638916%, 67.042542%, 100%)" offset="0.195312"/><stop stop-opacity="1" stop-color="rgb(23.722839%, 66.819763%, 100%)" offset="0.203125"/><stop stop-opacity="1" stop-color="rgb(23.805237%, 66.598511%, 100%)" offset="0.210938"/><stop stop-opacity="1" stop-color="rgb(23.88916%, 66.375732%, 100%)" offset="0.21875"/><stop stop-opacity="1" stop-color="rgb(23.973083%, 66.15448%, 100%)" offset="0.226562"/><stop stop-opacity="1" stop-color="rgb(24.057007%, 65.931702%, 100%)" offset="0.234375"/><stop stop-opacity="1" stop-color="rgb(24.139404%, 65.710449%, 100%)" offset="0.242188"/><stop stop-opacity="1" stop-color="rgb(24.223328%, 65.487671%, 100%)" offset="0.25"/><stop stop-opacity="1" stop-color="rgb(24.307251%, 65.264893%, 100%)" offset="0.257813"/><stop stop-opacity="1" stop-color="rgb(24.391174%, 65.04364%, 100%)" offset="0.265625"/><stop stop-opacity="1" stop-color="rgb(24.473572%, 64.820862%, 100%)" offset="0.273438"/><stop stop-opacity="1" stop-color="rgb(24.557495%, 64.599609%, 100%)" offset="0.28125"/><stop stop-opacity="1" stop-color="rgb(24.641418%, 64.376831%, 100%)" offset="0.289062"/><stop stop-opacity="1" stop-color="rgb(24.725342%, 64.155579%, 100%)" offset="0.296875"/><stop stop-opacity="1" stop-color="rgb(24.809265%, 63.9328%, 100%)" offset="0.304688"/><stop stop-opacity="1" stop-color="rgb(24.891663%, 63.711548%, 100%)" offset="0.3125"/><stop stop-opacity="1" stop-color="rgb(24.975586%, 63.48877%, 100%)" offset="0.320312"/><stop stop-opacity="1" stop-color="rgb(25.059509%, 63.267517%, 100%)" offset="0.328125"/><stop stop-opacity="1" stop-color="rgb(25.143433%, 63.044739%, 100%)" offset="0.335938"/><stop stop-opacity="1" stop-color="rgb(25.22583%, 62.823486%, 100%)" offset="0.34375"/><stop stop-opacity="1" stop-color="rgb(25.309753%, 62.600708%, 100%)" offset="0.351562"/><stop stop-opacity="1" stop-color="rgb(25.393677%, 62.379456%, 100%)" offset="0.359375"/><stop stop-opacity="1" stop-color="rgb(25.4776%, 62.156677%, 100%)" offset="0.367188"/><stop stop-opacity="1" stop-color="rgb(25.559998%, 61.935425%, 100%)" offset="0.375"/><stop stop-opacity="1" stop-color="rgb(25.643921%, 61.712646%, 100%)" offset="0.382812"/><stop stop-opacity="1" stop-color="rgb(25.727844%, 61.491394%, 100%)" offset="0.390625"/><stop stop-opacity="1" stop-color="rgb(25.811768%, 61.268616%, 100%)" offset="0.398438"/><stop stop-opacity="1" stop-color="rgb(25.895691%, 61.047363%, 100%)" offset="0.40625"/><stop stop-opacity="1" stop-color="rgb(25.978088%, 60.824585%, 100%)" offset="0.414062"/><stop stop-opacity="1" stop-color="rgb(26.062012%, 60.603333%, 100%)" offset="0.421875"/><stop stop-opacity="1" stop-color="rgb(26.145935%, 60.380554%, 100%)" offset="0.429688"/><stop stop-opacity="1" stop-color="rgb(26.229858%, 60.159302%, 100%)" offset="0.4375"/><stop stop-opacity="1" stop-color="rgb(26.312256%, 59.936523%, 100%)" offset="0.445313"/><stop stop-opacity="1" stop-color="rgb(26.396179%, 59.715271%, 100%)" offset="0.453125"/><stop stop-opacity="1" stop-color="rgb(26.480103%, 59.492493%, 100%)" offset="0.460938"/><stop stop-opacity="1" stop-color="rgb(26.564026%, 59.27124%, 100%)" offset="0.46875"/><stop stop-opacity="1" stop-color="rgb(26.646423%, 59.048462%, 100%)" offset="0.476563"/><stop stop-opacity="1" stop-color="rgb(26.730347%, 58.827209%, 100%)" offset="0.484375"/><stop stop-opacity="1" stop-color="rgb(26.81427%, 58.604431%, 100%)" offset="0.492188"/><stop stop-opacity="1" stop-color="rgb(26.898193%, 58.383179%, 100%)" offset="0.5"/><stop stop-opacity="1" stop-color="rgb(26.980591%, 58.1604%, 100%)" offset="0.507812"/><stop stop-opacity="1" stop-color="rgb(27.064514%, 57.939148%, 100%)" offset="0.515625"/><stop stop-opacity="1" stop-color="rgb(27.148438%, 57.71637%, 100%)" offset="0.523438"/><stop stop-opacity="1" stop-color="rgb(27.232361%, 57.495117%, 100%)" offset="0.53125"/><stop stop-opacity="1" stop-color="rgb(27.316284%, 57.272339%, 100%)" offset="0.539062"/><stop stop-opacity="1" stop-color="rgb(27.398682%, 57.051086%, 100%)" offset="0.546875"/><stop stop-opacity="1" stop-color="rgb(27.482605%, 56.828308%, 100%)" offset="0.554688"/><stop stop-opacity="1" stop-color="rgb(27.566528%, 56.60553%, 100%)" offset="0.5625"/><stop stop-opacity="1" stop-color="rgb(27.650452%, 56.384277%, 100%)" offset="0.570312"/><stop stop-opacity="1" stop-color="rgb(27.732849%, 56.161499%, 100%)" offset="0.578125"/><stop stop-opacity="1" stop-color="rgb(27.816772%, 55.940247%, 100%)" offset="0.585938"/><stop stop-opacity="1" stop-color="rgb(27.900696%, 55.717468%, 100%)" offset="0.59375"/><stop stop-opacity="1" stop-color="rgb(27.984619%, 55.496216%, 100%)" offset="0.601562"/><stop stop-opacity="1" stop-color="rgb(28.067017%, 55.273438%, 100%)" offset="0.609375"/><stop stop-opacity="1" stop-color="rgb(28.15094%, 55.052185%, 100%)" offset="0.617188"/><stop stop-opacity="1" stop-color="rgb(28.234863%, 54.829407%, 100%)" offset="0.625"/><stop stop-opacity="1" stop-color="rgb(28.318787%, 54.608154%, 100%)" offset="0.632812"/><stop stop-opacity="1" stop-color="rgb(28.40271%, 54.385376%, 100%)" offset="0.640625"/><stop stop-opacity="1" stop-color="rgb(28.485107%, 54.164124%, 100%)" offset="0.648437"/><stop stop-opacity="1" stop-color="rgb(28.569031%, 53.941345%, 100%)" offset="0.65625"/><stop stop-opacity="1" stop-color="rgb(28.652954%, 53.720093%, 100%)" offset="0.664062"/><stop stop-opacity="1" stop-color="rgb(28.736877%, 53.497314%, 100%)" offset="0.671875"/><stop stop-opacity="1" stop-color="rgb(28.819275%, 53.276062%, 100%)" offset="0.679687"/><stop stop-opacity="1" stop-color="rgb(28.903198%, 53.053284%, 100%)" offset="0.6875"/><stop stop-opacity="1" stop-color="rgb(28.987122%, 52.832031%, 100%)" offset="0.695312"/><stop stop-opacity="1" stop-color="rgb(29.071045%, 52.609253%, 100%)" offset="0.703125"/><stop stop-opacity="1" stop-color="rgb(29.153442%, 52.388%, 100%)" offset="0.710938"/><stop stop-opacity="1" stop-color="rgb(29.237366%, 52.165222%, 100%)" offset="0.71875"/><stop stop-opacity="1" stop-color="rgb(29.321289%, 51.94397%, 100%)" offset="0.726562"/><stop stop-opacity="1" stop-color="rgb(29.405212%, 51.721191%, 100%)" offset="0.734375"/><stop stop-opacity="1" stop-color="rgb(29.489136%, 51.499939%, 100%)" offset="0.742188"/><stop stop-opacity="1" stop-color="rgb(29.571533%, 51.277161%, 100%)" offset="0.75"/><stop stop-opacity="1" stop-color="rgb(29.655457%, 51.055908%, 100%)" offset="0.757812"/><stop stop-opacity="1" stop-color="rgb(29.73938%, 50.83313%, 100%)" offset="0.765625"/><stop stop-opacity="1" stop-color="rgb(29.823303%, 50.611877%, 100%)" offset="0.773438"/><stop stop-opacity="1" stop-color="rgb(29.905701%, 50.389099%, 100%)" offset="0.78125"/><stop stop-opacity="1" stop-color="rgb(29.989624%, 50.167847%, 100%)" offset="0.789062"/><stop stop-opacity="1" stop-color="rgb(30.073547%, 49.945068%, 100%)" offset="0.796875"/><stop stop-opacity="1" stop-color="rgb(30.157471%, 49.723816%, 100%)" offset="0.804687"/><stop stop-opacity="1" stop-color="rgb(30.239868%, 49.501038%, 100%)" offset="0.8125"/><stop stop-opacity="1" stop-color="rgb(30.323792%, 49.279785%, 100%)" offset="0.820312"/><stop stop-opacity="1" stop-color="rgb(30.407715%, 49.057007%, 100%)" offset="0.828125"/><stop stop-opacity="1" stop-color="rgb(30.491638%, 48.835754%, 100%)" offset="0.835938"/><stop stop-opacity="1" stop-color="rgb(30.575562%, 48.612976%, 100%)" offset="0.84375"/><stop stop-opacity="1" stop-color="rgb(30.657959%, 48.391724%, 100%)" offset="0.851562"/><stop stop-opacity="1" stop-color="rgb(30.741882%, 48.168945%, 100%)" offset="0.859375"/><stop stop-opacity="1" stop-color="rgb(30.825806%, 47.947693%, 100%)" offset="0.867188"/><stop stop-opacity="1" stop-color="rgb(30.909729%, 47.724915%, 100%)" offset="0.875"/><stop stop-opacity="1" stop-color="rgb(30.992126%, 47.502136%, 100%)" offset="0.882812"/><stop stop-opacity="1" stop-color="rgb(31.07605%, 47.280884%, 100%)" offset="0.890625"/><stop stop-opacity="1" stop-color="rgb(31.159973%, 47.058105%, 100%)" offset="0.898438"/><stop stop-opacity="1" stop-color="rgb(31.243896%, 46.836853%, 100%)" offset="0.90625"/><stop stop-opacity="1" stop-color="rgb(31.326294%, 46.614075%, 100%)" offset="0.914062"/><stop stop-opacity="1" stop-color="rgb(31.410217%, 46.392822%, 100%)" offset="0.921875"/><stop stop-opacity="1" stop-color="rgb(31.494141%, 46.170044%, 100%)" offset="0.929688"/><stop stop-opacity="1" stop-color="rgb(31.578064%, 45.948792%, 100%)" offset="0.9375"/><stop stop-opacity="1" stop-color="rgb(31.661987%, 45.726013%, 100%)" offset="0.945312"/><stop stop-opacity="1" stop-color="rgb(31.744385%, 45.504761%, 100%)" offset="0.953125"/><stop stop-opacity="1" stop-color="rgb(31.828308%, 45.281982%, 100%)" offset="0.960938"/><stop stop-opacity="1" stop-color="rgb(31.912231%, 45.06073%, 100%)" offset="0.96875"/><stop stop-opacity="1" stop-color="rgb(31.996155%, 44.837952%, 100%)" offset="0.976562"/><stop stop-opacity="1" stop-color="rgb(32.078552%, 44.616699%, 100%)" offset="0.984375"/><stop stop-opacity="1" stop-color="rgb(32.159424%, 44.40155%, 100%)" offset="1"/></linearGradient></defs><rect x="-37.5" width="450" fill="#ffffff" y="-37.499999" height="449.999989" fill-opacity="1"/><rect x="-37.5" width="450" fill="#ffffff" y="-37.499999" height="449.999989" fill-opacity="1"/><g clip-path="url(#5d62690139)"><path fill="#004aad" d="M 59.304688 175.046875 L 59.304688 143.0625 L 81.476562 143.0625 C 81.476562 143.0625 81.773438 158.03125 76.101562 164.0625 C 70.433594 170.09375 59.304688 175.046875 59.304688 175.046875 Z M 59.304688 175.046875 " fill-opacity="1" fill-rule="nonzero"/></g><g clip-path="url(#edda1aedb2)"><g clip-path="url(#6c948176f8)"><path fill="url(#63b8ecc061)" d="M 22.394531 144.269531 L 22.394531 202.496094 L 81.496094 202.496094 L 81.496094 144.269531 Z M 22.394531 144.269531 " fill-rule="nonzero"/></g></g><g clip-path="url(#72a693dab1)"><path fill="#004aad" d="M 81.476562 200.230469 L 81.476562 232.210938 L 59.304688 232.210938 C 59.304688 232.210938 59.007812 217.242188 64.679688 211.210938 C 70.347656 205.183594 81.476562 200.230469 81.476562 200.230469 Z M 81.476562 200.230469 " fill-opacity="1" fill-rule="nonzero"/></g><g clip-path="url(#59852affbf)"><g clip-path="url(#7b96d5572b)"><path fill="url(#bbd0b9dfa4)" d="M 118.386719 231.003906 L 118.386719 172.777344 L 59.28125 172.777344 L 59.28125 231.003906 Z M 118.386719 231.003906 " fill-rule="nonzero"/></g></g><g fill="#004aad" fill-opacity="0.4"><g transform="translate(137.961982, 182.688027)"><g><path d="M 10 -9.890625 L 10 0 L 8.578125 0 L 8.578125 -4.40625 L 2.90625 -4.40625 L 2.90625 0 L 1.484375 0 L 1.484375 -9.890625 L 2.90625 -9.890625 L 2.90625 -5.640625 L 8.578125 -5.640625 L 8.578125 -9.890625 Z M 10 -9.890625 "/></g></g></g><g fill="#004aad" fill-opacity="0.4"><g transform="translate(153.127782, 182.688027)"><g><path d="M 8.0625 -3.703125 C 8.0625 -3.597656 8.050781 -3.460938 8.03125 -3.296875 L 1.953125 -3.296875 C 2.035156 -2.640625 2.320312 -2.109375 2.8125 -1.703125 C 3.3125 -1.304688 3.929688 -1.109375 4.671875 -1.109375 C 5.566406 -1.109375 6.285156 -1.410156 6.828125 -2.015625 L 7.578125 -1.125 C 7.234375 -0.726562 6.8125 -0.425781 6.3125 -0.21875 C 5.8125 -0.0195312 5.25 0.078125 4.625 0.078125 C 3.832031 0.078125 3.128906 -0.0820312 2.515625 -0.40625 C 1.898438 -0.726562 1.425781 -1.179688 1.09375 -1.765625 C 0.757812 -2.347656 0.59375 -3.007812 0.59375 -3.75 C 0.59375 -4.476562 0.753906 -5.132812 1.078125 -5.71875 C 1.398438 -6.300781 1.847656 -6.753906 2.421875 -7.078125 C 2.992188 -7.398438 3.640625 -7.5625 4.359375 -7.5625 C 5.078125 -7.5625 5.710938 -7.398438 6.265625 -7.078125 C 6.828125 -6.753906 7.265625 -6.300781 7.578125 -5.71875 C 7.898438 -5.132812 8.0625 -4.460938 8.0625 -3.703125 Z M 4.359375 -6.421875 C 3.703125 -6.421875 3.15625 -6.222656 2.71875 -5.828125 C 2.28125 -5.429688 2.023438 -4.910156 1.953125 -4.265625 L 6.765625 -4.265625 C 6.679688 -4.898438 6.421875 -5.414062 5.984375 -5.8125 C 5.546875 -6.21875 5.003906 -6.421875 4.359375 -6.421875 Z M 4.359375 -6.421875 "/></g></g></g><g fill="#004aad" fill-opacity="0.4"><g transform="translate(165.464453, 182.688027)"><g><path d="M 4.015625 -7.5625 C 5.054688 -7.5625 5.847656 -7.304688 6.390625 -6.796875 C 6.941406 -6.285156 7.21875 -5.53125 7.21875 -4.53125 L 7.21875 0 L 5.9375 0 L 5.9375 -0.984375 C 5.707031 -0.640625 5.382812 -0.375 4.96875 -0.1875 C 4.550781 -0.0078125 4.054688 0.078125 3.484375 0.078125 C 2.640625 0.078125 1.960938 -0.117188 1.453125 -0.515625 C 0.953125 -0.921875 0.703125 -1.457031 0.703125 -2.125 C 0.703125 -2.78125 0.941406 -3.304688 1.421875 -3.703125 C 1.910156 -4.109375 2.675781 -4.3125 3.71875 -4.3125 L 5.875 -4.3125 L 5.875 -4.578125 C 5.875 -5.160156 5.703125 -5.609375 5.359375 -5.921875 C 5.015625 -6.234375 4.515625 -6.390625 3.859375 -6.390625 C 3.421875 -6.390625 2.988281 -6.316406 2.5625 -6.171875 C 2.132812 -6.023438 1.773438 -5.828125 1.484375 -5.578125 L 0.921875 -6.609375 C 1.304688 -6.910156 1.765625 -7.144531 2.296875 -7.3125 C 2.835938 -7.476562 3.410156 -7.5625 4.015625 -7.5625 Z M 3.703125 -0.96875 C 4.222656 -0.96875 4.671875 -1.082031 5.046875 -1.3125 C 5.421875 -1.539062 5.695312 -1.867188 5.875 -2.296875 L 5.875 -3.34375 L 3.78125 -3.34375 C 2.625 -3.34375 2.046875 -2.953125 2.046875 -2.171875 C 2.046875 -1.796875 2.191406 -1.5 2.484375 -1.28125 C 2.773438 -1.070312 3.179688 -0.96875 3.703125 -0.96875 Z M 3.703125 -0.96875 "/></g></g></g><g fill="#004aad" fill-opacity="0.4"><g transform="translate(177.603089, 182.688027)"><g><path d="M 1.28125 -10.5 L 2.640625 -10.5 L 2.640625 0 L 1.28125 0 Z M 1.28125 -10.5 "/></g></g></g><g fill="#004aad" fill-opacity="0.4"><g transform="translate(185.229264, 182.688027)"><g><path d="M 5.5 -0.4375 C 5.300781 -0.269531 5.054688 -0.140625 4.765625 -0.046875 C 4.472656 0.0351562 4.171875 0.078125 3.859375 0.078125 C 3.109375 0.078125 2.523438 -0.117188 2.109375 -0.515625 C 1.691406 -0.921875 1.484375 -1.503906 1.484375 -2.265625 L 1.484375 -6.375 L 0.21875 -6.375 L 0.21875 -7.5 L 1.484375 -7.5 L 1.484375 -9.140625 L 2.84375 -9.140625 L 2.84375 -7.5 L 4.984375 -7.5 L 4.984375 -6.375 L 2.84375 -6.375 L 2.84375 -2.3125 C 2.84375 -1.914062 2.941406 -1.609375 3.140625 -1.390625 C 3.347656 -1.171875 3.640625 -1.0625 4.015625 -1.0625 C 4.429688 -1.0625 4.785156 -1.175781 5.078125 -1.40625 Z M 5.5 -0.4375 "/></g></g></g><g fill="#004aad" fill-opacity="0.4"><g transform="translate(194.765103, 182.688027)"><g><path d="M 5.28125 -7.5625 C 6.238281 -7.5625 7 -7.285156 7.5625 -6.734375 C 8.125 -6.179688 8.40625 -5.375 8.40625 -4.3125 L 8.40625 0 L 7.046875 0 L 7.046875 -4.15625 C 7.046875 -4.882812 6.867188 -5.429688 6.515625 -5.796875 C 6.171875 -6.160156 5.671875 -6.34375 5.015625 -6.34375 C 4.285156 -6.34375 3.707031 -6.128906 3.28125 -5.703125 C 2.851562 -5.273438 2.640625 -4.660156 2.640625 -3.859375 L 2.640625 0 L 1.28125 0 L 1.28125 -10.5 L 2.640625 -10.5 L 2.640625 -6.4375 C 2.921875 -6.789062 3.289062 -7.066406 3.75 -7.265625 C 4.207031 -7.460938 4.71875 -7.5625 5.28125 -7.5625 Z M 5.28125 -7.5625 "/></g></g></g><g fill="#004aad" fill-opacity="0.4"><g transform="translate(208.077822, 182.688027)"><g/></g></g><g fill="#004aad" fill-opacity="0.4"><g transform="translate(215.562537, 182.688027)"><g><path d="M 15.46875 -9.890625 L 12.15625 0 L 10.671875 0 L 7.96875 -7.90625 L 5.28125 0 L 3.765625 0 L 0.453125 -9.890625 L 1.90625 -9.890625 L 4.578125 -1.859375 L 7.375 -9.890625 L 8.671875 -9.890625 L 11.390625 -1.8125 L 14.125 -9.890625 Z M 15.46875 -9.890625 "/></g></g></g><g fill="#004aad" fill-opacity="0.4"><g transform="translate(235.170062, 182.688027)"><g><path d="M 1.28125 -7.5 L 2.640625 -7.5 L 2.640625 0 L 1.28125 0 Z M 1.96875 -8.9375 C 1.695312 -8.9375 1.472656 -9.019531 1.296875 -9.1875 C 1.128906 -9.363281 1.046875 -9.570312 1.046875 -9.8125 C 1.046875 -10.0625 1.128906 -10.269531 1.296875 -10.4375 C 1.472656 -10.613281 1.695312 -10.703125 1.96875 -10.703125 C 2.226562 -10.703125 2.441406 -10.617188 2.609375 -10.453125 C 2.785156 -10.285156 2.875 -10.082031 2.875 -9.84375 C 2.875 -9.582031 2.785156 -9.363281 2.609375 -9.1875 C 2.441406 -9.019531 2.226562 -8.9375 1.96875 -8.9375 Z M 1.96875 -8.9375 "/></g></g></g><g fill="#004aad" fill-opacity="0.4"><g transform="translate(242.796238, 182.688027)"><g><path d="M 5.5 -0.4375 C 5.300781 -0.269531 5.054688 -0.140625 4.765625 -0.046875 C 4.472656 0.0351562 4.171875 0.078125 3.859375 0.078125 C 3.109375 0.078125 2.523438 -0.117188 2.109375 -0.515625 C 1.691406 -0.921875 1.484375 -1.503906 1.484375 -2.265625 L 1.484375 -6.375 L 0.21875 -6.375 L 0.21875 -7.5 L 1.484375 -7.5 L 1.484375 -9.140625 L 2.84375 -9.140625 L 2.84375 -7.5 L 4.984375 -7.5 L 4.984375 -6.375 L 2.84375 -6.375 L 2.84375 -2.3125 C 2.84375 -1.914062 2.941406 -1.609375 3.140625 -1.390625 C 3.347656 -1.171875 3.640625 -1.0625 4.015625 -1.0625 C 4.429688 -1.0625 4.785156 -1.175781 5.078125 -1.40625 Z M 5.5 -0.4375 "/></g></g></g><g fill="#004aad" fill-opacity="0.4"><g transform="translate(252.332076, 182.688027)"><g><path d="M 5.28125 -7.5625 C 6.238281 -7.5625 7 -7.285156 7.5625 -6.734375 C 8.125 -6.179688 8.40625 -5.375 8.40625 -4.3125 L 8.40625 0 L 7.046875 0 L 7.046875 -4.15625 C 7.046875 -4.882812 6.867188 -5.429688 6.515625 -5.796875 C 6.171875 -6.160156 5.671875 -6.34375 5.015625 -6.34375 C 4.285156 -6.34375 3.707031 -6.128906 3.28125 -5.703125 C 2.851562 -5.273438 2.640625 -4.660156 2.640625 -3.859375 L 2.640625 0 L 1.28125 0 L 1.28125 -10.5 L 2.640625 -10.5 L 2.640625 -6.4375 C 2.921875 -6.789062 3.289062 -7.066406 3.75 -7.265625 C 4.207031 -7.460938 4.71875 -7.5625 5.28125 -7.5625 Z M 5.28125 -7.5625 "/></g></g></g><g fill="#004aad" fill-opacity="0.4"><g transform="translate(265.644795, 182.688027)"><g><path d="M 1.28125 -7.5 L 2.640625 -7.5 L 2.640625 0 L 1.28125 0 Z M 1.96875 -8.9375 C 1.695312 -8.9375 1.472656 -9.019531 1.296875 -9.1875 C 1.128906 -9.363281 1.046875 -9.570312 1.046875 -9.8125 C 1.046875 -10.0625 1.128906 -10.269531 1.296875 -10.4375 C 1.472656 -10.613281 1.695312 -10.703125 1.96875 -10.703125 C 2.226562 -10.703125 2.441406 -10.617188 2.609375 -10.453125 C 2.785156 -10.285156 2.875 -10.082031 2.875 -9.84375 C 2.875 -9.582031 2.785156 -9.363281 2.609375 -9.1875 C 2.441406 -9.019531 2.226562 -8.9375 1.96875 -8.9375 Z M 1.96875 -8.9375 "/></g></g></g><g fill="#004aad" fill-opacity="0.4"><g transform="translate(273.27097, 182.688027)"><g><path d="M 5.28125 -7.5625 C 6.238281 -7.5625 7 -7.285156 7.5625 -6.734375 C 8.125 -6.179688 8.40625 -5.375 8.40625 -4.3125 L 8.40625 0 L 7.046875 0 L 7.046875 -4.15625 C 7.046875 -4.882812 6.867188 -5.429688 6.515625 -5.796875 C 6.171875 -6.160156 5.671875 -6.34375 5.015625 -6.34375 C 4.285156 -6.34375 3.707031 -6.128906 3.28125 -5.703125 C 2.851562 -5.273438 2.640625 -4.660156 2.640625 -3.859375 L 2.640625 0 L 1.28125 0 L 1.28125 -7.5 L 2.59375 -7.5 L 2.59375 -6.359375 C 2.863281 -6.742188 3.226562 -7.039062 3.6875 -7.25 C 4.15625 -7.457031 4.6875 -7.5625 5.28125 -7.5625 Z M 5.28125 -7.5625 "/></g></g></g><g fill="#004aad" fill-opacity="0.4"><g transform="translate(286.583689, 182.688027)"><g/></g></g><g fill="#004aad" fill-opacity="0.4"><g transform="translate(294.068404, 182.688027)"><g><path d="M 8.109375 0 L 5.96875 -3.046875 C 5.707031 -3.023438 5.5 -3.015625 5.34375 -3.015625 L 2.90625 -3.015625 L 2.90625 0 L 1.484375 0 L 1.484375 -9.890625 L 5.34375 -9.890625 C 6.625 -9.890625 7.628906 -9.582031 8.359375 -8.96875 C 9.097656 -8.363281 9.46875 -7.523438 9.46875 -6.453125 C 9.46875 -5.679688 9.28125 -5.023438 8.90625 -4.484375 C 8.53125 -3.953125 7.992188 -3.566406 7.296875 -3.328125 L 9.640625 0 Z M 5.296875 -4.21875 C 6.191406 -4.21875 6.875 -4.410156 7.34375 -4.796875 C 7.820312 -5.179688 8.0625 -5.734375 8.0625 -6.453125 C 8.0625 -7.160156 7.820312 -7.707031 7.34375 -8.09375 C 6.875 -8.476562 6.191406 -8.671875 5.296875 -8.671875 L 2.90625 -8.671875 L 2.90625 -4.21875 Z M 5.296875 -4.21875 "/></g></g></g><g fill="#004aad" fill-opacity="0.4"><g transform="translate(308.031832, 182.688027)"><g><path d="M 8.0625 -3.703125 C 8.0625 -3.597656 8.050781 -3.460938 8.03125 -3.296875 L 1.953125 -3.296875 C 2.035156 -2.640625 2.320312 -2.109375 2.8125 -1.703125 C 3.3125 -1.304688 3.929688 -1.109375 4.671875 -1.109375 C 5.566406 -1.109375 6.285156 -1.410156 6.828125 -2.015625 L 7.578125 -1.125 C 7.234375 -0.726562 6.8125 -0.425781 6.3125 -0.21875 C 5.8125 -0.0195312 5.25 0.078125 4.625 0.078125 C 3.832031 0.078125 3.128906 -0.0820312 2.515625 -0.40625 C 1.898438 -0.726562 1.425781 -1.179688 1.09375 -1.765625 C 0.757812 -2.347656 0.59375 -3.007812 0.59375 -3.75 C 0.59375 -4.476562 0.753906 -5.132812 1.078125 -5.71875 C 1.398438 -6.300781 1.847656 -6.753906 2.421875 -7.078125 C 2.992188 -7.398438 3.640625 -7.5625 4.359375 -7.5625 C 5.078125 -7.5625 5.710938 -7.398438 6.265625 -7.078125 C 6.828125 -6.753906 7.265625 -6.300781 7.578125 -5.71875 C 7.898438 -5.132812 8.0625 -4.460938 8.0625 -3.703125 Z M 4.359375 -6.421875 C 3.703125 -6.421875 3.15625 -6.222656 2.71875 -5.828125 C 2.28125 -5.429688 2.023438 -4.910156 1.953125 -4.265625 L 6.765625 -4.265625 C 6.679688 -4.898438 6.421875 -5.414062 5.984375 -5.8125 C 5.546875 -6.21875 5.003906 -6.421875 4.359375 -6.421875 Z M 4.359375 -6.421875 "/></g></g></g><g fill="#004aad" fill-opacity="0.4"><g transform="translate(320.368509, 182.688027)"><g><path d="M 4.015625 -7.5625 C 5.054688 -7.5625 5.847656 -7.304688 6.390625 -6.796875 C 6.941406 -6.285156 7.21875 -5.53125 7.21875 -4.53125 L 7.21875 0 L 5.9375 0 L 5.9375 -0.984375 C 5.707031 -0.640625 5.382812 -0.375 4.96875 -0.1875 C 4.550781 -0.0078125 4.054688 0.078125 3.484375 0.078125 C 2.640625 0.078125 1.960938 -0.117188 1.453125 -0.515625 C 0.953125 -0.921875 0.703125 -1.457031 0.703125 -2.125 C 0.703125 -2.78125 0.941406 -3.304688 1.421875 -3.703125 C 1.910156 -4.109375 2.675781 -4.3125 3.71875 -4.3125 L 5.875 -4.3125 L 5.875 -4.578125 C 5.875 -5.160156 5.703125 -5.609375 5.359375 -5.921875 C 5.015625 -6.234375 4.515625 -6.390625 3.859375 -6.390625 C 3.421875 -6.390625 2.988281 -6.316406 2.5625 -6.171875 C 2.132812 -6.023438 1.773438 -5.828125 1.484375 -5.578125 L 0.921875 -6.609375 C 1.304688 -6.910156 1.765625 -7.144531 2.296875 -7.3125 C 2.835938 -7.476562 3.410156 -7.5625 4.015625 -7.5625 Z M 3.703125 -0.96875 C 4.222656 -0.96875 4.671875 -1.082031 5.046875 -1.3125 C 5.421875 -1.539062 5.695312 -1.867188 5.875 -2.296875 L 5.875 -3.34375 L 3.78125 -3.34375 C 2.625 -3.34375 2.046875 -2.953125 2.046875 -2.171875 C 2.046875 -1.796875 2.191406 -1.5 2.484375 -1.28125 C 2.773438 -1.070312 3.179688 -0.96875 3.703125 -0.96875 Z M 3.703125 -0.96875 "/></g></g></g><g fill="#004aad" fill-opacity="0.4"><g transform="translate(332.507141, 182.688027)"><g><path d="M 4.546875 0.078125 C 3.785156 0.078125 3.101562 -0.0820312 2.5 -0.40625 C 1.90625 -0.738281 1.4375 -1.191406 1.09375 -1.765625 C 0.757812 -2.347656 0.59375 -3.007812 0.59375 -3.75 C 0.59375 -4.476562 0.757812 -5.132812 1.09375 -5.71875 C 1.4375 -6.300781 1.90625 -6.753906 2.5 -7.078125 C 3.101562 -7.398438 3.785156 -7.5625 4.546875 -7.5625 C 5.234375 -7.5625 5.84375 -7.425781 6.375 -7.15625 C 6.90625 -6.882812 7.316406 -6.488281 7.609375 -5.96875 L 6.578125 -5.296875 C 6.335938 -5.660156 6.039062 -5.929688 5.6875 -6.109375 C 5.34375 -6.285156 4.960938 -6.375 4.546875 -6.375 C 4.046875 -6.375 3.597656 -6.265625 3.203125 -6.046875 C 2.816406 -5.835938 2.515625 -5.53125 2.296875 -5.125 C 2.078125 -4.726562 1.96875 -4.269531 1.96875 -3.75 C 1.96875 -3.21875 2.078125 -2.75 2.296875 -2.34375 C 2.515625 -1.945312 2.816406 -1.640625 3.203125 -1.421875 C 3.597656 -1.210938 4.046875 -1.109375 4.546875 -1.109375 C 4.960938 -1.109375 5.34375 -1.195312 5.6875 -1.375 C 6.039062 -1.550781 6.335938 -1.816406 6.578125 -2.171875 L 7.609375 -1.53125 C 7.316406 -1.007812 6.90625 -0.609375 6.375 -0.328125 C 5.84375 -0.0546875 5.234375 0.078125 4.546875 0.078125 Z M 4.546875 0.078125 "/></g></g></g><g fill="#004aad" fill-opacity="0.4"><g transform="translate(344.263839, 182.688027)"><g><path d="M 5.28125 -7.5625 C 6.238281 -7.5625 7 -7.285156 7.5625 -6.734375 C 8.125 -6.179688 8.40625 -5.375 8.40625 -4.3125 L 8.40625 0 L 7.046875 0 L 7.046875 -4.15625 C 7.046875 -4.882812 6.867188 -5.429688 6.515625 -5.796875 C 6.171875 -6.160156 5.671875 -6.34375 5.015625 -6.34375 C 4.285156 -6.34375 3.707031 -6.128906 3.28125 -5.703125 C 2.851562 -5.273438 2.640625 -4.660156 2.640625 -3.859375 L 2.640625 0 L 1.28125 0 L 1.28125 -10.5 L 2.640625 -10.5 L 2.640625 -6.4375 C 2.921875 -6.789062 3.289062 -7.066406 3.75 -7.265625 C 4.207031 -7.460938 4.71875 -7.5625 5.28125 -7.5625 Z M 5.28125 -7.5625 "/></g></g></g><g fill="#004aad" fill-opacity="1"><g transform="translate(137.336539, 182.062582)"><g><path d="M 10 -9.890625 L 10 0 L 8.578125 0 L 8.578125 -4.40625 L 2.90625 -4.40625 L 2.90625 0 L 1.484375 0 L 1.484375 -9.890625 L 2.90625 -9.890625 L 2.90625 -5.640625 L 8.578125 -5.640625 L 8.578125 -9.890625 Z M 10 -9.890625 "/></g></g></g><g fill="#004aad" fill-opacity="1"><g transform="translate(152.50234, 182.062582)"><g><path d="M 8.0625 -3.703125 C 8.0625 -3.597656 8.050781 -3.460938 8.03125 -3.296875 L 1.953125 -3.296875 C 2.035156 -2.640625 2.320312 -2.109375 2.8125 -1.703125 C 3.3125 -1.304688 3.929688 -1.109375 4.671875 -1.109375 C 5.566406 -1.109375 6.285156 -1.410156 6.828125 -2.015625 L 7.578125 -1.125 C 7.234375 -0.726562 6.8125 -0.425781 6.3125 -0.21875 C 5.8125 -0.0195312 5.25 0.078125 4.625 0.078125 C 3.832031 0.078125 3.128906 -0.0820312 2.515625 -0.40625 C 1.898438 -0.726562 1.425781 -1.179688 1.09375 -1.765625 C 0.757812 -2.347656 0.59375 -3.007812 0.59375 -3.75 C 0.59375 -4.476562 0.753906 -5.132812 1.078125 -5.71875 C 1.398438 -6.300781 1.847656 -6.753906 2.421875 -7.078125 C 2.992188 -7.398438 3.640625 -7.5625 4.359375 -7.5625 C 5.078125 -7.5625 5.710938 -7.398438 6.265625 -7.078125 C 6.828125 -6.753906 7.265625 -6.300781 7.578125 -5.71875 C 7.898438 -5.132812 8.0625 -4.460938 8.0625 -3.703125 Z M 4.359375 -6.421875 C 3.703125 -6.421875 3.15625 -6.222656 2.71875 -5.828125 C 2.28125 -5.429688 2.023438 -4.910156 1.953125 -4.265625 L 6.765625 -4.265625 C 6.679688 -4.898438 6.421875 -5.414062 5.984375 -5.8125 C 5.546875 -6.21875 5.003906 -6.421875 4.359375 -6.421875 Z M 4.359375 -6.421875 "/></g></g></g><g fill="#004aad" fill-opacity="1"><g transform="translate(164.83901, 182.062582)"><g><path d="M 4.015625 -7.5625 C 5.054688 -7.5625 5.847656 -7.304688 6.390625 -6.796875 C 6.941406 -6.285156 7.21875 -5.53125 7.21875 -4.53125 L 7.21875 0 L 5.9375 0 L 5.9375 -0.984375 C 5.707031 -0.640625 5.382812 -0.375 4.96875 -0.1875 C 4.550781 -0.0078125 4.054688 0.078125 3.484375 0.078125 C 2.640625 0.078125 1.960938 -0.117188 1.453125 -0.515625 C 0.953125 -0.921875 0.703125 -1.457031 0.703125 -2.125 C 0.703125 -2.78125 0.941406 -3.304688 1.421875 -3.703125 C 1.910156 -4.109375 2.675781 -4.3125 3.71875 -4.3125 L 5.875 -4.3125 L 5.875 -4.578125 C 5.875 -5.160156 5.703125 -5.609375 5.359375 -5.921875 C 5.015625 -6.234375 4.515625 -6.390625 3.859375 -6.390625 C 3.421875 -6.390625 2.988281 -6.316406 2.5625 -6.171875 C 2.132812 -6.023438 1.773438 -5.828125 1.484375 -5.578125 L 0.921875 -6.609375 C 1.304688 -6.910156 1.765625 -7.144531 2.296875 -7.3125 C 2.835938 -7.476562 3.410156 -7.5625 4.015625 -7.5625 Z M 3.703125 -0.96875 C 4.222656 -0.96875 4.671875 -1.082031 5.046875 -1.3125 C 5.421875 -1.539062 5.695312 -1.867188 5.875 -2.296875 L 5.875 -3.34375 L 3.78125 -3.34375 C 2.625 -3.34375 2.046875 -2.953125 2.046875 -2.171875 C 2.046875 -1.796875 2.191406 -1.5 2.484375 -1.28125 C 2.773438 -1.070312 3.179688 -0.96875 3.703125 -0.96875 Z M 3.703125 -0.96875 "/></g></g></g><g fill="#004aad" fill-opacity="1"><g transform="translate(176.977647, 182.062582)"><g><path d="M 1.28125 -10.5 L 2.640625 -10.5 L 2.640625 0 L 1.28125 0 Z M 1.28125 -10.5 "/></g></g></g><g fill="#004aad" fill-opacity="1"><g transform="translate(184.603822, 182.062582)"><g><path d="M 5.5 -0.4375 C 5.300781 -0.269531 5.054688 -0.140625 4.765625 -0.046875 C 4.472656 0.0351562 4.171875 0.078125 3.859375 0.078125 C 3.109375 0.078125 2.523438 -0.117188 2.109375 -0.515625 C 1.691406 -0.921875 1.484375 -1.503906 1.484375 -2.265625 L 1.484375 -6.375 L 0.21875 -6.375 L 0.21875 -7.5 L 1.484375 -7.5 L 1.484375 -9.140625 L 2.84375 -9.140625 L 2.84375 -7.5 L 4.984375 -7.5 L 4.984375 -6.375 L 2.84375 -6.375 L 2.84375 -2.3125 C 2.84375 -1.914062 2.941406 -1.609375 3.140625 -1.390625 C 3.347656 -1.171875 3.640625 -1.0625 4.015625 -1.0625 C 4.429688 -1.0625 4.785156 -1.175781 5.078125 -1.40625 Z M 5.5 -0.4375 "/></g></g></g><g fill="#004aad" fill-opacity="1"><g transform="translate(194.13966, 182.062582)"><g><path d="M 5.28125 -7.5625 C 6.238281 -7.5625 7 -7.285156 7.5625 -6.734375 C 8.125 -6.179688 8.40625 -5.375 8.40625 -4.3125 L 8.40625 0 L 7.046875 0 L 7.046875 -4.15625 C 7.046875 -4.882812 6.867188 -5.429688 6.515625 -5.796875 C 6.171875 -6.160156 5.671875 -6.34375 5.015625 -6.34375 C 4.285156 -6.34375 3.707031 -6.128906 3.28125 -5.703125 C 2.851562 -5.273438 2.640625 -4.660156 2.640625 -3.859375 L 2.640625 0 L 1.28125 0 L 1.28125 -10.5 L 2.640625 -10.5 L 2.640625 -6.4375 C 2.921875 -6.789062 3.289062 -7.066406 3.75 -7.265625 C 4.207031 -7.460938 4.71875 -7.5625 5.28125 -7.5625 Z M 5.28125 -7.5625 "/></g></g></g><g fill="#004aad" fill-opacity="1"><g transform="translate(207.452379, 182.062582)"><g/></g></g><g fill="#004aad" fill-opacity="1"><g transform="translate(214.937094, 182.062582)"><g><path d="M 15.46875 -9.890625 L 12.15625 0 L 10.671875 0 L 7.96875 -7.90625 L 5.28125 0 L 3.765625 0 L 0.453125 -9.890625 L 1.90625 -9.890625 L 4.578125 -1.859375 L 7.375 -9.890625 L 8.671875 -9.890625 L 11.390625 -1.8125 L 14.125 -9.890625 Z M 15.46875 -9.890625 "/></g></g></g><g fill="#004aad" fill-opacity="1"><g transform="translate(234.54462, 182.062582)"><g><path d="M 1.28125 -7.5 L 2.640625 -7.5 L 2.640625 0 L 1.28125 0 Z M 1.96875 -8.9375 C 1.695312 -8.9375 1.472656 -9.019531 1.296875 -9.1875 C 1.128906 -9.363281 1.046875 -9.570312 1.046875 -9.8125 C 1.046875 -10.0625 1.128906 -10.269531 1.296875 -10.4375 C 1.472656 -10.613281 1.695312 -10.703125 1.96875 -10.703125 C 2.226562 -10.703125 2.441406 -10.617188 2.609375 -10.453125 C 2.785156 -10.285156 2.875 -10.082031 2.875 -9.84375 C 2.875 -9.582031 2.785156 -9.363281 2.609375 -9.1875 C 2.441406 -9.019531 2.226562 -8.9375 1.96875 -8.9375 Z M 1.96875 -8.9375 "/></g></g></g><g fill="#004aad" fill-opacity="1"><g transform="translate(242.170795, 182.062582)"><g><path d="M 5.5 -0.4375 C 5.300781 -0.269531 5.054688 -0.140625 4.765625 -0.046875 C 4.472656 0.0351562 4.171875 0.078125 3.859375 0.078125 C 3.109375 0.078125 2.523438 -0.117188 2.109375 -0.515625 C 1.691406 -0.921875 1.484375 -1.503906 1.484375 -2.265625 L 1.484375 -6.375 L 0.21875 -6.375 L 0.21875 -7.5 L 1.484375 -7.5 L 1.484375 -9.140625 L 2.84375 -9.140625 L 2.84375 -7.5 L 4.984375 -7.5 L 4.984375 -6.375 L 2.84375 -6.375 L 2.84375 -2.3125 C 2.84375 -1.914062 2.941406 -1.609375 3.140625 -1.390625 C 3.347656 -1.171875 3.640625 -1.0625 4.015625 -1.0625 C 4.429688 -1.0625 4.785156 -1.175781 5.078125 -1.40625 Z M 5.5 -0.4375 "/></g></g></g><g fill="#004aad" fill-opacity="1"><g transform="translate(251.706634, 182.062582)"><g><path d="M 5.28125 -7.5625 C 6.238281 -7.5625 7 -7.285156 7.5625 -6.734375 C 8.125 -6.179688 8.40625 -5.375 8.40625 -4.3125 L 8.40625 0 L 7.046875 0 L 7.046875 -4.15625 C 7.046875 -4.882812 6.867188 -5.429688 6.515625 -5.796875 C 6.171875 -6.160156 5.671875 -6.34375 5.015625 -6.34375 C 4.285156 -6.34375 3.707031 -6.128906 3.28125 -5.703125 C 2.851562 -5.273438 2.640625 -4.660156 2.640625 -3.859375 L 2.640625 0 L 1.28125 0 L 1.28125 -10.5 L 2.640625 -10.5 L 2.640625 -6.4375 C 2.921875 -6.789062 3.289062 -7.066406 3.75 -7.265625 C 4.207031 -7.460938 4.71875 -7.5625 5.28125 -7.5625 Z M 5.28125 -7.5625 "/></g></g></g><g fill="#004aad" fill-opacity="1"><g transform="translate(265.019353, 182.062582)"><g><path d="M 1.28125 -7.5 L 2.640625 -7.5 L 2.640625 0 L 1.28125 0 Z M 1.96875 -8.9375 C 1.695312 -8.9375 1.472656 -9.019531 1.296875 -9.1875 C 1.128906 -9.363281 1.046875 -9.570312 1.046875 -9.8125 C 1.046875 -10.0625 1.128906 -10.269531 1.296875 -10.4375 C 1.472656 -10.613281 1.695312 -10.703125 1.96875 -10.703125 C 2.226562 -10.703125 2.441406 -10.617188 2.609375 -10.453125 C 2.785156 -10.285156 2.875 -10.082031 2.875 -9.84375 C 2.875 -9.582031 2.785156 -9.363281 2.609375 -9.1875 C 2.441406 -9.019531 2.226562 -8.9375 1.96875 -8.9375 Z M 1.96875 -8.9375 "/></g></g></g><g fill="#004aad" fill-opacity="1"><g transform="translate(272.645528, 182.062582)"><g><path d="M 5.28125 -7.5625 C 6.238281 -7.5625 7 -7.285156 7.5625 -6.734375 C 8.125 -6.179688 8.40625 -5.375 8.40625 -4.3125 L 8.40625 0 L 7.046875 0 L 7.046875 -4.15625 C 7.046875 -4.882812 6.867188 -5.429688 6.515625 -5.796875 C 6.171875 -6.160156 5.671875 -6.34375 5.015625 -6.34375 C 4.285156 -6.34375 3.707031 -6.128906 3.28125 -5.703125 C 2.851562 -5.273438 2.640625 -4.660156 2.640625 -3.859375 L 2.640625 0 L 1.28125 0 L 1.28125 -7.5 L 2.59375 -7.5 L 2.59375 -6.359375 C 2.863281 -6.742188 3.226562 -7.039062 3.6875 -7.25 C 4.15625 -7.457031 4.6875 -7.5625 5.28125 -7.5625 Z M 5.28125 -7.5625 "/></g></g></g><g fill="#004aad" fill-opacity="1"><g transform="translate(285.958247, 182.062582)"><g/></g></g><g fill="#004aad" fill-opacity="1"><g transform="translate(293.442962, 182.062582)"><g><path d="M 8.109375 0 L 5.96875 -3.046875 C 5.707031 -3.023438 5.5 -3.015625 5.34375 -3.015625 L 2.90625 -3.015625 L 2.90625 0 L 1.484375 0 L 1.484375 -9.890625 L 5.34375 -9.890625 C 6.625 -9.890625 7.628906 -9.582031 8.359375 -8.96875 C 9.097656 -8.363281 9.46875 -7.523438 9.46875 -6.453125 C 9.46875 -5.679688 9.28125 -5.023438 8.90625 -4.484375 C 8.53125 -3.953125 7.992188 -3.566406 7.296875 -3.328125 L 9.640625 0 Z M 5.296875 -4.21875 C 6.191406 -4.21875 6.875 -4.410156 7.34375 -4.796875 C 7.820312 -5.179688 8.0625 -5.734375 8.0625 -6.453125 C 8.0625 -7.160156 7.820312 -7.707031 7.34375 -8.09375 C 6.875 -8.476562 6.191406 -8.671875 5.296875 -8.671875 L 2.90625 -8.671875 L 2.90625 -4.21875 Z M 5.296875 -4.21875 "/></g></g></g><g fill="#004aad" fill-opacity="1"><g transform="translate(307.40639, 182.062582)"><g><path d="M 8.0625 -3.703125 C 8.0625 -3.597656 8.050781 -3.460938 8.03125 -3.296875 L 1.953125 -3.296875 C 2.035156 -2.640625 2.320312 -2.109375 2.8125 -1.703125 C 3.3125 -1.304688 3.929688 -1.109375 4.671875 -1.109375 C 5.566406 -1.109375 6.285156 -1.410156 6.828125 -2.015625 L 7.578125 -1.125 C 7.234375 -0.726562 6.8125 -0.425781 6.3125 -0.21875 C 5.8125 -0.0195312 5.25 0.078125 4.625 0.078125 C 3.832031 0.078125 3.128906 -0.0820312 2.515625 -0.40625 C 1.898438 -0.726562 1.425781 -1.179688 1.09375 -1.765625 C 0.757812 -2.347656 0.59375 -3.007812 0.59375 -3.75 C 0.59375 -4.476562 0.753906 -5.132812 1.078125 -5.71875 C 1.398438 -6.300781 1.847656 -6.753906 2.421875 -7.078125 C 2.992188 -7.398438 3.640625 -7.5625 4.359375 -7.5625 C 5.078125 -7.5625 5.710938 -7.398438 6.265625 -7.078125 C 6.828125 -6.753906 7.265625 -6.300781 7.578125 -5.71875 C 7.898438 -5.132812 8.0625 -4.460938 8.0625 -3.703125 Z M 4.359375 -6.421875 C 3.703125 -6.421875 3.15625 -6.222656 2.71875 -5.828125 C 2.28125 -5.429688 2.023438 -4.910156 1.953125 -4.265625 L 6.765625 -4.265625 C 6.679688 -4.898438 6.421875 -5.414062 5.984375 -5.8125 C 5.546875 -6.21875 5.003906 -6.421875 4.359375 -6.421875 Z M 4.359375 -6.421875 "/></g></g></g><g fill="#004aad" fill-opacity="1"><g transform="translate(319.743066, 182.062582)"><g><path d="M 4.015625 -7.5625 C 5.054688 -7.5625 5.847656 -7.304688 6.390625 -6.796875 C 6.941406 -6.285156 7.21875 -5.53125 7.21875 -4.53125 L 7.21875 0 L 5.9375 0 L 5.9375 -0.984375 C 5.707031 -0.640625 5.382812 -0.375 4.96875 -0.1875 C 4.550781 -0.0078125 4.054688 0.078125 3.484375 0.078125 C 2.640625 0.078125 1.960938 -0.117188 1.453125 -0.515625 C 0.953125 -0.921875 0.703125 -1.457031 0.703125 -2.125 C 0.703125 -2.78125 0.941406 -3.304688 1.421875 -3.703125 C 1.910156 -4.109375 2.675781 -4.3125 3.71875 -4.3125 L 5.875 -4.3125 L 5.875 -4.578125 C 5.875 -5.160156 5.703125 -5.609375 5.359375 -5.921875 C 5.015625 -6.234375 4.515625 -6.390625 3.859375 -6.390625 C 3.421875 -6.390625 2.988281 -6.316406 2.5625 -6.171875 C 2.132812 -6.023438 1.773438 -5.828125 1.484375 -5.578125 L 0.921875 -6.609375 C 1.304688 -6.910156 1.765625 -7.144531 2.296875 -7.3125 C 2.835938 -7.476562 3.410156 -7.5625 4.015625 -7.5625 Z M 3.703125 -0.96875 C 4.222656 -0.96875 4.671875 -1.082031 5.046875 -1.3125 C 5.421875 -1.539062 5.695312 -1.867188 5.875 -2.296875 L 5.875 -3.34375 L 3.78125 -3.34375 C 2.625 -3.34375 2.046875 -2.953125 2.046875 -2.171875 C 2.046875 -1.796875 2.191406 -1.5 2.484375 -1.28125 C 2.773438 -1.070312 3.179688 -0.96875 3.703125 -0.96875 Z M 3.703125 -0.96875 "/></g></g></g><g fill="#004aad" fill-opacity="1"><g transform="translate(331.881699, 182.062582)"><g><path d="M 4.546875 0.078125 C 3.785156 0.078125 3.101562 -0.0820312 2.5 -0.40625 C 1.90625 -0.738281 1.4375 -1.191406 1.09375 -1.765625 C 0.757812 -2.347656 0.59375 -3.007812 0.59375 -3.75 C 0.59375 -4.476562 0.757812 -5.132812 1.09375 -5.71875 C 1.4375 -6.300781 1.90625 -6.753906 2.5 -7.078125 C 3.101562 -7.398438 3.785156 -7.5625 4.546875 -7.5625 C 5.234375 -7.5625 5.84375 -7.425781 6.375 -7.15625 C 6.90625 -6.882812 7.316406 -6.488281 7.609375 -5.96875 L 6.578125 -5.296875 C 6.335938 -5.660156 6.039062 -5.929688 5.6875 -6.109375 C 5.34375 -6.285156 4.960938 -6.375 4.546875 -6.375 C 4.046875 -6.375 3.597656 -6.265625 3.203125 -6.046875 C 2.816406 -5.835938 2.515625 -5.53125 2.296875 -5.125 C 2.078125 -4.726562 1.96875 -4.269531 1.96875 -3.75 C 1.96875 -3.21875 2.078125 -2.75 2.296875 -2.34375 C 2.515625 -1.945312 2.816406 -1.640625 3.203125 -1.421875 C 3.597656 -1.210938 4.046875 -1.109375 4.546875 -1.109375 C 4.960938 -1.109375 5.34375 -1.195312 5.6875 -1.375 C 6.039062 -1.550781 6.335938 -1.816406 6.578125 -2.171875 L 7.609375 -1.53125 C 7.316406 -1.007812 6.90625 -0.609375 6.375 -0.328125 C 5.84375 -0.0546875 5.234375 0.078125 4.546875 0.078125 Z M 4.546875 0.078125 "/></g></g></g><g fill="#004aad" fill-opacity="1"><g transform="translate(343.638397, 182.062582)"><g><path d="M 5.28125 -7.5625 C 6.238281 -7.5625 7 -7.285156 7.5625 -6.734375 C 8.125 -6.179688 8.40625 -5.375 8.40625 -4.3125 L 8.40625 0 L 7.046875 0 L 7.046875 -4.15625 C 7.046875 -4.882812 6.867188 -5.429688 6.515625 -5.796875 C 6.171875 -6.160156 5.671875 -6.34375 5.015625 -6.34375 C 4.285156 -6.34375 3.707031 -6.128906 3.28125 -5.703125 C 2.851562 -5.273438 2.640625 -4.660156 2.640625 -3.859375 L 2.640625 0 L 1.28125 0 L 1.28125 -10.5 L 2.640625 -10.5 L 2.640625 -6.4375 C 2.921875 -6.789062 3.289062 -7.066406 3.75 -7.265625 C 4.207031 -7.460938 4.71875 -7.5625 5.28125 -7.5625 Z M 5.28125 -7.5625 "/></g></g></g><g fill="#004aad" fill-opacity="0.4"><g transform="translate(357.572787, 182.688027)"><g/></g></g><g fill="#004aad" fill-opacity="0.4"><g transform="translate(365.057504, 182.688027)"><g/></g></g><g fill="#004aad" fill-opacity="1"><g transform="translate(356.947344, 182.062582)"><g/></g></g><g fill="#004aad" fill-opacity="1"><g transform="translate(364.432061, 182.062582)"><g/></g></g><g fill="#004aad" fill-opacity="0.4"><g transform="translate(191.596668, 202.806344)"><g><path d="M 2.90625 -8.671875 L 2.90625 -5.21875 L 7.859375 -5.21875 L 7.859375 -4 L 2.90625 -4 L 2.90625 0 L 1.484375 0 L 1.484375 -9.890625 L 8.46875 -9.890625 L 8.46875 -8.671875 Z M 2.90625 -8.671875 "/></g></g></g><g fill="#004aad" fill-opacity="0.4"><g transform="translate(204.258688, 202.806344)"><g><path d="M 4.5 0.078125 C 3.75 0.078125 3.078125 -0.0820312 2.484375 -0.40625 C 1.890625 -0.738281 1.425781 -1.191406 1.09375 -1.765625 C 0.757812 -2.347656 0.59375 -3.007812 0.59375 -3.75 C 0.59375 -4.476562 0.757812 -5.132812 1.09375 -5.71875 C 1.425781 -6.300781 1.890625 -6.753906 2.484375 -7.078125 C 3.078125 -7.398438 3.75 -7.5625 4.5 -7.5625 C 5.238281 -7.5625 5.898438 -7.398438 6.484375 -7.078125 C 7.078125 -6.753906 7.539062 -6.300781 7.875 -5.71875 C 8.21875 -5.132812 8.390625 -4.476562 8.390625 -3.75 C 8.390625 -3.007812 8.21875 -2.347656 7.875 -1.765625 C 7.539062 -1.191406 7.078125 -0.738281 6.484375 -0.40625 C 5.898438 -0.0820312 5.238281 0.078125 4.5 0.078125 Z M 4.5 -1.109375 C 4.976562 -1.109375 5.40625 -1.21875 5.78125 -1.4375 C 6.164062 -1.65625 6.46875 -1.960938 6.6875 -2.359375 C 6.90625 -2.765625 7.015625 -3.226562 7.015625 -3.75 C 7.015625 -4.269531 6.90625 -4.726562 6.6875 -5.125 C 6.46875 -5.53125 6.164062 -5.835938 5.78125 -6.046875 C 5.40625 -6.265625 4.976562 -6.375 4.5 -6.375 C 4.019531 -6.375 3.585938 -6.265625 3.203125 -6.046875 C 2.816406 -5.835938 2.515625 -5.53125 2.296875 -5.125 C 2.078125 -4.726562 1.96875 -4.269531 1.96875 -3.75 C 1.96875 -3.226562 2.078125 -2.765625 2.296875 -2.359375 C 2.515625 -1.960938 2.816406 -1.65625 3.203125 -1.4375 C 3.585938 -1.21875 4.019531 -1.109375 4.5 -1.109375 Z M 4.5 -1.109375 "/></g></g></g><g fill="#004aad" fill-opacity="0.4"><g transform="translate(216.920709, 202.806344)"><g><path d="M 8.265625 -7.5 L 8.265625 0 L 6.984375 0 L 6.984375 -1.125 C 6.710938 -0.738281 6.351562 -0.441406 5.90625 -0.234375 C 5.457031 -0.0234375 4.96875 0.078125 4.4375 0.078125 C 3.4375 0.078125 2.648438 -0.191406 2.078125 -0.734375 C 1.503906 -1.285156 1.21875 -2.101562 1.21875 -3.1875 L 1.21875 -7.5 L 2.578125 -7.5 L 2.578125 -3.34375 C 2.578125 -2.613281 2.75 -2.0625 3.09375 -1.6875 C 3.445312 -1.3125 3.945312 -1.125 4.59375 -1.125 C 5.3125 -1.125 5.878906 -1.34375 6.296875 -1.78125 C 6.710938 -2.21875 6.921875 -2.832031 6.921875 -3.625 L 6.921875 -7.5 Z M 8.265625 -7.5 "/></g></g></g><g fill="#004aad" fill-opacity="0.4"><g transform="translate(230.176848, 202.806344)"><g><path d="M 5.28125 -7.5625 C 6.238281 -7.5625 7 -7.285156 7.5625 -6.734375 C 8.125 -6.179688 8.40625 -5.375 8.40625 -4.3125 L 8.40625 0 L 7.046875 0 L 7.046875 -4.15625 C 7.046875 -4.882812 6.867188 -5.429688 6.515625 -5.796875 C 6.171875 -6.160156 5.671875 -6.34375 5.015625 -6.34375 C 4.285156 -6.34375 3.707031 -6.128906 3.28125 -5.703125 C 2.851562 -5.273438 2.640625 -4.660156 2.640625 -3.859375 L 2.640625 0 L 1.28125 0 L 1.28125 -7.5 L 2.59375 -7.5 L 2.59375 -6.359375 C 2.863281 -6.742188 3.226562 -7.039062 3.6875 -7.25 C 4.15625 -7.457031 4.6875 -7.5625 5.28125 -7.5625 Z M 5.28125 -7.5625 "/></g></g></g><g fill="#004aad" fill-opacity="0.4"><g transform="translate(243.489567, 202.806344)"><g><path d="M 8.359375 -10.5 L 8.359375 0 L 7.0625 0 L 7.0625 -1.1875 C 6.757812 -0.769531 6.375 -0.453125 5.90625 -0.234375 C 5.445312 -0.0234375 4.941406 0.078125 4.390625 0.078125 C 3.660156 0.078125 3.003906 -0.078125 2.421875 -0.390625 C 1.847656 -0.710938 1.398438 -1.160156 1.078125 -1.734375 C 0.753906 -2.316406 0.59375 -2.988281 0.59375 -3.75 C 0.59375 -4.5 0.753906 -5.160156 1.078125 -5.734375 C 1.398438 -6.316406 1.847656 -6.765625 2.421875 -7.078125 C 3.003906 -7.398438 3.660156 -7.5625 4.390625 -7.5625 C 4.921875 -7.5625 5.410156 -7.457031 5.859375 -7.25 C 6.316406 -7.050781 6.695312 -6.753906 7 -6.359375 L 7 -10.5 Z M 4.5 -1.109375 C 4.96875 -1.109375 5.394531 -1.21875 5.78125 -1.4375 C 6.164062 -1.65625 6.46875 -1.960938 6.6875 -2.359375 C 6.90625 -2.765625 7.015625 -3.226562 7.015625 -3.75 C 7.015625 -4.269531 6.90625 -4.726562 6.6875 -5.125 C 6.46875 -5.53125 6.164062 -5.835938 5.78125 -6.046875 C 5.394531 -6.265625 4.96875 -6.375 4.5 -6.375 C 4.019531 -6.375 3.585938 -6.265625 3.203125 -6.046875 C 2.816406 -5.835938 2.515625 -5.53125 2.296875 -5.125 C 2.078125 -4.726562 1.96875 -4.269531 1.96875 -3.75 C 1.96875 -3.226562 2.078125 -2.765625 2.296875 -2.359375 C 2.515625 -1.960938 2.816406 -1.65625 3.203125 -1.4375 C 3.585938 -1.21875 4.019531 -1.109375 4.5 -1.109375 Z M 4.5 -1.109375 "/></g></g></g><g fill="#004aad" fill-opacity="0.4"><g transform="translate(256.816432, 202.806344)"><g><path d="M 4.015625 -7.5625 C 5.054688 -7.5625 5.847656 -7.304688 6.390625 -6.796875 C 6.941406 -6.285156 7.21875 -5.53125 7.21875 -4.53125 L 7.21875 0 L 5.9375 0 L 5.9375 -0.984375 C 5.707031 -0.640625 5.382812 -0.375 4.96875 -0.1875 C 4.550781 -0.0078125 4.054688 0.078125 3.484375 0.078125 C 2.640625 0.078125 1.960938 -0.117188 1.453125 -0.515625 C 0.953125 -0.921875 0.703125 -1.457031 0.703125 -2.125 C 0.703125 -2.78125 0.941406 -3.304688 1.421875 -3.703125 C 1.910156 -4.109375 2.675781 -4.3125 3.71875 -4.3125 L 5.875 -4.3125 L 5.875 -4.578125 C 5.875 -5.160156 5.703125 -5.609375 5.359375 -5.921875 C 5.015625 -6.234375 4.515625 -6.390625 3.859375 -6.390625 C 3.421875 -6.390625 2.988281 -6.316406 2.5625 -6.171875 C 2.132812 -6.023438 1.773438 -5.828125 1.484375 -5.578125 L 0.921875 -6.609375 C 1.304688 -6.910156 1.765625 -7.144531 2.296875 -7.3125 C 2.835938 -7.476562 3.410156 -7.5625 4.015625 -7.5625 Z M 3.703125 -0.96875 C 4.222656 -0.96875 4.671875 -1.082031 5.046875 -1.3125 C 5.421875 -1.539062 5.695312 -1.867188 5.875 -2.296875 L 5.875 -3.34375 L 3.78125 -3.34375 C 2.625 -3.34375 2.046875 -2.953125 2.046875 -2.171875 C 2.046875 -1.796875 2.191406 -1.5 2.484375 -1.28125 C 2.773438 -1.070312 3.179688 -0.96875 3.703125 -0.96875 Z M 3.703125 -0.96875 "/></g></g></g><g fill="#004aad" fill-opacity="0.4"><g transform="translate(268.955065, 202.806344)"><g><path d="M 5.5 -0.4375 C 5.300781 -0.269531 5.054688 -0.140625 4.765625 -0.046875 C 4.472656 0.0351562 4.171875 0.078125 3.859375 0.078125 C 3.109375 0.078125 2.523438 -0.117188 2.109375 -0.515625 C 1.691406 -0.921875 1.484375 -1.503906 1.484375 -2.265625 L 1.484375 -6.375 L 0.21875 -6.375 L 0.21875 -7.5 L 1.484375 -7.5 L 1.484375 -9.140625 L 2.84375 -9.140625 L 2.84375 -7.5 L 4.984375 -7.5 L 4.984375 -6.375 L 2.84375 -6.375 L 2.84375 -2.3125 C 2.84375 -1.914062 2.941406 -1.609375 3.140625 -1.390625 C 3.347656 -1.171875 3.640625 -1.0625 4.015625 -1.0625 C 4.429688 -1.0625 4.785156 -1.175781 5.078125 -1.40625 Z M 5.5 -0.4375 "/></g></g></g><g fill="#004aad" fill-opacity="0.4"><g transform="translate(278.490904, 202.806344)"><g><path d="M 1.28125 -7.5 L 2.640625 -7.5 L 2.640625 0 L 1.28125 0 Z M 1.96875 -8.9375 C 1.695312 -8.9375 1.472656 -9.019531 1.296875 -9.1875 C 1.128906 -9.363281 1.046875 -9.570312 1.046875 -9.8125 C 1.046875 -10.0625 1.128906 -10.269531 1.296875 -10.4375 C 1.472656 -10.613281 1.695312 -10.703125 1.96875 -10.703125 C 2.226562 -10.703125 2.441406 -10.617188 2.609375 -10.453125 C 2.785156 -10.285156 2.875 -10.082031 2.875 -9.84375 C 2.875 -9.582031 2.785156 -9.363281 2.609375 -9.1875 C 2.441406 -9.019531 2.226562 -8.9375 1.96875 -8.9375 Z M 1.96875 -8.9375 "/></g></g></g><g fill="#004aad" fill-opacity="0.4"><g transform="translate(286.117079, 202.806344)"><g><path d="M 4.5 0.078125 C 3.75 0.078125 3.078125 -0.0820312 2.484375 -0.40625 C 1.890625 -0.738281 1.425781 -1.191406 1.09375 -1.765625 C 0.757812 -2.347656 0.59375 -3.007812 0.59375 -3.75 C 0.59375 -4.476562 0.757812 -5.132812 1.09375 -5.71875 C 1.425781 -6.300781 1.890625 -6.753906 2.484375 -7.078125 C 3.078125 -7.398438 3.75 -7.5625 4.5 -7.5625 C 5.238281 -7.5625 5.898438 -7.398438 6.484375 -7.078125 C 7.078125 -6.753906 7.539062 -6.300781 7.875 -5.71875 C 8.21875 -5.132812 8.390625 -4.476562 8.390625 -3.75 C 8.390625 -3.007812 8.21875 -2.347656 7.875 -1.765625 C 7.539062 -1.191406 7.078125 -0.738281 6.484375 -0.40625 C 5.898438 -0.0820312 5.238281 0.078125 4.5 0.078125 Z M 4.5 -1.109375 C 4.976562 -1.109375 5.40625 -1.21875 5.78125 -1.4375 C 6.164062 -1.65625 6.46875 -1.960938 6.6875 -2.359375 C 6.90625 -2.765625 7.015625 -3.226562 7.015625 -3.75 C 7.015625 -4.269531 6.90625 -4.726562 6.6875 -5.125 C 6.46875 -5.53125 6.164062 -5.835938 5.78125 -6.046875 C 5.40625 -6.265625 4.976562 -6.375 4.5 -6.375 C 4.019531 -6.375 3.585938 -6.265625 3.203125 -6.046875 C 2.816406 -5.835938 2.515625 -5.53125 2.296875 -5.125 C 2.078125 -4.726562 1.96875 -4.269531 1.96875 -3.75 C 1.96875 -3.226562 2.078125 -2.765625 2.296875 -2.359375 C 2.515625 -1.960938 2.816406 -1.65625 3.203125 -1.4375 C 3.585938 -1.21875 4.019531 -1.109375 4.5 -1.109375 Z M 4.5 -1.109375 "/></g></g></g><g fill="#004aad" fill-opacity="0.4"><g transform="translate(298.779097, 202.806344)"><g><path d="M 5.28125 -7.5625 C 6.238281 -7.5625 7 -7.285156 7.5625 -6.734375 C 8.125 -6.179688 8.40625 -5.375 8.40625 -4.3125 L 8.40625 0 L 7.046875 0 L 7.046875 -4.15625 C 7.046875 -4.882812 6.867188 -5.429688 6.515625 -5.796875 C 6.171875 -6.160156 5.671875 -6.34375 5.015625 -6.34375 C 4.285156 -6.34375 3.707031 -6.128906 3.28125 -5.703125 C 2.851562 -5.273438 2.640625 -4.660156 2.640625 -3.859375 L 2.640625 0 L 1.28125 0 L 1.28125 -7.5 L 2.59375 -7.5 L 2.59375 -6.359375 C 2.863281 -6.742188 3.226562 -7.039062 3.6875 -7.25 C 4.15625 -7.457031 4.6875 -7.5625 5.28125 -7.5625 Z M 5.28125 -7.5625 "/></g></g></g><g fill="#004aad" fill-opacity="1"><g transform="translate(190.971225, 202.180899)"><g><path d="M 2.90625 -8.671875 L 2.90625 -5.21875 L 7.859375 -5.21875 L 7.859375 -4 L 2.90625 -4 L 2.90625 0 L 1.484375 0 L 1.484375 -9.890625 L 8.46875 -9.890625 L 8.46875 -8.671875 Z M 2.90625 -8.671875 "/></g></g></g><g fill="#004aad" fill-opacity="1"><g transform="translate(203.633246, 202.180899)"><g><path d="M 4.5 0.078125 C 3.75 0.078125 3.078125 -0.0820312 2.484375 -0.40625 C 1.890625 -0.738281 1.425781 -1.191406 1.09375 -1.765625 C 0.757812 -2.347656 0.59375 -3.007812 0.59375 -3.75 C 0.59375 -4.476562 0.757812 -5.132812 1.09375 -5.71875 C 1.425781 -6.300781 1.890625 -6.753906 2.484375 -7.078125 C 3.078125 -7.398438 3.75 -7.5625 4.5 -7.5625 C 5.238281 -7.5625 5.898438 -7.398438 6.484375 -7.078125 C 7.078125 -6.753906 7.539062 -6.300781 7.875 -5.71875 C 8.21875 -5.132812 8.390625 -4.476562 8.390625 -3.75 C 8.390625 -3.007812 8.21875 -2.347656 7.875 -1.765625 C 7.539062 -1.191406 7.078125 -0.738281 6.484375 -0.40625 C 5.898438 -0.0820312 5.238281 0.078125 4.5 0.078125 Z M 4.5 -1.109375 C 4.976562 -1.109375 5.40625 -1.21875 5.78125 -1.4375 C 6.164062 -1.65625 6.46875 -1.960938 6.6875 -2.359375 C 6.90625 -2.765625 7.015625 -3.226562 7.015625 -3.75 C 7.015625 -4.269531 6.90625 -4.726562 6.6875 -5.125 C 6.46875 -5.53125 6.164062 -5.835938 5.78125 -6.046875 C 5.40625 -6.265625 4.976562 -6.375 4.5 -6.375 C 4.019531 -6.375 3.585938 -6.265625 3.203125 -6.046875 C 2.816406 -5.835938 2.515625 -5.53125 2.296875 -5.125 C 2.078125 -4.726562 1.96875 -4.269531 1.96875 -3.75 C 1.96875 -3.226562 2.078125 -2.765625 2.296875 -2.359375 C 2.515625 -1.960938 2.816406 -1.65625 3.203125 -1.4375 C 3.585938 -1.21875 4.019531 -1.109375 4.5 -1.109375 Z M 4.5 -1.109375 "/></g></g></g><g fill="#004aad" fill-opacity="1"><g transform="translate(216.295267, 202.180899)"><g><path d="M 8.265625 -7.5 L 8.265625 0 L 6.984375 0 L 6.984375 -1.125 C 6.710938 -0.738281 6.351562 -0.441406 5.90625 -0.234375 C 5.457031 -0.0234375 4.96875 0.078125 4.4375 0.078125 C 3.4375 0.078125 2.648438 -0.191406 2.078125 -0.734375 C 1.503906 -1.285156 1.21875 -2.101562 1.21875 -3.1875 L 1.21875 -7.5 L 2.578125 -7.5 L 2.578125 -3.34375 C 2.578125 -2.613281 2.75 -2.0625 3.09375 -1.6875 C 3.445312 -1.3125 3.945312 -1.125 4.59375 -1.125 C 5.3125 -1.125 5.878906 -1.34375 6.296875 -1.78125 C 6.710938 -2.21875 6.921875 -2.832031 6.921875 -3.625 L 6.921875 -7.5 Z M 8.265625 -7.5 "/></g></g></g><g fill="#004aad" fill-opacity="1"><g transform="translate(229.551406, 202.180899)"><g><path d="M 5.28125 -7.5625 C 6.238281 -7.5625 7 -7.285156 7.5625 -6.734375 C 8.125 -6.179688 8.40625 -5.375 8.40625 -4.3125 L 8.40625 0 L 7.046875 0 L 7.046875 -4.15625 C 7.046875 -4.882812 6.867188 -5.429688 6.515625 -5.796875 C 6.171875 -6.160156 5.671875 -6.34375 5.015625 -6.34375 C 4.285156 -6.34375 3.707031 -6.128906 3.28125 -5.703125 C 2.851562 -5.273438 2.640625 -4.660156 2.640625 -3.859375 L 2.640625 0 L 1.28125 0 L 1.28125 -7.5 L 2.59375 -7.5 L 2.59375 -6.359375 C 2.863281 -6.742188 3.226562 -7.039062 3.6875 -7.25 C 4.15625 -7.457031 4.6875 -7.5625 5.28125 -7.5625 Z M 5.28125 -7.5625 "/></g></g></g><g fill="#004aad" fill-opacity="1"><g transform="translate(242.864125, 202.180899)"><g><path d="M 8.359375 -10.5 L 8.359375 0 L 7.0625 0 L 7.0625 -1.1875 C 6.757812 -0.769531 6.375 -0.453125 5.90625 -0.234375 C 5.445312 -0.0234375 4.941406 0.078125 4.390625 0.078125 C 3.660156 0.078125 3.003906 -0.078125 2.421875 -0.390625 C 1.847656 -0.710938 1.398438 -1.160156 1.078125 -1.734375 C 0.753906 -2.316406 0.59375 -2.988281 0.59375 -3.75 C 0.59375 -4.5 0.753906 -5.160156 1.078125 -5.734375 C 1.398438 -6.316406 1.847656 -6.765625 2.421875 -7.078125 C 3.003906 -7.398438 3.660156 -7.5625 4.390625 -7.5625 C 4.921875 -7.5625 5.410156 -7.457031 5.859375 -7.25 C 6.316406 -7.050781 6.695312 -6.753906 7 -6.359375 L 7 -10.5 Z M 4.5 -1.109375 C 4.96875 -1.109375 5.394531 -1.21875 5.78125 -1.4375 C 6.164062 -1.65625 6.46875 -1.960938 6.6875 -2.359375 C 6.90625 -2.765625 7.015625 -3.226562 7.015625 -3.75 C 7.015625 -4.269531 6.90625 -4.726562 6.6875 -5.125 C 6.46875 -5.53125 6.164062 -5.835938 5.78125 -6.046875 C 5.394531 -6.265625 4.96875 -6.375 4.5 -6.375 C 4.019531 -6.375 3.585938 -6.265625 3.203125 -6.046875 C 2.816406 -5.835938 2.515625 -5.53125 2.296875 -5.125 C 2.078125 -4.726562 1.96875 -4.269531 1.96875 -3.75 C 1.96875 -3.226562 2.078125 -2.765625 2.296875 -2.359375 C 2.515625 -1.960938 2.816406 -1.65625 3.203125 -1.4375 C 3.585938 -1.21875 4.019531 -1.109375 4.5 -1.109375 Z M 4.5 -1.109375 "/></g></g></g><g fill="#004aad" fill-opacity="1"><g transform="translate(256.19099, 202.180899)"><g><path d="M 4.015625 -7.5625 C 5.054688 -7.5625 5.847656 -7.304688 6.390625 -6.796875 C 6.941406 -6.285156 7.21875 -5.53125 7.21875 -4.53125 L 7.21875 0 L 5.9375 0 L 5.9375 -0.984375 C 5.707031 -0.640625 5.382812 -0.375 4.96875 -0.1875 C 4.550781 -0.0078125 4.054688 0.078125 3.484375 0.078125 C 2.640625 0.078125 1.960938 -0.117188 1.453125 -0.515625 C 0.953125 -0.921875 0.703125 -1.457031 0.703125 -2.125 C 0.703125 -2.78125 0.941406 -3.304688 1.421875 -3.703125 C 1.910156 -4.109375 2.675781 -4.3125 3.71875 -4.3125 L 5.875 -4.3125 L 5.875 -4.578125 C 5.875 -5.160156 5.703125 -5.609375 5.359375 -5.921875 C 5.015625 -6.234375 4.515625 -6.390625 3.859375 -6.390625 C 3.421875 -6.390625 2.988281 -6.316406 2.5625 -6.171875 C 2.132812 -6.023438 1.773438 -5.828125 1.484375 -5.578125 L 0.921875 -6.609375 C 1.304688 -6.910156 1.765625 -7.144531 2.296875 -7.3125 C 2.835938 -7.476562 3.410156 -7.5625 4.015625 -7.5625 Z M 3.703125 -0.96875 C 4.222656 -0.96875 4.671875 -1.082031 5.046875 -1.3125 C 5.421875 -1.539062 5.695312 -1.867188 5.875 -2.296875 L 5.875 -3.34375 L 3.78125 -3.34375 C 2.625 -3.34375 2.046875 -2.953125 2.046875 -2.171875 C 2.046875 -1.796875 2.191406 -1.5 2.484375 -1.28125 C 2.773438 -1.070312 3.179688 -0.96875 3.703125 -0.96875 Z M 3.703125 -0.96875 "/></g></g></g><g fill="#004aad" fill-opacity="1"><g transform="translate(268.329623, 202.180899)"><g><path d="M 5.5 -0.4375 C 5.300781 -0.269531 5.054688 -0.140625 4.765625 -0.046875 C 4.472656 0.0351562 4.171875 0.078125 3.859375 0.078125 C 3.109375 0.078125 2.523438 -0.117188 2.109375 -0.515625 C 1.691406 -0.921875 1.484375 -1.503906 1.484375 -2.265625 L 1.484375 -6.375 L 0.21875 -6.375 L 0.21875 -7.5 L 1.484375 -7.5 L 1.484375 -9.140625 L 2.84375 -9.140625 L 2.84375 -7.5 L 4.984375 -7.5 L 4.984375 -6.375 L 2.84375 -6.375 L 2.84375 -2.3125 C 2.84375 -1.914062 2.941406 -1.609375 3.140625 -1.390625 C 3.347656 -1.171875 3.640625 -1.0625 4.015625 -1.0625 C 4.429688 -1.0625 4.785156 -1.175781 5.078125 -1.40625 Z M 5.5 -0.4375 "/></g></g></g><g fill="#004aad" fill-opacity="1"><g transform="translate(277.865461, 202.180899)"><g><path d="M 1.28125 -7.5 L 2.640625 -7.5 L 2.640625 0 L 1.28125 0 Z M 1.96875 -8.9375 C 1.695312 -8.9375 1.472656 -9.019531 1.296875 -9.1875 C 1.128906 -9.363281 1.046875 -9.570312 1.046875 -9.8125 C 1.046875 -10.0625 1.128906 -10.269531 1.296875 -10.4375 C 1.472656 -10.613281 1.695312 -10.703125 1.96875 -10.703125 C 2.226562 -10.703125 2.441406 -10.617188 2.609375 -10.453125 C 2.785156 -10.285156 2.875 -10.082031 2.875 -9.84375 C 2.875 -9.582031 2.785156 -9.363281 2.609375 -9.1875 C 2.441406 -9.019531 2.226562 -8.9375 1.96875 -8.9375 Z M 1.96875 -8.9375 "/></g></g></g><g fill="#004aad" fill-opacity="1"><g transform="translate(285.491636, 202.180899)"><g><path d="M 4.5 0.078125 C 3.75 0.078125 3.078125 -0.0820312 2.484375 -0.40625 C 1.890625 -0.738281 1.425781 -1.191406 1.09375 -1.765625 C 0.757812 -2.347656 0.59375 -3.007812 0.59375 -3.75 C 0.59375 -4.476562 0.757812 -5.132812 1.09375 -5.71875 C 1.425781 -6.300781 1.890625 -6.753906 2.484375 -7.078125 C 3.078125 -7.398438 3.75 -7.5625 4.5 -7.5625 C 5.238281 -7.5625 5.898438 -7.398438 6.484375 -7.078125 C 7.078125 -6.753906 7.539062 -6.300781 7.875 -5.71875 C 8.21875 -5.132812 8.390625 -4.476562 8.390625 -3.75 C 8.390625 -3.007812 8.21875 -2.347656 7.875 -1.765625 C 7.539062 -1.191406 7.078125 -0.738281 6.484375 -0.40625 C 5.898438 -0.0820312 5.238281 0.078125 4.5 0.078125 Z M 4.5 -1.109375 C 4.976562 -1.109375 5.40625 -1.21875 5.78125 -1.4375 C 6.164062 -1.65625 6.46875 -1.960938 6.6875 -2.359375 C 6.90625 -2.765625 7.015625 -3.226562 7.015625 -3.75 C 7.015625 -4.269531 6.90625 -4.726562 6.6875 -5.125 C 6.46875 -5.53125 6.164062 -5.835938 5.78125 -6.046875 C 5.40625 -6.265625 4.976562 -6.375 4.5 -6.375 C 4.019531 -6.375 3.585938 -6.265625 3.203125 -6.046875 C 2.816406 -5.835938 2.515625 -5.53125 2.296875 -5.125 C 2.078125 -4.726562 1.96875 -4.269531 1.96875 -3.75 C 1.96875 -3.226562 2.078125 -2.765625 2.296875 -2.359375 C 2.515625 -1.960938 2.816406 -1.65625 3.203125 -1.4375 C 3.585938 -1.21875 4.019531 -1.109375 4.5 -1.109375 Z M 4.5 -1.109375 "/></g></g></g><g fill="#004aad" fill-opacity="1"><g transform="translate(298.153655, 202.180899)"><g><path d="M 5.28125 -7.5625 C 6.238281 -7.5625 7 -7.285156 7.5625 -6.734375 C 8.125 -6.179688 8.40625 -5.375 8.40625 -4.3125 L 8.40625 0 L 7.046875 0 L 7.046875 -4.15625 C 7.046875 -4.882812 6.867188 -5.429688 6.515625 -5.796875 C 6.171875 -6.160156 5.671875 -6.34375 5.015625 -6.34375 C 4.285156 -6.34375 3.707031 -6.128906 3.28125 -5.703125 C 2.851562 -5.273438 2.640625 -4.660156 2.640625 -3.859375 L 2.640625 0 L 1.28125 0 L 1.28125 -7.5 L 2.59375 -7.5 L 2.59375 -6.359375 C 2.863281 -6.742188 3.226562 -7.039062 3.6875 -7.25 C 4.15625 -7.457031 4.6875 -7.5625 5.28125 -7.5625 Z M 5.28125 -7.5625 "/></g></g></g><path stroke-linecap="butt" transform="matrix(0.738867, 0, 0, 0.75, 11.734048, 229.640493)" fill="none" stroke-linejoin="miter" d="M 0.000442935 1.500176 L 28.427608 1.500176 " stroke="#004aad" stroke-width="3" stroke-opacity="1" stroke-miterlimit="4"/><path stroke-linecap="butt" transform="matrix(0.738867, 0, 0, 0.75, 108.059969, 229.640493)" fill="none" stroke-linejoin="miter" d="M -0.00186076 1.500176 L 28.425304 1.500176 " stroke="#004aad" stroke-width="3" stroke-opacity="1" stroke-miterlimit="4"/></svg>